<?xml version="1.0" encoding="utf-8" standalone="no"?>
<!DOCTYPE svg PUBLIC "-//W3C//DTD SVG 1.1//EN"
  "http://www.w3.org/Graphics/SVG/1.1/DTD/svg11.dtd">
<!-- Created with matplotlib (https://matplotlib.org/) -->
<svg height="345.6pt" version="1.1" viewBox="0 0 460.8 345.6" width="460.8pt" xmlns="http://www.w3.org/2000/svg" xmlns:xlink="http://www.w3.org/1999/xlink">
 <metadata>
  <rdf:RDF xmlns:cc="http://creativecommons.org/ns#" xmlns:dc="http://purl.org/dc/elements/1.1/" xmlns:rdf="http://www.w3.org/1999/02/22-rdf-syntax-ns#">
   <cc:Work>
    <dc:type rdf:resource="http://purl.org/dc/dcmitype/StillImage"/>
    <dc:date>2020-11-09T01:29:19.845587</dc:date>
    <dc:format>image/svg+xml</dc:format>
    <dc:creator>
     <cc:Agent>
      <dc:title>Matplotlib v3.3.2, https://matplotlib.org/</dc:title>
     </cc:Agent>
    </dc:creator>
   </cc:Work>
  </rdf:RDF>
 </metadata>
 <defs>
  <style type="text/css">*{stroke-linecap:butt;stroke-linejoin:round;}</style>
 </defs>
 <g id="figure_1">
  <g id="patch_1">
   <path d="M 0 345.6 
L 460.8 345.6 
L 460.8 0 
L 0 0 
z
" style="fill:#ffffff;"/>
  </g>
  <g id="axes_1">
   <g id="patch_2">
    <path d="M 57.6 307.584 
L 414.72 307.584 
L 414.72 41.472 
L 57.6 41.472 
z
" style="fill:#ffffff;"/>
   </g>
   <g id="matplotlib.axis_1">
    <g id="xtick_1">
     <g id="line2d_1">
      <defs>
       <path d="M 0 0 
L 0 3.5 
" id="mab4968ba2e" style="stroke:#000000;stroke-width:0.8;"/>
      </defs>
      <g>
       <use style="stroke:#000000;stroke-width:0.8;" x="97.96532" xlink:href="#mab4968ba2e" y="307.584"/>
      </g>
     </g>
     <g id="text_1">
      <!-- $\mathdefault{10^{-1}}$ -->
      <g transform="translate(86.21532 322.182437)scale(0.1 -0.1)">
       <defs>
        <path d="M 12.40625 8.296875 
L 28.515625 8.296875 
L 28.515625 63.921875 
L 10.984375 60.40625 
L 10.984375 69.390625 
L 28.421875 72.90625 
L 38.28125 72.90625 
L 38.28125 8.296875 
L 54.390625 8.296875 
L 54.390625 0 
L 12.40625 0 
z
" id="DejaVuSans-49"/>
        <path d="M 31.78125 66.40625 
Q 24.171875 66.40625 20.328125 58.90625 
Q 16.5 51.421875 16.5 36.375 
Q 16.5 21.390625 20.328125 13.890625 
Q 24.171875 6.390625 31.78125 6.390625 
Q 39.453125 6.390625 43.28125 13.890625 
Q 47.125 21.390625 47.125 36.375 
Q 47.125 51.421875 43.28125 58.90625 
Q 39.453125 66.40625 31.78125 66.40625 
z
M 31.78125 74.21875 
Q 44.046875 74.21875 50.515625 64.515625 
Q 56.984375 54.828125 56.984375 36.375 
Q 56.984375 17.96875 50.515625 8.265625 
Q 44.046875 -1.421875 31.78125 -1.421875 
Q 19.53125 -1.421875 13.0625 8.265625 
Q 6.59375 17.96875 6.59375 36.375 
Q 6.59375 54.828125 13.0625 64.515625 
Q 19.53125 74.21875 31.78125 74.21875 
z
" id="DejaVuSans-48"/>
        <path d="M 10.59375 35.5 
L 73.1875 35.5 
L 73.1875 27.203125 
L 10.59375 27.203125 
z
" id="DejaVuSans-8722"/>
       </defs>
       <use transform="translate(0 0.684375)" xlink:href="#DejaVuSans-49"/>
       <use transform="translate(63.623047 0.684375)" xlink:href="#DejaVuSans-48"/>
       <use transform="translate(128.203125 38.965625)scale(0.7)" xlink:href="#DejaVuSans-8722"/>
       <use transform="translate(186.855469 38.965625)scale(0.7)" xlink:href="#DejaVuSans-49"/>
      </g>
     </g>
    </g>
    <g id="xtick_2">
     <g id="line2d_2">
      <g>
       <use style="stroke:#000000;stroke-width:0.8;" x="186.407715" xlink:href="#mab4968ba2e" y="307.584"/>
      </g>
     </g>
     <g id="text_2">
      <!-- $\mathdefault{10^{0}}$ -->
      <g transform="translate(177.607715 322.182437)scale(0.1 -0.1)">
       <use transform="translate(0 0.765625)" xlink:href="#DejaVuSans-49"/>
       <use transform="translate(63.623047 0.765625)" xlink:href="#DejaVuSans-48"/>
       <use transform="translate(128.203125 39.046875)scale(0.7)" xlink:href="#DejaVuSans-48"/>
      </g>
     </g>
    </g>
    <g id="xtick_3">
     <g id="line2d_3">
      <g>
       <use style="stroke:#000000;stroke-width:0.8;" x="274.85011" xlink:href="#mab4968ba2e" y="307.584"/>
      </g>
     </g>
     <g id="text_3">
      <!-- $\mathdefault{10^{1}}$ -->
      <g transform="translate(266.05011 322.182437)scale(0.1 -0.1)">
       <use transform="translate(0 0.684375)" xlink:href="#DejaVuSans-49"/>
       <use transform="translate(63.623047 0.684375)" xlink:href="#DejaVuSans-48"/>
       <use transform="translate(128.203125 38.965625)scale(0.7)" xlink:href="#DejaVuSans-49"/>
      </g>
     </g>
    </g>
    <g id="xtick_4">
     <g id="line2d_4">
      <g>
       <use style="stroke:#000000;stroke-width:0.8;" x="363.292505" xlink:href="#mab4968ba2e" y="307.584"/>
      </g>
     </g>
     <g id="text_4">
      <!-- $\mathdefault{10^{2}}$ -->
      <g transform="translate(354.492505 322.182437)scale(0.1 -0.1)">
       <defs>
        <path d="M 19.1875 8.296875 
L 53.609375 8.296875 
L 53.609375 0 
L 7.328125 0 
L 7.328125 8.296875 
Q 12.9375 14.109375 22.625 23.890625 
Q 32.328125 33.6875 34.8125 36.53125 
Q 39.546875 41.84375 41.421875 45.53125 
Q 43.3125 49.21875 43.3125 52.78125 
Q 43.3125 58.59375 39.234375 62.25 
Q 35.15625 65.921875 28.609375 65.921875 
Q 23.96875 65.921875 18.8125 64.3125 
Q 13.671875 62.703125 7.8125 59.421875 
L 7.8125 69.390625 
Q 13.765625 71.78125 18.9375 73 
Q 24.125 74.21875 28.421875 74.21875 
Q 39.75 74.21875 46.484375 68.546875 
Q 53.21875 62.890625 53.21875 53.421875 
Q 53.21875 48.921875 51.53125 44.890625 
Q 49.859375 40.875 45.40625 35.40625 
Q 44.1875 33.984375 37.640625 27.21875 
Q 31.109375 20.453125 19.1875 8.296875 
z
" id="DejaVuSans-50"/>
       </defs>
       <use transform="translate(0 0.765625)" xlink:href="#DejaVuSans-49"/>
       <use transform="translate(63.623047 0.765625)" xlink:href="#DejaVuSans-48"/>
       <use transform="translate(128.203125 39.046875)scale(0.7)" xlink:href="#DejaVuSans-50"/>
      </g>
     </g>
    </g>
    <g id="xtick_5">
     <g id="line2d_5">
      <defs>
       <path d="M 0 0 
L 0 2 
" id="m5fde3e9bf9" style="stroke:#000000;stroke-width:0.6;"/>
      </defs>
      <g>
       <use style="stroke:#000000;stroke-width:0.6;" x="62.770553" xlink:href="#m5fde3e9bf9" y="307.584"/>
      </g>
     </g>
    </g>
    <g id="xtick_6">
     <g id="line2d_6">
      <g>
       <use style="stroke:#000000;stroke-width:0.6;" x="71.341507" xlink:href="#m5fde3e9bf9" y="307.584"/>
      </g>
     </g>
    </g>
    <g id="xtick_7">
     <g id="line2d_7">
      <g>
       <use style="stroke:#000000;stroke-width:0.6;" x="78.344486" xlink:href="#m5fde3e9bf9" y="307.584"/>
      </g>
     </g>
    </g>
    <g id="xtick_8">
     <g id="line2d_8">
      <g>
       <use style="stroke:#000000;stroke-width:0.6;" x="84.26542" xlink:href="#m5fde3e9bf9" y="307.584"/>
      </g>
     </g>
    </g>
    <g id="xtick_9">
     <g id="line2d_9">
      <g>
       <use style="stroke:#000000;stroke-width:0.6;" x="89.394367" xlink:href="#m5fde3e9bf9" y="307.584"/>
      </g>
     </g>
    </g>
    <g id="xtick_10">
     <g id="line2d_10">
      <g>
       <use style="stroke:#000000;stroke-width:0.6;" x="93.918418" xlink:href="#m5fde3e9bf9" y="307.584"/>
      </g>
     </g>
    </g>
    <g id="xtick_11">
     <g id="line2d_11">
      <g>
       <use style="stroke:#000000;stroke-width:0.6;" x="124.589134" xlink:href="#m5fde3e9bf9" y="307.584"/>
      </g>
     </g>
    </g>
    <g id="xtick_12">
     <g id="line2d_12">
      <g>
       <use style="stroke:#000000;stroke-width:0.6;" x="140.163067" xlink:href="#m5fde3e9bf9" y="307.584"/>
      </g>
     </g>
    </g>
    <g id="xtick_13">
     <g id="line2d_13">
      <g>
       <use style="stroke:#000000;stroke-width:0.6;" x="151.212948" xlink:href="#m5fde3e9bf9" y="307.584"/>
      </g>
     </g>
    </g>
    <g id="xtick_14">
     <g id="line2d_14">
      <g>
       <use style="stroke:#000000;stroke-width:0.6;" x="159.783902" xlink:href="#m5fde3e9bf9" y="307.584"/>
      </g>
     </g>
    </g>
    <g id="xtick_15">
     <g id="line2d_15">
      <g>
       <use style="stroke:#000000;stroke-width:0.6;" x="166.786881" xlink:href="#m5fde3e9bf9" y="307.584"/>
      </g>
     </g>
    </g>
    <g id="xtick_16">
     <g id="line2d_16">
      <g>
       <use style="stroke:#000000;stroke-width:0.6;" x="172.707815" xlink:href="#m5fde3e9bf9" y="307.584"/>
      </g>
     </g>
    </g>
    <g id="xtick_17">
     <g id="line2d_17">
      <g>
       <use style="stroke:#000000;stroke-width:0.6;" x="177.836762" xlink:href="#m5fde3e9bf9" y="307.584"/>
      </g>
     </g>
    </g>
    <g id="xtick_18">
     <g id="line2d_18">
      <g>
       <use style="stroke:#000000;stroke-width:0.6;" x="182.360813" xlink:href="#m5fde3e9bf9" y="307.584"/>
      </g>
     </g>
    </g>
    <g id="xtick_19">
     <g id="line2d_19">
      <g>
       <use style="stroke:#000000;stroke-width:0.6;" x="213.031529" xlink:href="#m5fde3e9bf9" y="307.584"/>
      </g>
     </g>
    </g>
    <g id="xtick_20">
     <g id="line2d_20">
      <g>
       <use style="stroke:#000000;stroke-width:0.6;" x="228.605462" xlink:href="#m5fde3e9bf9" y="307.584"/>
      </g>
     </g>
    </g>
    <g id="xtick_21">
     <g id="line2d_21">
      <g>
       <use style="stroke:#000000;stroke-width:0.6;" x="239.655343" xlink:href="#m5fde3e9bf9" y="307.584"/>
      </g>
     </g>
    </g>
    <g id="xtick_22">
     <g id="line2d_22">
      <g>
       <use style="stroke:#000000;stroke-width:0.6;" x="248.226297" xlink:href="#m5fde3e9bf9" y="307.584"/>
      </g>
     </g>
    </g>
    <g id="xtick_23">
     <g id="line2d_23">
      <g>
       <use style="stroke:#000000;stroke-width:0.6;" x="255.229276" xlink:href="#m5fde3e9bf9" y="307.584"/>
      </g>
     </g>
    </g>
    <g id="xtick_24">
     <g id="line2d_24">
      <g>
       <use style="stroke:#000000;stroke-width:0.6;" x="261.15021" xlink:href="#m5fde3e9bf9" y="307.584"/>
      </g>
     </g>
    </g>
    <g id="xtick_25">
     <g id="line2d_25">
      <g>
       <use style="stroke:#000000;stroke-width:0.6;" x="266.279157" xlink:href="#m5fde3e9bf9" y="307.584"/>
      </g>
     </g>
    </g>
    <g id="xtick_26">
     <g id="line2d_26">
      <g>
       <use style="stroke:#000000;stroke-width:0.6;" x="270.803208" xlink:href="#m5fde3e9bf9" y="307.584"/>
      </g>
     </g>
    </g>
    <g id="xtick_27">
     <g id="line2d_27">
      <g>
       <use style="stroke:#000000;stroke-width:0.6;" x="301.473924" xlink:href="#m5fde3e9bf9" y="307.584"/>
      </g>
     </g>
    </g>
    <g id="xtick_28">
     <g id="line2d_28">
      <g>
       <use style="stroke:#000000;stroke-width:0.6;" x="317.047857" xlink:href="#m5fde3e9bf9" y="307.584"/>
      </g>
     </g>
    </g>
    <g id="xtick_29">
     <g id="line2d_29">
      <g>
       <use style="stroke:#000000;stroke-width:0.6;" x="328.097738" xlink:href="#m5fde3e9bf9" y="307.584"/>
      </g>
     </g>
    </g>
    <g id="xtick_30">
     <g id="line2d_30">
      <g>
       <use style="stroke:#000000;stroke-width:0.6;" x="336.668692" xlink:href="#m5fde3e9bf9" y="307.584"/>
      </g>
     </g>
    </g>
    <g id="xtick_31">
     <g id="line2d_31">
      <g>
       <use style="stroke:#000000;stroke-width:0.6;" x="343.671671" xlink:href="#m5fde3e9bf9" y="307.584"/>
      </g>
     </g>
    </g>
    <g id="xtick_32">
     <g id="line2d_32">
      <g>
       <use style="stroke:#000000;stroke-width:0.6;" x="349.592605" xlink:href="#m5fde3e9bf9" y="307.584"/>
      </g>
     </g>
    </g>
    <g id="xtick_33">
     <g id="line2d_33">
      <g>
       <use style="stroke:#000000;stroke-width:0.6;" x="354.721552" xlink:href="#m5fde3e9bf9" y="307.584"/>
      </g>
     </g>
    </g>
    <g id="xtick_34">
     <g id="line2d_34">
      <g>
       <use style="stroke:#000000;stroke-width:0.6;" x="359.245603" xlink:href="#m5fde3e9bf9" y="307.584"/>
      </g>
     </g>
    </g>
    <g id="xtick_35">
     <g id="line2d_35">
      <g>
       <use style="stroke:#000000;stroke-width:0.6;" x="389.916319" xlink:href="#m5fde3e9bf9" y="307.584"/>
      </g>
     </g>
    </g>
    <g id="xtick_36">
     <g id="line2d_36">
      <g>
       <use style="stroke:#000000;stroke-width:0.6;" x="405.490252" xlink:href="#m5fde3e9bf9" y="307.584"/>
      </g>
     </g>
    </g>
    <g id="text_5">
     <!-- Frequency (Hz) -->
     <g transform="translate(198.455312 335.860562)scale(0.1 -0.1)">
      <defs>
       <path d="M 9.8125 72.90625 
L 51.703125 72.90625 
L 51.703125 64.59375 
L 19.671875 64.59375 
L 19.671875 43.109375 
L 48.578125 43.109375 
L 48.578125 34.8125 
L 19.671875 34.8125 
L 19.671875 0 
L 9.8125 0 
z
" id="DejaVuSans-70"/>
       <path d="M 41.109375 46.296875 
Q 39.59375 47.171875 37.8125 47.578125 
Q 36.03125 48 33.890625 48 
Q 26.265625 48 22.1875 43.046875 
Q 18.109375 38.09375 18.109375 28.8125 
L 18.109375 0 
L 9.078125 0 
L 9.078125 54.6875 
L 18.109375 54.6875 
L 18.109375 46.1875 
Q 20.953125 51.171875 25.484375 53.578125 
Q 30.03125 56 36.53125 56 
Q 37.453125 56 38.578125 55.875 
Q 39.703125 55.765625 41.0625 55.515625 
z
" id="DejaVuSans-114"/>
       <path d="M 56.203125 29.59375 
L 56.203125 25.203125 
L 14.890625 25.203125 
Q 15.484375 15.921875 20.484375 11.0625 
Q 25.484375 6.203125 34.421875 6.203125 
Q 39.59375 6.203125 44.453125 7.46875 
Q 49.3125 8.734375 54.109375 11.28125 
L 54.109375 2.78125 
Q 49.265625 0.734375 44.1875 -0.34375 
Q 39.109375 -1.421875 33.890625 -1.421875 
Q 20.796875 -1.421875 13.15625 6.1875 
Q 5.515625 13.8125 5.515625 26.8125 
Q 5.515625 40.234375 12.765625 48.109375 
Q 20.015625 56 32.328125 56 
Q 43.359375 56 49.78125 48.890625 
Q 56.203125 41.796875 56.203125 29.59375 
z
M 47.21875 32.234375 
Q 47.125 39.59375 43.09375 43.984375 
Q 39.0625 48.390625 32.421875 48.390625 
Q 24.90625 48.390625 20.390625 44.140625 
Q 15.875 39.890625 15.1875 32.171875 
z
" id="DejaVuSans-101"/>
       <path d="M 14.796875 27.296875 
Q 14.796875 17.390625 18.875 11.75 
Q 22.953125 6.109375 30.078125 6.109375 
Q 37.203125 6.109375 41.296875 11.75 
Q 45.40625 17.390625 45.40625 27.296875 
Q 45.40625 37.203125 41.296875 42.84375 
Q 37.203125 48.484375 30.078125 48.484375 
Q 22.953125 48.484375 18.875 42.84375 
Q 14.796875 37.203125 14.796875 27.296875 
z
M 45.40625 8.203125 
Q 42.578125 3.328125 38.25 0.953125 
Q 33.9375 -1.421875 27.875 -1.421875 
Q 17.96875 -1.421875 11.734375 6.484375 
Q 5.515625 14.40625 5.515625 27.296875 
Q 5.515625 40.1875 11.734375 48.09375 
Q 17.96875 56 27.875 56 
Q 33.9375 56 38.25 53.625 
Q 42.578125 51.265625 45.40625 46.390625 
L 45.40625 54.6875 
L 54.390625 54.6875 
L 54.390625 -20.796875 
L 45.40625 -20.796875 
z
" id="DejaVuSans-113"/>
       <path d="M 8.5 21.578125 
L 8.5 54.6875 
L 17.484375 54.6875 
L 17.484375 21.921875 
Q 17.484375 14.15625 20.5 10.265625 
Q 23.53125 6.390625 29.59375 6.390625 
Q 36.859375 6.390625 41.078125 11.03125 
Q 45.3125 15.671875 45.3125 23.6875 
L 45.3125 54.6875 
L 54.296875 54.6875 
L 54.296875 0 
L 45.3125 0 
L 45.3125 8.40625 
Q 42.046875 3.421875 37.71875 1 
Q 33.40625 -1.421875 27.6875 -1.421875 
Q 18.265625 -1.421875 13.375 4.4375 
Q 8.5 10.296875 8.5 21.578125 
z
M 31.109375 56 
z
" id="DejaVuSans-117"/>
       <path d="M 54.890625 33.015625 
L 54.890625 0 
L 45.90625 0 
L 45.90625 32.71875 
Q 45.90625 40.484375 42.875 44.328125 
Q 39.84375 48.1875 33.796875 48.1875 
Q 26.515625 48.1875 22.3125 43.546875 
Q 18.109375 38.921875 18.109375 30.90625 
L 18.109375 0 
L 9.078125 0 
L 9.078125 54.6875 
L 18.109375 54.6875 
L 18.109375 46.1875 
Q 21.34375 51.125 25.703125 53.5625 
Q 30.078125 56 35.796875 56 
Q 45.21875 56 50.046875 50.171875 
Q 54.890625 44.34375 54.890625 33.015625 
z
" id="DejaVuSans-110"/>
       <path d="M 48.78125 52.59375 
L 48.78125 44.1875 
Q 44.96875 46.296875 41.140625 47.34375 
Q 37.3125 48.390625 33.40625 48.390625 
Q 24.65625 48.390625 19.8125 42.84375 
Q 14.984375 37.3125 14.984375 27.296875 
Q 14.984375 17.28125 19.8125 11.734375 
Q 24.65625 6.203125 33.40625 6.203125 
Q 37.3125 6.203125 41.140625 7.25 
Q 44.96875 8.296875 48.78125 10.40625 
L 48.78125 2.09375 
Q 45.015625 0.34375 40.984375 -0.53125 
Q 36.96875 -1.421875 32.421875 -1.421875 
Q 20.0625 -1.421875 12.78125 6.34375 
Q 5.515625 14.109375 5.515625 27.296875 
Q 5.515625 40.671875 12.859375 48.328125 
Q 20.21875 56 33.015625 56 
Q 37.15625 56 41.109375 55.140625 
Q 45.0625 54.296875 48.78125 52.59375 
z
" id="DejaVuSans-99"/>
       <path d="M 32.171875 -5.078125 
Q 28.375 -14.84375 24.75 -17.8125 
Q 21.140625 -20.796875 15.09375 -20.796875 
L 7.90625 -20.796875 
L 7.90625 -13.28125 
L 13.1875 -13.28125 
Q 16.890625 -13.28125 18.9375 -11.515625 
Q 21 -9.765625 23.484375 -3.21875 
L 25.09375 0.875 
L 2.984375 54.6875 
L 12.5 54.6875 
L 29.59375 11.921875 
L 46.6875 54.6875 
L 56.203125 54.6875 
z
" id="DejaVuSans-121"/>
       <path id="DejaVuSans-32"/>
       <path d="M 31 75.875 
Q 24.46875 64.65625 21.28125 53.65625 
Q 18.109375 42.671875 18.109375 31.390625 
Q 18.109375 20.125 21.3125 9.0625 
Q 24.515625 -2 31 -13.1875 
L 23.1875 -13.1875 
Q 15.875 -1.703125 12.234375 9.375 
Q 8.59375 20.453125 8.59375 31.390625 
Q 8.59375 42.28125 12.203125 53.3125 
Q 15.828125 64.359375 23.1875 75.875 
z
" id="DejaVuSans-40"/>
       <path d="M 9.8125 72.90625 
L 19.671875 72.90625 
L 19.671875 43.015625 
L 55.515625 43.015625 
L 55.515625 72.90625 
L 65.375 72.90625 
L 65.375 0 
L 55.515625 0 
L 55.515625 34.71875 
L 19.671875 34.71875 
L 19.671875 0 
L 9.8125 0 
z
" id="DejaVuSans-72"/>
       <path d="M 5.515625 54.6875 
L 48.1875 54.6875 
L 48.1875 46.484375 
L 14.40625 7.171875 
L 48.1875 7.171875 
L 48.1875 0 
L 4.296875 0 
L 4.296875 8.203125 
L 38.09375 47.515625 
L 5.515625 47.515625 
z
" id="DejaVuSans-122"/>
       <path d="M 8.015625 75.875 
L 15.828125 75.875 
Q 23.140625 64.359375 26.78125 53.3125 
Q 30.421875 42.28125 30.421875 31.390625 
Q 30.421875 20.453125 26.78125 9.375 
Q 23.140625 -1.703125 15.828125 -13.1875 
L 8.015625 -13.1875 
Q 14.5 -2 17.703125 9.0625 
Q 20.90625 20.125 20.90625 31.390625 
Q 20.90625 42.671875 17.703125 53.65625 
Q 14.5 64.65625 8.015625 75.875 
z
" id="DejaVuSans-41"/>
      </defs>
      <use xlink:href="#DejaVuSans-70"/>
      <use x="50.269531" xlink:href="#DejaVuSans-114"/>
      <use x="89.132812" xlink:href="#DejaVuSans-101"/>
      <use x="150.65625" xlink:href="#DejaVuSans-113"/>
      <use x="214.132812" xlink:href="#DejaVuSans-117"/>
      <use x="277.511719" xlink:href="#DejaVuSans-101"/>
      <use x="339.035156" xlink:href="#DejaVuSans-110"/>
      <use x="402.414062" xlink:href="#DejaVuSans-99"/>
      <use x="457.394531" xlink:href="#DejaVuSans-121"/>
      <use x="516.574219" xlink:href="#DejaVuSans-32"/>
      <use x="548.361328" xlink:href="#DejaVuSans-40"/>
      <use x="587.375" xlink:href="#DejaVuSans-72"/>
      <use x="662.570312" xlink:href="#DejaVuSans-122"/>
      <use x="715.060547" xlink:href="#DejaVuSans-41"/>
     </g>
    </g>
   </g>
   <g id="matplotlib.axis_2">
    <g id="ytick_1">
     <g id="line2d_37">
      <defs>
       <path d="M 0 0 
L -3.5 0 
" id="m7159167c58" style="stroke:#000000;stroke-width:0.8;"/>
      </defs>
      <g>
       <use style="stroke:#000000;stroke-width:0.8;" x="57.6" xlink:href="#m7159167c58" y="273.721027"/>
      </g>
     </g>
     <g id="text_6">
      <!-- $\mathdefault{10^{-4}}$ -->
      <g transform="translate(27.1 277.520246)scale(0.1 -0.1)">
       <defs>
        <path d="M 37.796875 64.3125 
L 12.890625 25.390625 
L 37.796875 25.390625 
z
M 35.203125 72.90625 
L 47.609375 72.90625 
L 47.609375 25.390625 
L 58.015625 25.390625 
L 58.015625 17.1875 
L 47.609375 17.1875 
L 47.609375 0 
L 37.796875 0 
L 37.796875 17.1875 
L 4.890625 17.1875 
L 4.890625 26.703125 
z
" id="DejaVuSans-52"/>
       </defs>
       <use transform="translate(0 0.684375)" xlink:href="#DejaVuSans-49"/>
       <use transform="translate(63.623047 0.684375)" xlink:href="#DejaVuSans-48"/>
       <use transform="translate(128.203125 38.965625)scale(0.7)" xlink:href="#DejaVuSans-8722"/>
       <use transform="translate(186.855469 38.965625)scale(0.7)" xlink:href="#DejaVuSans-52"/>
      </g>
     </g>
    </g>
    <g id="ytick_2">
     <g id="line2d_38">
      <g>
       <use style="stroke:#000000;stroke-width:0.8;" x="57.6" xlink:href="#m7159167c58" y="205.373277"/>
      </g>
     </g>
     <g id="text_7">
      <!-- $\mathdefault{10^{-3}}$ -->
      <g transform="translate(27.1 209.172496)scale(0.1 -0.1)">
       <defs>
        <path d="M 40.578125 39.3125 
Q 47.65625 37.796875 51.625 33 
Q 55.609375 28.21875 55.609375 21.1875 
Q 55.609375 10.40625 48.1875 4.484375 
Q 40.765625 -1.421875 27.09375 -1.421875 
Q 22.515625 -1.421875 17.65625 -0.515625 
Q 12.796875 0.390625 7.625 2.203125 
L 7.625 11.71875 
Q 11.71875 9.328125 16.59375 8.109375 
Q 21.484375 6.890625 26.8125 6.890625 
Q 36.078125 6.890625 40.9375 10.546875 
Q 45.796875 14.203125 45.796875 21.1875 
Q 45.796875 27.640625 41.28125 31.265625 
Q 36.765625 34.90625 28.71875 34.90625 
L 20.21875 34.90625 
L 20.21875 43.015625 
L 29.109375 43.015625 
Q 36.375 43.015625 40.234375 45.921875 
Q 44.09375 48.828125 44.09375 54.296875 
Q 44.09375 59.90625 40.109375 62.90625 
Q 36.140625 65.921875 28.71875 65.921875 
Q 24.65625 65.921875 20.015625 65.03125 
Q 15.375 64.15625 9.8125 62.3125 
L 9.8125 71.09375 
Q 15.4375 72.65625 20.34375 73.4375 
Q 25.25 74.21875 29.59375 74.21875 
Q 40.828125 74.21875 47.359375 69.109375 
Q 53.90625 64.015625 53.90625 55.328125 
Q 53.90625 49.265625 50.4375 45.09375 
Q 46.96875 40.921875 40.578125 39.3125 
z
" id="DejaVuSans-51"/>
       </defs>
       <use transform="translate(0 0.765625)" xlink:href="#DejaVuSans-49"/>
       <use transform="translate(63.623047 0.765625)" xlink:href="#DejaVuSans-48"/>
       <use transform="translate(128.203125 39.046875)scale(0.7)" xlink:href="#DejaVuSans-8722"/>
       <use transform="translate(186.855469 39.046875)scale(0.7)" xlink:href="#DejaVuSans-51"/>
      </g>
     </g>
    </g>
    <g id="ytick_3">
     <g id="line2d_39">
      <g>
       <use style="stroke:#000000;stroke-width:0.8;" x="57.6" xlink:href="#m7159167c58" y="137.025526"/>
      </g>
     </g>
     <g id="text_8">
      <!-- $\mathdefault{10^{-2}}$ -->
      <g transform="translate(27.1 140.824745)scale(0.1 -0.1)">
       <use transform="translate(0 0.765625)" xlink:href="#DejaVuSans-49"/>
       <use transform="translate(63.623047 0.765625)" xlink:href="#DejaVuSans-48"/>
       <use transform="translate(128.203125 39.046875)scale(0.7)" xlink:href="#DejaVuSans-8722"/>
       <use transform="translate(186.855469 39.046875)scale(0.7)" xlink:href="#DejaVuSans-50"/>
      </g>
     </g>
    </g>
    <g id="ytick_4">
     <g id="line2d_40">
      <g>
       <use style="stroke:#000000;stroke-width:0.8;" x="57.6" xlink:href="#m7159167c58" y="68.677776"/>
      </g>
     </g>
     <g id="text_9">
      <!-- $\mathdefault{10^{-1}}$ -->
      <g transform="translate(27.1 72.476994)scale(0.1 -0.1)">
       <use transform="translate(0 0.684375)" xlink:href="#DejaVuSans-49"/>
       <use transform="translate(63.623047 0.684375)" xlink:href="#DejaVuSans-48"/>
       <use transform="translate(128.203125 38.965625)scale(0.7)" xlink:href="#DejaVuSans-8722"/>
       <use transform="translate(186.855469 38.965625)scale(0.7)" xlink:href="#DejaVuSans-49"/>
      </g>
     </g>
    </g>
    <g id="ytick_5">
     <g id="line2d_41">
      <defs>
       <path d="M 0 0 
L -2 0 
" id="m854da84d89" style="stroke:#000000;stroke-width:0.6;"/>
      </defs>
      <g>
       <use style="stroke:#000000;stroke-width:0.6;" x="57.6" xlink:href="#m854da84d89" y="300.919332"/>
      </g>
     </g>
    </g>
    <g id="ytick_6">
     <g id="line2d_42">
      <g>
       <use style="stroke:#000000;stroke-width:0.6;" x="57.6" xlink:href="#m854da84d89" y="294.295751"/>
      </g>
     </g>
    </g>
    <g id="ytick_7">
     <g id="line2d_43">
      <g>
       <use style="stroke:#000000;stroke-width:0.6;" x="57.6" xlink:href="#m854da84d89" y="288.88389"/>
      </g>
     </g>
    </g>
    <g id="ytick_8">
     <g id="line2d_44">
      <g>
       <use style="stroke:#000000;stroke-width:0.6;" x="57.6" xlink:href="#m854da84d89" y="284.308228"/>
      </g>
     </g>
    </g>
    <g id="ytick_9">
     <g id="line2d_45">
      <g>
       <use style="stroke:#000000;stroke-width:0.6;" x="57.6" xlink:href="#m854da84d89" y="280.344609"/>
      </g>
     </g>
    </g>
    <g id="ytick_10">
     <g id="line2d_46">
      <g>
       <use style="stroke:#000000;stroke-width:0.6;" x="57.6" xlink:href="#m854da84d89" y="276.848449"/>
      </g>
     </g>
    </g>
    <g id="ytick_11">
     <g id="line2d_47">
      <g>
       <use style="stroke:#000000;stroke-width:0.6;" x="57.6" xlink:href="#m854da84d89" y="253.146304"/>
      </g>
     </g>
    </g>
    <g id="ytick_12">
     <g id="line2d_48">
      <g>
       <use style="stroke:#000000;stroke-width:0.6;" x="57.6" xlink:href="#m854da84d89" y="241.110863"/>
      </g>
     </g>
    </g>
    <g id="ytick_13">
     <g id="line2d_49">
      <g>
       <use style="stroke:#000000;stroke-width:0.6;" x="57.6" xlink:href="#m854da84d89" y="232.571581"/>
      </g>
     </g>
    </g>
    <g id="ytick_14">
     <g id="line2d_50">
      <g>
       <use style="stroke:#000000;stroke-width:0.6;" x="57.6" xlink:href="#m854da84d89" y="225.948"/>
      </g>
     </g>
    </g>
    <g id="ytick_15">
     <g id="line2d_51">
      <g>
       <use style="stroke:#000000;stroke-width:0.6;" x="57.6" xlink:href="#m854da84d89" y="220.53614"/>
      </g>
     </g>
    </g>
    <g id="ytick_16">
     <g id="line2d_52">
      <g>
       <use style="stroke:#000000;stroke-width:0.6;" x="57.6" xlink:href="#m854da84d89" y="215.960477"/>
      </g>
     </g>
    </g>
    <g id="ytick_17">
     <g id="line2d_53">
      <g>
       <use style="stroke:#000000;stroke-width:0.6;" x="57.6" xlink:href="#m854da84d89" y="211.996858"/>
      </g>
     </g>
    </g>
    <g id="ytick_18">
     <g id="line2d_54">
      <g>
       <use style="stroke:#000000;stroke-width:0.6;" x="57.6" xlink:href="#m854da84d89" y="208.500698"/>
      </g>
     </g>
    </g>
    <g id="ytick_19">
     <g id="line2d_55">
      <g>
       <use style="stroke:#000000;stroke-width:0.6;" x="57.6" xlink:href="#m854da84d89" y="184.798554"/>
      </g>
     </g>
    </g>
    <g id="ytick_20">
     <g id="line2d_56">
      <g>
       <use style="stroke:#000000;stroke-width:0.6;" x="57.6" xlink:href="#m854da84d89" y="172.763112"/>
      </g>
     </g>
    </g>
    <g id="ytick_21">
     <g id="line2d_57">
      <g>
       <use style="stroke:#000000;stroke-width:0.6;" x="57.6" xlink:href="#m854da84d89" y="164.223831"/>
      </g>
     </g>
    </g>
    <g id="ytick_22">
     <g id="line2d_58">
      <g>
       <use style="stroke:#000000;stroke-width:0.6;" x="57.6" xlink:href="#m854da84d89" y="157.600249"/>
      </g>
     </g>
    </g>
    <g id="ytick_23">
     <g id="line2d_59">
      <g>
       <use style="stroke:#000000;stroke-width:0.6;" x="57.6" xlink:href="#m854da84d89" y="152.188389"/>
      </g>
     </g>
    </g>
    <g id="ytick_24">
     <g id="line2d_60">
      <g>
       <use style="stroke:#000000;stroke-width:0.6;" x="57.6" xlink:href="#m854da84d89" y="147.612727"/>
      </g>
     </g>
    </g>
    <g id="ytick_25">
     <g id="line2d_61">
      <g>
       <use style="stroke:#000000;stroke-width:0.6;" x="57.6" xlink:href="#m854da84d89" y="143.649108"/>
      </g>
     </g>
    </g>
    <g id="ytick_26">
     <g id="line2d_62">
      <g>
       <use style="stroke:#000000;stroke-width:0.6;" x="57.6" xlink:href="#m854da84d89" y="140.152948"/>
      </g>
     </g>
    </g>
    <g id="ytick_27">
     <g id="line2d_63">
      <g>
       <use style="stroke:#000000;stroke-width:0.6;" x="57.6" xlink:href="#m854da84d89" y="116.450803"/>
      </g>
     </g>
    </g>
    <g id="ytick_28">
     <g id="line2d_64">
      <g>
       <use style="stroke:#000000;stroke-width:0.6;" x="57.6" xlink:href="#m854da84d89" y="104.415362"/>
      </g>
     </g>
    </g>
    <g id="ytick_29">
     <g id="line2d_65">
      <g>
       <use style="stroke:#000000;stroke-width:0.6;" x="57.6" xlink:href="#m854da84d89" y="95.87608"/>
      </g>
     </g>
    </g>
    <g id="ytick_30">
     <g id="line2d_66">
      <g>
       <use style="stroke:#000000;stroke-width:0.6;" x="57.6" xlink:href="#m854da84d89" y="89.252499"/>
      </g>
     </g>
    </g>
    <g id="ytick_31">
     <g id="line2d_67">
      <g>
       <use style="stroke:#000000;stroke-width:0.6;" x="57.6" xlink:href="#m854da84d89" y="83.840639"/>
      </g>
     </g>
    </g>
    <g id="ytick_32">
     <g id="line2d_68">
      <g>
       <use style="stroke:#000000;stroke-width:0.6;" x="57.6" xlink:href="#m854da84d89" y="79.264976"/>
      </g>
     </g>
    </g>
    <g id="ytick_33">
     <g id="line2d_69">
      <g>
       <use style="stroke:#000000;stroke-width:0.6;" x="57.6" xlink:href="#m854da84d89" y="75.301357"/>
      </g>
     </g>
    </g>
    <g id="ytick_34">
     <g id="line2d_70">
      <g>
       <use style="stroke:#000000;stroke-width:0.6;" x="57.6" xlink:href="#m854da84d89" y="71.805197"/>
      </g>
     </g>
    </g>
    <g id="ytick_35">
     <g id="line2d_71">
      <g>
       <use style="stroke:#000000;stroke-width:0.6;" x="57.6" xlink:href="#m854da84d89" y="48.103052"/>
      </g>
     </g>
    </g>
   </g>
   <g id="line2d_72">
    <path clip-path="url(#p5e1262a36f)" d="M -1 180.035757 
L 73.832727 180.02693 
L 100.456541 158.557862 
L 116.030474 144.9208 
L 127.080355 141.114359 
L 135.651308 129.046629 
L 148.575222 120.539451 
L 153.704169 116.77387 
L 158.22822 107.261072 
L 162.275122 105.869702 
L 165.93599 103.652243 
L 169.278101 102.498797 
L 172.352545 107.010608 
L 175.199036 102.063166 
L 177.849055 103.72059 
L 180.327982 105.600496 
L 182.656577 101.465988 
L 184.852034 98.369038 
L 186.928758 108.931849 
L 188.898936 102.555346 
L 190.772968 94.48656 
L 192.559804 137.497518 
L 194.267198 106.101707 
L 195.901915 53.568 
L 197.46989 90.225983 
L 198.976359 91.176524 
L 200.425967 100.495911 
L 201.822849 106.815895 
L 203.170709 99.429065 
L 204.472869 102.477352 
L 205.732327 109.103586 
L 206.951796 103.560167 
L 208.133737 107.311515 
L 209.280391 104.307896 
L 210.393803 99.551325 
L 211.475848 106.952656 
L 212.528244 108.003707 
L 213.552572 100.467321 
L 214.550292 102.840187 
L 215.52275 105.596489 
L 216.471194 103.303647 
L 217.396782 110.116298 
L 218.30059 110.721326 
L 219.183618 110.182833 
L 220.046801 121.920052 
L 220.891012 121.633585 
L 221.717066 112.067838 
L 222.525729 97.761589 
L 223.317717 107.821215 
L 224.093703 101.120135 
L 224.854323 119.519383 
L 225.600173 113.131663 
L 227.04978 113.889866 
L 227.754572 110.09051 
L 228.446663 116.340125 
L 229.126505 130.085533 
L 229.794522 102.763749 
L 230.45112 119.875257 
L 231.096682 115.578467 
L 231.731574 107.626615 
L 232.970715 130.038224 
L 233.57561 123.975015 
L 234.171126 141.311991 
L 234.757551 124.592925 
L 235.335156 161.000738 
L 235.904204 134.76222 
L 236.464945 93.635881 
L 237.017617 111.706465 
L 237.562449 62.568832 
L 238.099661 94.390334 
L 238.629464 117.296927 
L 239.152057 89.689973 
L 239.667636 136.708375 
L 240.176386 151.490469 
L 240.678485 139.700782 
L 241.174105 131.03132 
L 241.663412 117.708757 
L 242.146564 119.938073 
L 242.623713 116.500922 
L 243.56059 116.166861 
L 244.020596 135.465307 
L 244.475158 120.381809 
L 244.924403 174.051549 
L 245.368455 160.871938 
L 245.807432 114.892804 
L 246.241448 119.907321 
L 246.670615 121.974181 
L 247.09504 125.374082 
L 247.514826 90.138739 
L 248.34088 106.832692 
L 248.747339 57.534857 
L 249.149543 110.876119 
L 249.547578 90.89542 
L 249.94153 96.576082 
L 250.331483 121.313165 
L 250.717517 104.708197 
L 251.09971 114.294581 
L 251.478137 114.976876 
L 251.852872 122.661051 
L 252.223987 143.680054 
L 252.59155 115.148541 
L 252.955629 117.395212 
L 253.316289 181.876681 
L 253.673594 158.913841 
L 254.027606 103.349218 
L 254.378385 108.713609 
L 254.72599 106.075351 
L 255.070477 136.834792 
L 255.411902 134.009049 
L 255.750319 120.606544 
L 256.08578 128.202241 
L 256.418336 100.318876 
L 256.748038 107.673022 
L 257.074934 88.215931 
L 257.399071 83.086333 
L 257.720496 108.112492 
L 258.039254 84.997542 
L 258.355387 117.100928 
L 258.668941 123.174812 
L 258.979955 179.60769 
L 259.288471 149.625176 
L 259.594529 151.635593 
L 259.898167 129.699734 
L 260.498336 122.73283 
L 260.79494 125.395392 
L 261.381364 111.635854 
L 261.671253 155.893702 
L 261.95897 138.970698 
L 262.244548 109.781355 
L 262.528018 146.280395 
L 262.809412 113.059361 
L 263.088759 118.021576 
L 263.366089 126.709492 
L 263.641431 80.707848 
L 263.914813 132.132822 
L 264.186263 79.197161 
L 264.455808 88.975858 
L 264.723475 141.691012 
L 264.98929 74.023768 
L 265.253277 130.722028 
L 265.515463 117.456533 
L 265.775871 140.882409 
L 266.29145 100.984305 
L 266.546667 125.190361 
L 266.8002 134.274458 
L 267.05207 107.911224 
L 267.302299 113.92043 
L 267.550908 166.246218 
L 267.797919 111.683318 
L 268.043352 159.329103 
L 268.287226 137.14839 
L 268.529561 101.720154 
L 268.770377 111.288154 
L 269.009693 97.613557 
L 269.247527 118.190307 
L 269.483897 96.834835 
L 269.718822 91.795419 
L 269.952318 120.765238 
L 270.184404 81.604677 
L 270.415095 124.12156 
L 270.872363 86.80293 
L 271.098972 117.790707 
L 271.324251 101.477553 
L 271.548217 121.685342 
L 271.770885 117.201412 
L 271.992269 118.222534 
L 272.212384 169.875497 
L 272.431246 124.809556 
L 272.648867 117.442883 
L 273.080445 151.116552 
L 273.294429 109.836873 
L 273.507227 117.275764 
L 273.718854 120.662539 
L 273.92932 164.215476 
L 274.346825 103.099073 
L 274.553887 165.282699 
L 274.75984 103.481909 
L 274.964694 107.572155 
L 275.168461 107.220835 
L 275.371153 106.075862 
L 275.572781 114.379533 
L 275.773356 98.047599 
L 275.97289 102.473393 
L 276.171391 139.136756 
L 276.368873 118.94496 
L 276.565344 140.325008 
L 276.955297 109.859392 
L 277.341331 156.258941 
L 277.532903 109.087819 
L 277.723524 125.894697 
L 277.913203 123.373874 
L 278.101951 141.639295 
L 278.476686 115.289746 
L 278.662691 171.266132 
L 278.8478 112.756113 
L 279.032021 94.897173 
L 279.215363 135.2562 
L 279.397834 92.115057 
L 279.579442 131.25311 
L 279.760196 111.211672 
L 279.940103 110.851255 
L 280.119171 115.626532 
L 280.297408 81.191303 
L 280.474822 123.543513 
L 280.65142 130.876456 
L 280.82721 125.871097 
L 281.176395 95.101087 
L 281.349804 129.635292 
L 281.522433 232.649534 
L 281.694291 116.295183 
L 281.865383 108.597883 
L 282.035716 168.030001 
L 282.205297 115.13407 
L 282.374132 169.250394 
L 282.542229 116.844149 
L 282.709593 101.092046 
L 282.876232 112.79532 
L 283.04215 90.388325 
L 283.207355 106.400579 
L 283.371852 111.156566 
L 283.535648 97.786546 
L 283.698748 165.329197 
L 283.861158 113.299858 
L 284.022885 190.49771 
L 284.183934 107.309283 
L 284.34431 86.649426 
L 284.504019 116.595817 
L 284.663067 105.559131 
L 284.979201 123.675585 
L 285.136298 101.005391 
L 285.292754 135.994661 
L 285.448576 144.253248 
L 285.758336 114.958271 
L 285.912285 184.621856 
L 286.065618 106.027065 
L 286.218342 118.12554 
L 286.370462 157.882798 
L 286.521981 129.541194 
L 286.672904 129.082089 
L 286.823237 86.463618 
L 286.972984 125.778748 
L 287.12215 110.15076 
L 287.270738 111.725763 
L 287.418754 126.361919 
L 287.566202 171.18256 
L 288.005178 94.029962 
L 288.150396 136.892742 
L 288.295067 111.023192 
L 288.439195 115.203104 
L 288.582784 110.553801 
L 288.725838 99.196249 
L 288.868362 172.735406 
L 289.151832 110.993495 
L 289.292786 130.123219 
L 289.433225 118.203994 
L 289.573153 120.714802 
L 289.712572 117.111048 
L 289.851488 130.28104 
L 289.989902 166.472294 
L 290.265244 81.698201 
L 290.402179 131.441548 
L 290.538627 118.318693 
L 290.945086 135.910083 
L 291.079622 122.633482 
L 291.213689 93.603245 
L 291.347289 116.496881 
L 291.480426 187.302695 
L 291.745324 104.553776 
L 291.877091 96.682259 
L 292.139277 135.334811 
L 292.269701 129.93649 
L 292.399685 112.458554 
L 292.52923 146.103303 
L 292.658339 114.939911 
L 292.787016 133.807581 
L 292.915264 111.702324 
L 293.043084 111.132563 
L 293.170481 123.216393 
L 293.424013 91.790639 
L 293.801202 162.617574 
L 293.926113 154.322526 
L 294.298426 101.584218 
L 294.544645 134.848151 
L 294.667165 122.853415 
L 294.789296 127.41101 
L 294.91104 99.976477 
L 295.273972 156.006949 
L 295.394191 115.324071 
L 295.514035 136.182349 
L 295.633507 106.777036 
L 295.871341 141.479761 
L 295.989708 121.756878 
L 296.107711 130.69251 
L 296.225353 93.850225 
L 296.459561 118.13085 
L 296.576132 163.906369 
L 296.69235 161.02854 
L 296.808217 142.821818 
L 296.923736 152.254651 
L 297.153737 102.816201 
L 297.268223 148.277982 
L 297.496177 117.357849 
L 297.609648 121.25616 
L 297.722785 102.219669 
L 297.83559 134.247524 
L 297.948065 123.055732 
L 298.060211 139.043906 
L 298.172031 135.305884 
L 298.283526 112.994612 
L 298.394698 115.324242 
L 298.50555 132.959307 
L 298.726298 125.481449 
L 298.836198 132.535276 
L 298.945785 86.303673 
L 299.164024 148.319762 
L 299.272681 144.220071 
L 299.381031 153.959957 
L 299.489076 135.621097 
L 299.596818 152.850362 
L 299.704259 104.327906 
L 299.918243 150.881644 
L 300.024789 150.013245 
L 300.131041 107.838399 
L 300.448045 121.396638 
L 300.553134 138.24405 
L 300.657936 130.981931 
L 300.762453 148.090331 
L 300.866687 116.891937 
L 301.074309 121.904693 
L 301.177701 112.170217 
L 301.280816 135.621854 
L 301.383654 133.015884 
L 301.486217 93.861883 
L 301.792275 157.319311 
L 301.893755 153.521857 
L 302.095913 128.442677 
L 302.196595 114.414829 
L 302.297014 127.422533 
L 302.39717 185.096501 
L 302.596703 121.843529 
L 302.696082 111.34442 
L 302.795205 125.326681 
L 302.894073 123.501388 
L 302.992687 137.575374 
L 303.287018 114.942857 
L 303.481993 157.134601 
L 303.579111 109.981236 
L 303.675984 148.005516 
L 303.868999 102.544728 
L 303.965145 121.876482 
L 304.06105 110.512468 
L 304.156716 155.624414 
L 304.252145 153.130748 
L 304.537017 116.050122 
L 304.631507 171.069098 
L 304.725765 159.470809 
L 304.913589 130.576508 
L 305.007158 117.120144 
L 305.1005 134.13255 
L 305.193615 118.70989 
L 305.286505 161.569383 
L 305.471614 112.525637 
L 305.655835 160.198077 
L 305.839177 108.773948 
L 305.930521 142.317053 
L 306.021648 106.616589 
L 306.112559 117.995153 
L 306.203256 149.959297 
L 306.293739 114.733239 
L 306.563916 160.251753 
L 306.653555 115.316676 
L 306.832207 149.763859 
L 306.921222 184.865816 
L 307.010031 123.770894 
L 307.098636 150.923785 
L 307.275234 128.583688 
L 307.363229 127.517048 
L 307.451024 136.152114 
L 307.538618 194.790109 
L 307.626013 114.960189 
L 307.713209 128.247996 
L 307.800208 137.891466 
L 307.887011 118.141774 
L 307.973618 120.18432 
L 308.060029 176.638604 
L 308.146247 114.889424 
L 308.232272 122.459233 
L 308.318105 122.347517 
L 308.403746 119.578485 
L 308.489196 131.93941 
L 308.574457 164.311202 
L 308.659529 154.792854 
L 308.744414 120.384656 
L 308.82911 126.949722 
L 308.997946 164.835324 
L 309.082086 125.554339 
L 309.166043 133.35928 
L 309.249816 149.767837 
L 309.333407 123.264264 
L 309.416817 131.947295 
L 309.500045 130.104079 
L 309.583094 133.821491 
L 309.665964 122.310921 
L 309.748655 134.42099 
L 309.831168 172.32579 
L 309.913505 114.150956 
L 309.995666 128.80402 
L 310.077651 183.766268 
L 310.159461 119.615492 
L 310.241098 128.542702 
L 310.322562 109.235584 
L 310.484972 147.025005 
L 310.565921 152.753044 
L 310.727308 124.316785 
L 310.807748 154.520638 
L 310.888019 143.32848 
L 310.968124 147.581951 
L 311.048061 134.881945 
L 311.207439 158.008954 
L 311.286881 121.548661 
L 311.366159 136.98201 
L 311.524225 124.385976 
L 311.760112 188.388341 
L 311.838419 109.618372 
L 311.916568 163.948657 
L 311.994558 141.071366 
L 312.07239 140.161075 
L 312.150065 187.918004 
L 312.227582 113.978355 
L 312.304944 129.606683 
L 312.38215 134.890953 
L 312.459201 163.893993 
L 312.536098 133.515514 
L 312.612842 134.844327 
L 312.76587 154.147318 
L 312.918291 149.24338 
L 312.994275 153.18428 
L 313.07011 165.028001 
L 313.145794 123.458772 
L 313.22133 140.529613 
L 313.296718 142.357486 
L 313.371958 123.609616 
L 313.447051 152.234448 
L 313.521998 141.837383 
L 313.596798 136.633093 
L 313.671453 120.832923 
L 313.82033 162.876 
L 314.042568 119.235285 
L 314.263527 155.655268 
L 314.410131 132.882721 
L 314.556177 165.334338 
L 314.628992 138.127992 
L 314.77421 187.190097 
L 314.91888 132.720765 
L 314.991012 144.053836 
L 315.063008 138.680305 
L 315.13487 135.53908 
L 315.206598 136.121365 
L 315.278191 170.022088 
L 315.42098 128.95081 
L 315.492175 212.098434 
L 315.563239 153.328639 
L 315.634172 155.240825 
L 315.704974 130.091775 
L 315.775646 143.469842 
L 315.846188 153.273631 
L 315.9166 148.960479 
L 315.986884 136.891444 
L 316.057039 143.526154 
L 316.127067 156.386615 
L 316.196967 144.677547 
L 316.26674 185.486542 
L 316.336386 150.390033 
L 316.475301 207.889683 
L 316.613716 132.629113 
L 316.820408 162.920535 
L 316.889058 139.933638 
L 316.957586 161.068001 
L 317.025993 131.990752 
L 317.230483 192.473724 
L 317.298405 188.109182 
L 317.366208 138.452501 
L 317.433891 142.134751 
L 317.501455 144.3865 
L 317.5689 160.877576 
L 317.636227 151.657325 
L 317.703436 144.765906 
L 317.770528 155.878861 
L 317.837503 145.497291 
L 317.904361 201.894936 
L 317.971103 141.660562 
L 318.037729 198.62344 
L 318.170636 133.561611 
L 318.236917 151.104991 
L 318.303085 147.077213 
L 318.369138 146.869262 
L 318.435078 178.275856 
L 318.500905 139.358573 
L 318.566619 150.956617 
L 318.632221 148.046797 
L 318.697712 150.293671 
L 318.763091 165.170826 
L 318.828358 161.429907 
L 318.893515 226.587999 
L 318.958562 134.382761 
L 319.023499 142.442243 
L 319.088326 147.004192 
L 319.153044 166.474874 
L 319.217653 153.313088 
L 319.346545 140.288219 
L 319.539077 164.398566 
L 319.603041 166.294391 
L 319.666898 206.296538 
L 319.730649 139.827721 
L 319.794295 149.807845 
L 319.857835 140.693691 
L 319.92127 162.847932 
L 319.984601 144.493128 
L 320.047827 164.845789 
L 320.11095 155.537716 
L 320.173969 143.097825 
L 320.362408 190.226933 
L 320.425016 151.185193 
L 320.487522 160.308176 
L 320.549926 170.67391 
L 320.674432 144.193699 
L 320.736534 179.013777 
L 320.860438 143.740742 
L 320.92224 176.478937 
L 320.983943 174.830334 
L 321.045547 162.338731 
L 321.168459 196.158171 
L 321.229768 133.757426 
L 321.290979 183.254501 
L 321.47403 140.200788 
L 321.534853 171.129174 
L 321.595581 152.018773 
L 321.716748 180.76853 
L 321.837534 159.184835 
L 321.897786 181.687345 
L 322.018005 159.983259 
L 322.077974 163.568781 
L 322.137849 154.474132 
L 322.257321 163.730337 
L 322.316917 143.394895 
L 322.495154 191.438127 
L 322.554383 157.780531 
L 322.613521 159.353916 
L 322.672568 156.163107 
L 322.849167 183.461524 
L 322.907853 144.447737 
L 322.966449 178.311529 
L 323.024957 178.444864 
L 323.083375 172.277379 
L 323.141704 194.928633 
L 323.199946 153.50082 
L 323.258099 184.803067 
L 323.316164 164.147175 
L 323.374141 168.068418 
L 323.432031 163.551111 
L 323.489834 194.225911 
L 323.54755 172.15749 
L 323.662723 146.780551 
L 323.777551 192.792134 
L 323.834837 180.287623 
L 323.892037 169.847121 
L 323.949153 188.417384 
L 324.063129 161.58134 
L 324.119991 163.278673 
L 324.176768 197.347822 
L 324.233462 182.753825 
L 324.290072 156.32262 
L 324.346599 163.4254 
L 324.403043 197.416755 
L 324.459404 179.695564 
L 324.515683 169.718795 
L 324.571879 177.065408 
L 324.627993 171.228798 
L 324.739976 221.423081 
L 324.851633 176.401621 
L 324.90734 176.735861 
L 324.962966 160.548114 
L 325.018512 165.687402 
L 325.073978 164.549627 
L 325.129364 250.875675 
L 325.18467 164.629992 
L 325.239896 167.051892 
L 325.350112 153.127496 
L 325.514844 194.073066 
L 325.569598 159.097145 
L 325.624275 177.845408 
L 325.678873 179.288847 
L 325.733394 175.179347 
L 325.842204 209.330382 
L 325.896494 162.070994 
L 325.950708 200.418664 
L 326.112889 169.937899 
L 326.166798 163.786061 
L 326.27439 194.279025 
L 326.328072 147.375875 
L 326.38168 170.941716 
L 326.435213 158.515882 
L 326.488672 192.457702 
L 326.542056 168.016929 
L 326.701766 222.944135 
L 326.860814 164.142953 
L 327.019206 201.668084 
L 327.071859 215.324228 
L 327.124439 168.255402 
L 327.176948 172.996879 
L 327.28175 191.108064 
L 327.334044 180.341865 
L 327.386267 214.588627 
L 327.438419 205.577712 
L 327.542512 160.091099 
L 327.594452 181.400389 
L 327.646323 175.046538 
L 327.749854 190.885021 
L 327.801515 189.939305 
L 327.853107 164.800655 
L 327.904629 177.120053 
L 327.956083 174.119652 
L 328.007467 174.683369 
L 328.058784 202.053582 
L 328.110031 160.517263 
L 328.16121 181.550834 
L 328.212322 206.124652 
L 328.263365 187.783345 
L 328.31434 177.214013 
L 328.365248 179.544458 
L 328.416089 180.674353 
L 328.568208 233.773409 
L 328.669287 175.030381 
L 328.770101 178.137916 
L 328.820409 164.943818 
L 328.870651 262.144032 
L 328.920827 166.276763 
L 328.970938 163.727655 
L 329.020984 165.47653 
L 329.220517 224.408766 
L 329.319896 184.088646 
L 329.36949 194.768485 
L 329.419019 171.060589 
L 329.468485 181.797866 
L 329.517887 192.977428 
L 329.567225 179.639628 
L 329.6165 192.764724 
L 329.763948 180.067185 
L 329.910832 208.811452 
L 329.959668 163.472849 
L 330.057156 166.687689 
L 330.105807 213.246743 
L 330.154396 198.166289 
L 330.202925 196.636463 
L 330.251392 181.978977 
L 330.299797 234.932664 
L 330.348142 206.894822 
L 330.492813 180.269489 
L 330.540916 174.313141 
L 330.588959 178.955258 
L 330.636941 210.018728 
L 330.684864 189.505753 
L 330.732727 179.271491 
L 330.78053 196.924776 
L 330.828274 192.714165 
L 330.875959 186.277881 
L 330.923585 220.773379 
L 330.971151 198.179265 
L 331.066108 183.360821 
L 331.113499 199.113932 
L 331.160831 173.802535 
L 331.208105 193.972296 
L 331.25532 215.972549 
L 331.349578 165.494319 
L 331.396621 194.434425 
L 331.443605 180.912499 
L 331.490533 179.20733 
L 331.677671 234.132694 
L 331.817429 175.337643 
L 331.910319 203.458068 
L 331.95668 186.247444 
L 332.002985 197.13342 
L 332.049234 188.560411 
L 332.095428 189.047235 
L 332.187649 205.874473 
L 332.233676 184.550156 
L 332.279649 228.101944 
L 332.325567 186.836913 
L 332.417237 203.087101 
L 332.554335 277.041232 
L 332.645462 237.69613 
L 332.690944 240.828349 
L 332.736373 259.782456 
L 332.82707 254.84468 
L 333.007823 279.12521 
L 333.18773 284.874608 
L 333.277369 280.730297 
L 333.322109 282.094459 
L 333.366798 281.73699 
L 333.500554 283.484729 
L 333.545035 283.397499 
L 333.589466 283.515602 
L 333.633845 283.600131 
L 333.81085 284.527796 
L 333.854974 284.417535 
L 333.899048 284.556456 
L 333.943071 284.620696 
L 333.987043 284.212595 
L 334.030965 284.678224 
L 334.11866 285.880505 
L 334.249827 285.833937 
L 334.29345 285.531431 
L 334.380547 285.548384 
L 334.640662 287.118647 
L 334.683843 286.783091 
L 334.770061 286.94127 
L 335.070309 288.039382 
L 335.198271 287.913891 
L 335.452924 288.97477 
L 335.495203 288.699658 
L 335.537435 289.05543 
L 335.62176 289.041098 
L 335.831766 289.809624 
L 335.87363 289.806282 
L 335.915448 290.147961 
L 335.998948 290.079278 
L 336.082267 290.22751 
L 336.537319 291.244483 
L 336.660494 291.519936 
L 336.701465 292.786098 
L 336.742392 290.285493 
L 336.824115 291.514813 
L 336.987042 292.126576 
L 337.391362 292.92221 
L 337.431561 292.774439 
L 337.511833 293.277903 
L 337.551906 293.233411 
L 337.631927 293.10219 
L 337.671875 293.208133 
L 337.791471 293.453327 
L 337.910695 294.283551 
L 338.02955 293.367112 
L 338.187454 294.474926 
L 338.266163 294.721802 
L 338.344711 294.541001 
L 338.383925 293.892181 
L 338.462233 294.063839 
L 338.579397 295.078126 
L 338.657308 294.999771 
L 338.735061 294.517908 
L 338.773878 295.075178 
L 338.812657 294.303106 
L 338.851396 294.780309 
L 338.890096 294.599771 
L 338.96738 295.488 
L 339.121483 293.763496 
L 339.159912 294.625916 
L 339.236656 294.12989 
L 339.313246 294.515868 
L 339.504056 293.131381 
L 339.542105 293.206952 
L 339.580116 293.048361 
L 339.845144 289.824574 
L 339.882857 291.893805 
L 339.920532 289.849619 
L 339.95817 289.643922 
L 340.18323 273.631834 
L 340.220612 289.560409 
L 340.257958 261.245117 
L 340.295267 258.741739 
L 340.444143 217.40966 
L 340.481272 204.949386 
L 340.555423 214.090731 
L 340.592445 238.969447 
L 340.629431 213.746732 
L 340.666381 233.426372 
L 340.77702 181.048448 
L 340.813829 194.892811 
L 340.850603 212.79291 
L 340.887341 206.783224 
L 340.924044 187.123441 
L 340.960713 244.875091 
L 341.033945 187.531873 
L 341.070508 184.185757 
L 341.252806 253.889521 
L 341.289162 193.684321 
L 341.36177 224.167895 
L 341.398023 263.757909 
L 341.434242 229.804133 
L 341.578777 189.7365 
L 341.614826 183.224124 
L 341.650841 185.104514 
L 341.686822 225.17872 
L 341.758684 212.334693 
L 341.866225 191.370642 
L 341.902005 216.373886 
L 341.973466 203.570685 
L 342.009146 204.874133 
L 342.044793 252.835935 
L 342.080408 204.314581 
L 342.115989 190.777772 
L 342.151538 213.218348 
L 342.187053 212.45173 
L 342.293403 185.19347 
L 342.434747 257.112324 
L 342.470001 181.615897 
L 342.540414 191.76588 
L 342.610698 200.205252 
L 342.645791 188.180822 
L 342.680853 210.715997 
L 342.75088 222.636809 
L 342.890553 182.162329 
L 343.133766 250.039101 
L 343.306551 175.27597 
L 343.375448 218.54927 
L 343.444221 196.531563 
L 343.478562 206.40544 
L 343.547151 199.546237 
L 343.615618 193.027328 
L 343.649806 235.559481 
L 343.718091 223.49324 
L 343.786254 202.59192 
L 343.820291 249.141689 
L 343.888273 234.557904 
L 344.057704 183.241571 
L 344.159006 210.574997 
L 344.226392 206.135118 
L 344.26004 186.868147 
L 344.29366 204.999264 
L 344.32725 219.472593 
L 344.394341 204.162068 
L 344.427843 216.315796 
L 344.56156 187.18132 
L 344.594917 200.824981 
L 344.661543 196.054239 
L 344.728054 189.247794 
L 344.860731 263.782197 
L 344.992952 189.324763 
L 345.15759 209.647187 
L 345.223248 189.728378 
L 345.288794 191.554244 
L 345.419552 224.189137 
L 345.452172 210.080087 
L 345.484764 268.348536 
L 345.549866 215.747307 
L 345.582376 208.067221 
L 345.614858 246.231809 
L 345.647312 204.891397 
L 345.67974 181.850226 
L 345.712139 216.658656 
L 345.776857 190.552179 
L 345.809175 241.653131 
L 345.87373 195.810545 
L 346.034644 242.702068 
L 346.098821 212.571743 
L 346.130869 203.079053 
L 346.162891 227.500978 
L 346.226855 206.75285 
L 346.386299 186.819584 
L 346.449892 216.87436 
L 346.513379 210.406424 
L 346.576762 184.690137 
L 346.608415 217.985219 
L 346.640041 272.757894 
L 346.703215 195.224143 
L 346.734763 211.612625 
L 346.797782 196.933052 
L 346.829253 193.893794 
L 346.860698 201.32854 
L 346.892117 194.450668 
L 346.923511 196.965707 
L 347.017538 195.025984 
L 347.048829 225.546377 
L 347.080095 226.346855 
L 347.111336 204.164283 
L 347.142551 280.938357 
L 347.204905 197.167646 
L 347.267157 182.678674 
L 347.32931 264.616426 
L 347.391361 188.195921 
L 347.453313 224.368314 
L 347.515165 200.777105 
L 347.546054 220.23276 
L 347.576918 219.796667 
L 347.638571 208.506975 
L 347.669361 223.966802 
L 347.700125 208.726974 
L 347.761582 216.65983 
L 347.792273 211.423466 
L 347.914793 188.5189 
L 348.036924 217.582615 
L 348.097844 195.855197 
L 348.128267 205.72339 
L 348.158667 248.005096 
L 348.189043 204.102809 
L 348.249722 237.245991 
L 348.370794 196.840834 
L 348.401003 198.419101 
L 348.431187 199.68988 
L 348.461348 210.1651 
L 348.491486 195.47005 
L 348.551689 207.685554 
L 348.581756 200.589282 
L 348.611799 209.101754 
L 348.701787 238.720382 
L 348.731737 193.393294 
L 348.791566 209.196827 
L 348.821445 229.332955 
L 348.881134 196.52761 
L 348.940731 214.766737 
L 349.000235 209.405442 
L 349.059648 197.598896 
L 349.089319 215.739514 
L 349.178197 213.631365 
L 349.207778 208.133623 
L 349.237335 222.457846 
L 349.26687 216.914583 
L 349.296382 215.31349 
L 349.325872 235.576642 
L 349.355338 199.420504 
L 349.384783 208.190687 
L 349.414204 190.506174 
L 349.443604 236.413257 
L 349.47298 207.361893 
L 349.502335 219.916186 
L 349.560976 198.618081 
L 349.590263 216.453948 
L 349.707189 203.514678 
L 349.765518 239.437656 
L 349.823759 207.55497 
L 349.852847 209.316128 
L 349.910956 225.620382 
L 349.968977 194.028949 
L 350.113648 252.137667 
L 350.142517 198.398686 
L 350.228993 208.70915 
L 350.257776 217.318095 
L 350.286537 203.793225 
L 350.315276 207.467685 
L 350.343994 207.933233 
L 350.401365 211.444559 
L 350.458651 196.319505 
L 350.572966 230.567732 
L 350.601492 204.396935 
L 350.686943 214.693721 
L 350.715384 225.61432 
L 350.743804 212.345971 
L 350.772204 212.349039 
L 350.800582 195.178121 
L 350.828939 232.983257 
L 350.857276 203.148671 
L 350.913886 218.281702 
L 350.94216 200.178164 
L 350.970413 211.815349 
L 350.998645 210.823669 
L 351.055048 218.334146 
L 351.083218 198.261122 
L 351.167605 204.079456 
L 351.195693 231.910263 
L 351.251807 202.522323 
L 351.279833 219.626301 
L 351.447563 201.856658 
L 351.475446 241.011311 
L 351.50331 196.153816 
L 351.558977 206.542903 
L 351.614563 202.325085 
L 351.642326 231.345748 
L 351.697792 208.321456 
L 351.725495 200.40544 
L 351.753178 227.119658 
L 351.836107 218.783821 
L 351.86371 201.04172 
L 351.946401 208.437535 
L 352.00143 204.824669 
L 352.028915 206.575798 
L 352.05638 226.720796 
L 352.111252 211.053213 
L 352.138658 192.828646 
L 352.166045 234.508158 
L 352.22076 206.744443 
L 352.275397 225.370219 
L 352.302687 203.956815 
L 352.329957 205.968928 
L 352.384439 229.845912 
L 352.411652 204.887066 
L 352.438845 211.010976 
L 352.493173 198.368148 
L 352.520308 220.834863 
L 352.601599 201.781139 
L 352.655698 224.803124 
L 352.70972 206.316348 
L 352.763667 202.862571 
L 352.790612 287.628952 
L 352.844445 202.395452 
L 352.871334 209.00583 
L 352.898203 207.777821 
L 352.925054 199.126959 
L 352.951886 229.549368 
L 353.03227 201.525047 
L 353.139187 228.645727 
L 353.219181 204.024649 
L 353.245808 211.434728 
L 353.272417 215.592963 
L 353.32558 207.535254 
L 353.378669 212.94888 
L 353.405186 230.519528 
L 353.431685 197.541241 
L 353.484628 213.5001 
L 353.511072 215.490349 
L 353.563905 217.663443 
L 353.590295 204.967179 
L 353.721972 226.519907 
L 353.800761 209.754503 
L 353.826989 211.084707 
L 353.853198 230.46916 
L 353.93172 217.605731 
L 354.036166 200.967491 
L 354.062233 208.590811 
L 354.140329 202.572615 
L 354.166325 223.39924 
L 354.192305 206.054351 
L 354.218266 243.028153 
L 354.270136 219.6262 
L 354.296045 217.811147 
L 354.321937 219.134454 
L 354.373668 203.905021 
L 354.425329 212.925084 
L 354.451133 223.481028 
L 354.476921 200.082677 
L 354.50269 214.80692 
L 354.528443 205.682612 
L 354.631281 208.350727 
L 354.70823 207.410796 
L 354.759443 227.148778 
L 354.836135 196.611087 
L 354.887179 210.698657 
L 354.938154 198.849646 
L 354.963616 227.489476 
L 355.039903 211.447827 
L 355.065298 206.211901 
L 355.090676 221.598294 
L 355.116037 210.754918 
L 355.192022 220.040847 
L 355.217317 219.757239 
L 355.293101 207.411639 
L 355.318329 211.377842 
L 355.343541 222.241334 
L 355.393915 208.621386 
L 355.419077 203.410871 
L 355.444223 290.256931 
L 355.469352 202.922889 
L 355.519561 214.133635 
L 355.544641 242.038722 
L 355.619783 203.83216 
L 355.669796 220.499826 
L 355.744694 218.097245 
L 355.8692 198.199786 
L 355.894053 218.068749 
L 355.968515 204.769415 
L 356.018076 229.089888 
L 356.042833 203.980273 
L 356.092298 226.132889 
L 356.1417 206.372667 
L 356.215684 214.161433 
L 356.240314 216.457024 
L 356.264928 210.564123 
L 356.289526 211.380996 
L 356.314109 206.098209 
L 356.338675 216.342356 
L 356.387762 213.480291 
L 356.436785 205.268192 
L 356.534645 224.510968 
L 356.559072 217.829337 
L 356.607877 197.625819 
L 356.632257 223.29157 
L 356.656621 222.550536 
L 356.68097 210.194092 
L 356.753923 215.314603 
L 356.77821 223.719625 
L 356.826738 210.496738 
L 356.85098 211.970792 
L 356.947791 232.49526 
L 356.996106 206.906133 
L 357.068464 216.282397 
L 357.092553 217.077501 
L 357.16473 207.677159 
L 357.188759 226.631519 
L 357.260755 216.222972 
L 357.404344 209.050638 
L 357.428223 220.412459 
L 357.475938 202.126316 
L 357.499773 219.70338 
L 357.523593 203.56754 
L 357.571189 232.49624 
L 357.618726 211.724939 
L 357.666205 204.642801 
L 357.713624 216.759081 
L 357.808289 206.745276 
L 357.784645 220.052177 
L 357.831918 207.245904 
L 357.973392 226.520602 
L 357.99692 225.165494 
L 358.020434 210.42596 
L 358.067419 216.089005 
L 358.09089 240.369962 
L 358.137789 206.144025 
L 358.161217 220.738045 
L 358.254786 201.361234 
L 358.278142 206.072905 
L 358.371427 232.505189 
L 358.441242 226.08128 
L 358.534133 207.037503 
L 358.55732 210.824062 
L 358.580494 222.410617 
L 358.64993 203.5214 
L 358.673048 198.636869 
L 358.742318 224.316691 
L 358.811463 222.923623 
L 358.834483 224.438085 
L 358.85749 207.428909 
L 358.903463 231.249904 
L 358.94938 212.855896 
L 358.972319 218.071306 
L 358.995243 200.462346 
L 359.018154 205.166424 
L 359.109661 222.536771 
L 359.132504 204.114375 
L 359.20095 223.343424 
L 359.223739 251.384737 
L 359.292024 207.97281 
L 359.337479 230.372506 
L 359.382881 206.293772 
L 359.405562 217.675142 
L 359.518766 205.871933 
L 359.563954 228.886574 
L 359.631637 221.154149 
L 359.654172 212.756296 
L 359.699201 216.145757 
L 359.721696 229.826246 
L 359.766646 204.407719 
L 359.789102 209.789455 
L 359.833973 227.485797 
L 359.856389 212.242447 
L 359.878792 201.10002 
L 359.923559 222.448433 
L 359.968274 208.642575 
L 360.057548 224.578769 
L 360.079834 211.462081 
L 360.124367 216.119398 
L 360.146615 211.063533 
L 360.168849 212.594896 
L 360.191071 224.389242 
L 360.257659 205.961289 
L 360.412583 227.461194 
L 360.456732 206.728314 
L 360.522861 216.467183 
L 360.544879 220.620156 
L 360.566884 216.940565 
L 360.588877 203.519373 
L 360.654779 217.925784 
L 360.676722 212.110675 
L 360.720569 211.311797 
L 360.829968 235.408301 
L 360.960837 207.963517 
L 360.982605 226.368082 
L 361.069555 206.393195 
L 361.091262 208.197349 
L 361.112956 234.13883 
L 361.199612 219.540654 
L 361.242866 220.783423 
L 361.286072 209.952343 
L 361.307657 221.692742 
L 361.35079 204.633878 
L 361.393875 209.500278 
L 361.436911 209.34797 
L 361.458411 212.796226 
L 361.4799 228.214552 
L 361.544292 211.486852 
L 361.565732 210.046551 
L 361.58716 214.451633 
L 361.608577 216.429705 
L 361.629981 206.7198 
L 361.694122 219.686851 
L 361.715479 210.345709 
L 361.864644 226.491418 
L 361.885907 211.373482 
L 361.992041 213.623549 
L 362.076738 220.811176 
L 362.034413 206.783382 
L 362.097883 219.492238 
L 362.140138 215.038122 
L 362.161249 226.972566 
L 362.245574 212.751842 
L 362.266626 226.063939 
L 362.308696 212.070144 
L 362.371715 216.463576 
L 362.41367 207.163821 
L 362.45558 223.157031 
L 362.539262 227.854933 
L 362.581035 209.851873 
L 362.706081 223.390231 
L 362.78922 209.970992 
L 362.809976 213.239058 
L 362.872179 222.273496 
L 362.892891 206.132843 
L 362.913591 229.485002 
L 362.975626 212.767026 
L 363.037561 209.452704 
L 363.058184 221.693195 
L 363.078796 209.761589 
L 363.161133 210.555401 
L 363.22277 222.442162 
L 363.202235 210.025596 
L 363.263806 217.275334 
L 363.345747 198.423316 
L 363.325278 222.357706 
L 363.366205 215.743894 
L 363.386653 247.862629 
L 363.407089 213.255987 
L 363.468333 214.752397 
L 363.488726 220.197739 
L 363.509108 212.766841 
L 363.570189 217.407793 
L 363.590528 213.574786 
L 363.631174 216.888798 
L 363.671776 212.216266 
L 363.7326 224.4073 
L 363.874148 203.801702 
L 363.995061 223.176319 
L 364.015176 214.193317 
L 364.095532 222.425961 
L 364.115595 223.060086 
L 364.17572 210.951556 
L 364.255741 213.000707 
L 364.295689 226.677526 
L 364.335596 211.477324 
L 364.355533 222.968755 
L 364.375461 214.150517 
L 364.474943 215.579697 
L 364.554343 224.323581 
L 364.534509 213.747205 
L 364.574168 217.186188 
L 364.63358 207.518343 
L 364.613786 219.883919 
L 364.673138 215.811742 
L 364.712654 217.500023 
L 364.75213 225.07223 
L 364.771853 209.597541 
L 364.811268 224.71373 
L 364.83096 213.134158 
L 364.929271 215.466316 
L 364.948903 214.323446 
L 364.968525 218.79831 
L 364.988137 219.383953 
L 365.046913 211.320729 
L 365.027331 219.686087 
L 365.086047 216.401257 
L 365.164196 213.540632 
L 365.183708 232.184716 
L 365.281121 212.148189 
L 365.300574 214.180117 
L 365.397692 219.76871 
L 365.378288 212.895822 
L 365.417086 218.859781 
L 365.455845 214.667073 
L 365.494565 219.481149 
L 365.552572 225.205478 
L 365.591194 216.683833 
L 365.610491 213.025214 
L 365.629778 228.694397 
L 365.668323 220.667369 
L 365.687581 221.273751 
L 365.706829 211.708273 
L 365.783726 222.999414 
L 365.802926 214.431536 
L 365.879631 221.977814 
L 365.93706 221.239652 
L 365.975298 211.911989 
L 366.032583 221.748715 
L 366.05166 222.912718 
L 366.089784 219.875069 
L 366.184929 220.947567 
L 366.20393 214.782015 
L 366.317737 223.437493 
L 366.41232 210.957156 
L 366.450088 217.788363 
L 366.468958 225.58987 
L 366.525513 209.271638 
L 366.56317 220.628558 
L 366.619586 217.335754 
L 366.657151 219.337507 
L 366.713429 222.700793 
L 366.750902 208.619067 
L 366.825739 214.399323 
L 366.863103 223.291201 
L 366.956354 220.119631 
L 367.067957 211.610395 
L 367.086526 223.957266 
L 367.160713 210.761169 
L 367.179237 218.135283 
L 367.234756 215.233624 
L 367.253245 219.576309 
L 367.271724 216.80014 
L 367.32711 214.714288 
L 367.36399 220.090293 
L 367.382416 213.34814 
L 367.456034 222.096679 
L 367.474416 219.882303 
L 367.49279 215.2332 
L 367.566197 221.934018 
L 367.584527 216.611499 
L 367.657758 222.737381 
L 367.676044 215.086854 
L 367.712591 221.781227 
L 367.749102 217.423329 
L 367.767345 227.247815 
L 367.803804 214.580467 
L 367.87662 219.022119 
L 367.931141 213.339919 
L 367.967445 214.744277 
L 368.021837 232.542758 
L 368.003715 214.484823 
L 368.076153 219.699662 
L 368.130391 214.305291 
L 368.11232 221.51891 
L 368.148454 214.828767 
L 368.166508 223.154029 
L 368.23864 219.183194 
L 368.256651 210.350628 
L 368.310636 228.729234 
L 368.346584 220.136442 
L 368.364545 220.301627 
L 368.472136 215.232198 
L 368.400442 221.198691 
L 368.490039 218.265051 
L 368.507933 219.060156 
L 368.525819 215.327823 
L 368.543696 213.549791 
L 368.561566 218.067369 
L 368.579427 224.573683 
L 368.615124 217.214515 
L 368.668607 221.971648 
L 368.722016 223.729913 
L 368.828612 211.587458 
L 368.917217 220.353962 
L 368.934913 208.455359 
L 368.987954 225.96047 
L 369.005617 217.999474 
L 369.023273 224.685156 
L 369.05856 217.115986 
L 369.093815 220.612624 
L 369.129037 221.457219 
L 369.216952 212.551929 
L 369.357199 227.495851 
L 369.462049 211.229657 
L 369.496936 216.840292 
L 369.549206 212.927271 
L 369.636166 224.822188 
L 369.653534 225.075238 
L 369.670895 214.088053 
L 369.774893 216.509998 
L 369.826787 212.712713 
L 369.844069 217.603262 
L 369.861344 222.556011 
L 369.89587 211.603857 
L 369.9476 221.07923 
L 370.016466 223.065383 
L 370.068035 215.879844 
L 370.153829 222.256305 
L 370.170965 212.808612 
L 370.239432 228.442799 
L 370.27362 216.512425 
L 370.341905 225.460423 
L 370.358957 219.338557 
L 370.461111 214.885215 
L 370.444104 219.65921 
L 370.478111 216.406509 
L 370.495102 223.487561 
L 370.529064 212.832863 
L 370.579949 222.653597 
L 370.664609 223.672502 
L 370.715315 214.28327 
L 370.816527 221.014245 
L 370.749082 213.863296 
L 370.83337 217.36519 
L 370.883854 216.164093 
L 370.867034 221.273953 
L 370.917474 218.207631 
L 370.951063 222.864752 
L 371.018155 217.317522 
L 371.03491 217.352419 
L 371.068397 221.70498 
L 371.135285 213.092331 
L 371.168685 215.675306 
L 371.202056 221.170735 
L 371.285357 218.309819 
L 371.351868 223.242004 
L 371.401675 209.817261 
L 371.434845 224.731281 
L 371.517643 220.767499 
L 371.534181 220.382462 
L 371.550712 213.301197 
L 371.616765 225.493058 
L 371.64975 215.973012 
L 371.682705 214.785157 
L 371.764972 223.064459 
L 371.814247 214.275232 
L 371.797829 225.603248 
L 371.879849 220.133365 
L 371.896232 219.905916 
L 371.928977 214.275232 
L 371.945339 225.603248 
L 372.010718 215.21238 
L 372.059679 214.785157 
L 372.124864 225.493058 
L 372.189938 213.301197 
L 372.238672 224.02364 
L 372.335953 209.817261 
L 372.303553 224.731281 
L 372.368326 210.9179 
L 372.384502 223.242004 
L 372.481415 220.951672 
L 372.594173 213.092331 
L 372.529781 221.170735 
L 372.642397 213.845932 
L 372.770697 222.864752 
L 372.834688 216.164093 
L 372.88261 217.36519 
L 372.898571 221.014245 
L 372.962349 213.863296 
L 372.978277 219.895741 
L 372.994198 214.28327 
L 373.041922 223.672502 
L 373.073705 220.279073 
L 373.121331 222.653597 
L 373.137193 215.648486 
L 373.153049 221.047345 
L 373.168898 212.832863 
L 373.200576 223.487561 
L 373.263855 216.425724 
L 373.342806 225.460423 
L 373.311245 215.818988 
L 373.374342 219.050785 
L 373.421596 214.311108 
L 373.437335 228.442799 
L 373.500225 212.808612 
L 373.531631 217.56867 
L 373.641352 223.065383 
L 373.594367 215.879844 
L 373.657001 222.11176 
L 373.75076 211.603857 
L 373.766364 218.562362 
L 373.781962 222.556011 
L 373.813139 212.712713 
L 373.875417 219.086418 
L 373.937595 223.193896 
L 373.953123 214.088053 
L 373.968646 225.075238 
L 374.061648 212.927271 
L 374.123525 220.984859 
L 374.138979 211.229657 
L 374.169867 218.645862 
L 374.185302 214.084876 
L 374.23157 227.495851 
L 374.262385 218.504337 
L 374.323939 226.768021 
L 374.339312 218.392921 
L 374.35468 212.551929 
L 374.431423 221.457219 
L 374.446753 215.685349 
L 374.553894 225.96047 
L 374.569176 221.401965 
L 374.599721 208.455359 
L 374.691209 211.587458 
L 374.782481 223.729913 
L 374.828035 221.971648 
L 374.93412 213.549791 
L 374.90384 224.573683 
L 374.949251 215.327823 
L 375.055001 221.198691 
L 374.994608 215.232198 
L 375.070084 218.601268 
L 375.130359 228.729234 
L 375.145413 218.146 
L 375.175503 210.350628 
L 375.190539 219.183194 
L 375.220594 215.30667 
L 375.250626 223.154029 
L 375.280633 214.305291 
L 375.325601 219.699662 
L 375.370517 232.542758 
L 375.445259 213.339919 
L 375.579429 227.247815 
L 375.653767 215.086854 
L 375.6983 220.029835 
L 375.713133 220.550552 
L 375.802011 215.2332 
L 375.742782 221.934018 
L 375.816804 219.882303 
L 375.831591 222.096679 
L 375.861149 217.334414 
L 375.875919 221.27475 
L 375.890684 213.34814 
L 375.979152 216.80014 
L 375.993877 219.576309 
L 376.008596 215.233624 
L 376.052721 218.135283 
L 376.067417 210.761169 
L 376.126148 223.957266 
L 376.170138 213.956258 
L 376.301804 223.291201 
L 376.316406 219.247905 
L 376.389332 208.619067 
L 376.345593 221.891224 
L 376.403901 216.017608 
L 376.418464 222.700793 
L 376.505726 219.088042 
L 376.563791 209.271638 
L 376.549283 223.262153 
L 376.592791 214.413537 
L 376.607283 225.58987 
L 376.650725 210.957156 
L 376.708571 219.314435 
L 376.723019 223.437493 
L 376.766331 217.193273 
L 376.795178 222.42992 
L 376.809593 214.782015 
L 376.895973 219.875069 
L 376.924723 222.912718 
L 376.967807 214.939135 
L 376.982158 211.911989 
L 377.010844 221.239652 
L 377.039508 221.19025 
L 377.053832 221.977814 
L 377.068151 220.262798 
L 377.082464 221.282196 
L 377.125373 222.999414 
L 377.182509 211.708273 
L 377.239561 228.694397 
L 377.296528 225.205478 
L 377.424396 212.895822 
L 377.523555 221.852419 
L 377.49525 212.148189 
L 377.5377 216.42415 
L 377.551839 214.387113 
L 377.565974 232.184716 
L 377.580103 213.540632 
L 377.650671 217.980113 
L 377.664769 211.320729 
L 377.678862 219.686087 
L 377.749248 215.466316 
L 377.819506 213.134158 
L 377.833543 224.71373 
L 377.87562 225.07223 
L 377.959638 207.518343 
L 378.015548 224.323581 
L 378.071376 215.579697 
L 378.141048 214.150517 
L 378.154967 222.968755 
L 378.196695 226.677526 
L 378.280014 210.951556 
L 378.404654 223.176319 
L 378.487524 203.801702 
L 378.528892 210.195365 
L 378.58398 224.4073 
L 378.638989 223.828517 
L 378.735065 212.766841 
L 378.762472 214.752397 
L 378.817226 247.862629 
L 378.803545 213.255987 
L 378.830902 215.743894 
L 378.844574 198.423316 
L 378.926501 222.442162 
L 378.940138 210.025596 
L 379.035465 221.693195 
L 379.049064 209.452704 
L 379.062658 220.315251 
L 379.089832 212.767026 
L 379.116987 216.641159 
L 379.130557 229.485002 
L 379.144122 206.132843 
L 379.225413 214.875318 
L 379.252472 210.31219 
L 379.347028 209.851873 
L 379.374001 227.854933 
L 379.454808 207.163821 
L 379.495148 214.792943 
L 379.522017 212.070144 
L 379.615913 226.972566 
L 379.696213 206.783382 
L 379.7363 215.338144 
L 379.789684 211.373482 
L 379.803019 226.491418 
L 379.896231 210.345709 
L 379.949393 206.7198 
L 380.015743 220.389895 
L 380.121666 204.633878 
L 380.042251 228.214552 
L 380.134885 210.970293 
L 380.161311 209.952343 
L 380.266834 234.13883 
L 380.293169 206.393195 
L 380.372067 214.047049 
L 380.437691 235.408301 
L 380.424575 210.234018 
L 380.477012 216.832931 
L 380.503204 211.311797 
L 380.516293 218.461158 
L 380.581672 203.519373 
L 380.607792 220.620156 
L 380.620846 216.467183 
L 380.646939 221.625683 
L 380.65998 206.728314 
L 380.686047 227.461194 
L 380.764143 210.308829 
L 380.777143 205.961289 
L 380.816118 224.389242 
L 380.868024 212.338143 
L 380.880989 211.462081 
L 380.89395 224.578769 
L 380.95869 208.409456 
L 380.984555 209.938198 
L 380.997481 201.10002 
L 381.023321 227.485797 
L 381.074947 221.699632 
L 381.087843 229.826246 
L 381.126504 212.756296 
L 381.177992 228.886574 
L 381.20371 205.871933 
L 381.293588 209.106843 
L 381.37046 251.384737 
L 381.396049 207.556298 
L 381.434402 222.536771 
L 381.421622 204.114375 
L 381.485479 205.166424 
L 381.498238 200.462346 
L 381.536489 219.589291 
L 381.54923 231.249904 
L 381.625592 205.505424 
L 381.638304 224.316691 
L 381.676416 198.636869 
L 381.752526 207.037503 
L 381.84113 232.505189 
L 381.866408 210.993177 
L 381.904294 201.361234 
L 381.954751 220.738045 
L 381.967355 206.144025 
L 381.99255 240.369962 
L 382.068036 213.764541 
L 382.143375 206.745276 
L 382.155917 220.052177 
L 382.218566 204.642801 
L 382.256106 206.183841 
L 382.268611 232.49624 
L 382.318592 202.126316 
L 382.368508 213.051542 
L 382.44326 223.956349 
L 382.455704 207.905059 
L 382.468145 226.631519 
L 382.480581 207.677159 
L 382.555115 225.014413 
L 382.567524 206.906133 
L 382.592328 232.49526 
L 382.666647 214.685344 
L 382.679019 223.719625 
L 382.728469 210.194092 
L 382.75317 223.29157 
L 382.765514 197.625819 
L 382.802524 224.510968 
L 382.864128 211.177489 
L 382.950208 216.457024 
L 382.91334 206.098209 
L 382.962489 214.161433 
L 383.023837 226.132889 
L 383.048349 203.980273 
L 383.060599 229.089888 
L 383.134018 198.199786 
L 383.158459 210.615486 
L 383.170674 203.207906 
L 383.231691 220.499826 
L 383.256071 203.83216 
L 383.341277 290.256931 
L 383.329117 202.922889 
L 383.365588 208.621386 
L 383.389882 222.241334 
L 383.414162 207.411639 
L 383.486908 217.733185 
L 383.583689 198.849646 
L 383.571605 227.489476 
L 383.607847 210.698657 
L 383.668173 227.148778 
L 383.631989 196.611087 
L 383.716367 213.193689 
L 383.788543 214.80692 
L 383.80056 200.082677 
L 383.920516 243.028153 
L 384.004263 200.967491 
L 384.040099 215.045932 
L 384.087828 230.46916 
L 384.111671 209.754503 
L 384.147407 226.519907 
L 384.206893 204.967179 
L 384.254415 213.5001 
L 384.290018 230.519528 
L 384.278154 197.541241 
L 384.349284 215.592963 
L 384.455732 201.525047 
L 384.408458 228.645727 
L 384.467542 208.43876 
L 384.49115 229.549368 
L 384.502948 199.126959 
L 384.550106 204.401275 
L 384.561886 287.628952 
L 384.644248 201.781139 
L 384.656 206.207852 
L 384.73816 229.845912 
L 384.691233 198.368148 
L 384.761602 205.968928 
L 384.773318 203.956815 
L 384.831843 234.508158 
L 384.843538 192.828646 
L 384.878599 226.720796 
L 384.960286 201.04172 
L 384.995241 207.901056 
L 385.053429 231.345748 
L 385.018527 200.40544 
L 385.099916 209.095212 
L 385.111529 196.153816 
L 385.123139 241.011311 
L 385.192722 216.27392 
L 385.239041 231.910263 
L 385.215889 202.522323 
L 385.273744 208.421232 
L 385.285305 198.261122 
L 385.296862 218.334146 
L 385.377664 203.148671 
L 385.389194 232.983257 
L 385.400719 195.178121 
L 385.492802 230.567732 
L 385.538761 196.319505 
L 385.607596 203.793225 
L 385.676308 252.137667 
L 385.664865 198.398686 
L 385.710618 199.200467 
L 385.813365 239.437656 
L 385.733475 194.028949 
L 385.824764 218.024165 
L 385.893089 198.618081 
L 385.915837 219.916186 
L 385.927206 207.361893 
L 385.938572 236.413257 
L 385.949934 190.506174 
L 386.040711 213.631365 
L 386.074697 215.739514 
L 386.153882 196.52761 
L 386.221624 238.720382 
L 386.210342 193.393294 
L 386.26672 200.589282 
L 386.300507 195.47005 
L 386.39046 237.245991 
L 386.424138 248.005096 
L 386.513803 188.5189 
L 386.603259 223.966802 
L 386.647908 220.23276 
L 386.725921 264.616426 
L 386.748181 182.678674 
L 386.792663 280.938357 
L 386.859289 217.345908 
L 386.903643 193.893794 
L 386.959013 208.516254 
L 386.970077 272.757894 
L 386.992196 184.690137 
L 387.058478 186.819584 
L 387.179697 242.702068 
L 387.190698 223.524394 
L 387.256638 241.653131 
L 387.300535 181.850226 
L 387.366287 268.348536 
L 387.420995 212.75643 
L 387.530176 189.324763 
L 387.573762 263.782197 
L 387.617298 189.247794 
L 387.639048 196.054239 
L 387.67165 187.18132 
L 387.660786 200.824981 
L 387.682511 193.056224 
L 387.747613 219.472593 
L 387.769289 186.868147 
L 387.80178 210.574997 
L 387.834244 183.241571 
L 387.888289 234.557904 
L 387.899089 232.676083 
L 387.909886 249.141689 
L 387.974604 193.027328 
L 388.028452 196.531563 
L 388.039213 196.180785 
L 388.125189 250.039101 
L 388.071477 175.27597 
L 388.146654 205.247157 
L 388.200261 182.162329 
L 388.178827 215.993494 
L 388.23239 191.211669 
L 388.328616 181.615897 
L 388.339293 257.112324 
L 388.381971 185.19347 
L 388.445899 204.314581 
L 388.456543 252.835935 
L 388.50972 191.370642 
L 388.552209 206.739506 
L 388.647638 263.757909 
L 388.584045 183.224124 
L 388.658227 224.167895 
L 388.74283 184.185757 
L 388.689975 253.889521 
L 388.763952 222.538716 
L 388.774509 244.875091 
L 388.827248 181.048448 
L 388.879915 238.969447 
L 388.911481 204.949386 
L 388.974534 261.245117 
L 389.079394 291.893805 
L 389.089864 289.824574 
L 389.215285 294.465719 
L 389.225718 294.076356 
L 389.329895 295.488 
L 389.288258 293.763496 
L 389.340297 295.274017 
L 389.464904 294.063839 
L 389.516704 294.721802 
L 389.485632 293.892181 
L 389.568435 294.190557 
L 389.60977 294.283551 
L 389.681998 293.10219 
L 389.712911 293.277903 
L 389.733507 292.774439 
L 389.7438 292.92221 
L 389.908121 290.285493 
L 389.918368 292.786098 
L 390.010466 290.865932 
L 390.194003 289.034031 
L 390.204174 289.05543 
L 390.346283 287.830359 
L 390.356414 287.796201 
L 390.497962 285.531431 
L 390.538308 285.880505 
L 390.558466 284.678224 
L 390.729378 280.730297 
L 390.749436 284.874608 
L 390.799534 277.802262 
L 390.919503 203.087101 
L 390.949437 228.101944 
L 391.049048 175.337643 
L 391.078881 234.132694 
L 391.148401 165.494319 
L 391.168241 215.972549 
L 391.188071 173.802535 
L 391.2376 220.773379 
L 391.287066 189.505753 
L 391.366079 234.932664 
L 391.316715 174.313141 
L 391.405524 213.246743 
L 391.435082 163.472849 
L 391.513791 179.639628 
L 391.582529 224.408766 
L 391.543265 171.060589 
L 391.611951 182.230344 
L 391.631553 163.727655 
L 391.651145 262.144032 
L 391.700081 203.831945 
L 391.709861 233.773409 
L 391.758722 177.214013 
L 391.788009 181.550834 
L 391.807522 202.053582 
L 391.904935 160.091099 
L 391.992396 215.324228 
L 392.021506 191.605842 
L 392.060284 222.944135 
L 392.128053 147.375875 
L 392.215008 209.330382 
L 392.243949 179.288847 
L 392.253591 177.845408 
L 392.301767 153.127496 
L 392.272869 194.073066 
L 392.330643 164.629992 
L 392.340263 250.875675 
L 392.36911 160.548114 
L 392.436336 177.065408 
L 392.484283 156.32262 
L 392.465112 197.416755 
L 392.53217 167.870844 
L 392.618216 194.225911 
L 392.589555 146.780551 
L 392.637311 168.068418 
L 392.675473 194.928633 
L 392.713597 144.447737 
L 392.780224 191.438127 
L 392.808743 143.394895 
L 392.827743 163.197553 
L 392.875204 181.687345 
L 392.922606 152.018773 
L 392.988871 196.158171 
L 392.979412 133.757426 
L 393.026686 176.478937 
L 393.111633 190.226933 
L 393.139906 143.097825 
L 393.215202 206.296538 
L 393.205798 139.827721 
L 393.252794 155.490343 
L 393.29035 166.474874 
L 393.318493 134.382761 
L 393.327869 226.587999 
L 393.421506 151.104991 
L 393.430857 133.561611 
L 393.468239 201.894936 
L 393.533571 142.134751 
L 393.542895 138.452501 
L 393.58948 131.990752 
L 393.663901 207.889683 
L 393.765993 130.091775 
L 393.784526 153.328639 
L 393.79379 212.098434 
L 393.803051 128.95081 
L 393.895538 164.006259 
L 393.978587 119.235285 
L 393.914009 165.334338 
L 394.00623 162.876 
L 394.01544 160.683963 
L 394.024648 120.832923 
L 394.09823 165.028001 
L 394.125787 149.676904 
L 394.171672 163.893993 
L 394.190011 129.606683 
L 394.244974 109.618372 
L 394.254127 188.388341 
L 394.290716 129.062641 
L 394.318136 158.008954 
L 394.308998 121.548661 
L 394.409393 139.046017 
L 394.418506 109.235584 
L 394.445835 183.766268 
L 394.518616 131.947295 
L 394.591259 120.384656 
L 394.564034 164.835324 
L 394.600329 154.792854 
L 394.663765 176.638604 
L 394.654709 114.889424 
L 394.672818 120.18432 
L 394.690919 137.891466 
L 394.709012 114.960189 
L 394.718055 194.790109 
L 394.817387 160.251753 
L 394.87146 106.616589 
L 394.93445 136.037318 
L 395.006311 171.069098 
L 395.015285 116.050122 
L 395.051157 155.624414 
L 395.078039 102.544728 
L 395.113852 157.134601 
L 395.16751 123.501388 
L 395.18538 111.34442 
L 395.20324 142.872284 
L 395.212168 185.096501 
L 395.292421 93.861883 
L 395.310232 135.621854 
L 395.354724 148.090331 
L 395.408047 107.838399 
L 395.470163 153.959957 
L 395.505613 86.303673 
L 395.514471 132.535276 
L 395.602932 102.219669 
L 395.576415 139.043906 
L 395.6206 117.357849 
L 395.691191 163.906369 
L 395.647087 102.816201 
L 395.708818 103.198884 
L 395.717629 93.850225 
L 395.744049 141.479761 
L 395.779247 115.324071 
L 395.814413 99.976477 
L 395.893419 162.617574 
L 395.919718 91.790639 
L 396.024735 96.682259 
L 396.050945 187.302695 
L 396.068408 93.603245 
L 396.12075 131.441548 
L 396.129466 81.698201 
L 396.216524 172.735406 
L 396.233912 110.553801 
L 396.294708 171.18256 
L 396.268665 94.029962 
L 396.329406 125.778748 
L 396.338075 86.463618 
L 396.390051 184.621856 
L 396.43331 101.005391 
L 396.493792 190.49771 
L 396.476521 86.649426 
L 396.536935 106.400579 
L 396.545557 90.388325 
L 396.580029 169.250394 
L 396.61447 116.295183 
L 396.623075 232.649534 
L 396.683259 81.191303 
L 396.717607 131.25311 
L 396.72619 92.115057 
L 396.7605 171.266132 
L 396.820468 156.258941 
L 396.88889 98.047599 
L 396.931591 103.481909 
L 397.033882 169.875497 
L 396.948659 103.099073 
L 397.042394 118.222534 
L 397.050904 117.201412 
L 397.059412 121.685342 
L 397.110421 81.604677 
L 397.101924 124.12156 
L 397.169847 101.720154 
L 397.203763 166.246218 
L 397.246116 100.984305 
L 397.279965 130.722028 
L 397.288422 74.023768 
L 397.364457 146.280395 
L 397.381333 138.970698 
L 397.465602 179.60769 
L 397.398202 111.635854 
L 397.474019 123.174812 
L 397.507668 83.086333 
L 397.558086 134.009049 
L 397.566483 136.834792 
L 397.574877 106.075351 
L 397.58327 108.713609 
L 397.591661 103.349218 
L 397.60005 158.913841 
L 397.608438 181.876681 
L 397.683842 96.576082 
L 397.708944 57.534857 
L 397.742388 125.374082 
L 397.767451 114.892804 
L 397.784151 174.051549 
L 397.875872 136.708375 
L 397.90917 62.568832 
L 397.94244 161.000738 
L 397.983987 118.123181 
L 398.025489 130.085533 
L 398.10008 97.761589 
L 398.124911 121.920052 
L 398.207567 99.551325 
L 398.240579 109.103586 
L 398.290045 90.225983 
L 398.298283 53.568 
L 398.314754 137.497518 
L 398.397002 102.498797 
L 398.446267 124.477354 
L 398.487273 180.02693 
L 398.487273 180.02693 
" style="fill:none;stroke:#1f77b4;stroke-linecap:square;stroke-width:1.5;"/>
   </g>
   <g id="patch_3">
    <path d="M 57.6 307.584 
L 57.6 41.472 
" style="fill:none;stroke:#000000;stroke-linecap:square;stroke-linejoin:miter;stroke-width:0.8;"/>
   </g>
   <g id="patch_4">
    <path d="M 414.72 307.584 
L 414.72 41.472 
" style="fill:none;stroke:#000000;stroke-linecap:square;stroke-linejoin:miter;stroke-width:0.8;"/>
   </g>
   <g id="patch_5">
    <path d="M 57.6 307.584 
L 414.72 307.584 
" style="fill:none;stroke:#000000;stroke-linecap:square;stroke-linejoin:miter;stroke-width:0.8;"/>
   </g>
   <g id="patch_6">
    <path d="M 57.6 41.472 
L 414.72 41.472 
" style="fill:none;stroke:#000000;stroke-linecap:square;stroke-linejoin:miter;stroke-width:0.8;"/>
   </g>
  </g>
 </g>
 <defs>
  <clipPath id="p5e1262a36f">
   <rect height="266.112" width="357.12" x="57.6" y="41.472"/>
  </clipPath>
 </defs>
</svg>
