<?xml version="1.0" encoding="utf-8" standalone="no"?>
<!DOCTYPE svg PUBLIC "-//W3C//DTD SVG 1.1//EN"
  "http://www.w3.org/Graphics/SVG/1.1/DTD/svg11.dtd">
<!-- Created with matplotlib (https://matplotlib.org/) -->
<svg height="345.6pt" version="1.1" viewBox="0 0 460.8 345.6" width="460.8pt" xmlns="http://www.w3.org/2000/svg" xmlns:xlink="http://www.w3.org/1999/xlink">
 <metadata>
  <rdf:RDF xmlns:cc="http://creativecommons.org/ns#" xmlns:dc="http://purl.org/dc/elements/1.1/" xmlns:rdf="http://www.w3.org/1999/02/22-rdf-syntax-ns#">
   <cc:Work>
    <dc:type rdf:resource="http://purl.org/dc/dcmitype/StillImage"/>
    <dc:date>2020-11-09T01:31:58.541149</dc:date>
    <dc:format>image/svg+xml</dc:format>
    <dc:creator>
     <cc:Agent>
      <dc:title>Matplotlib v3.3.2, https://matplotlib.org/</dc:title>
     </cc:Agent>
    </dc:creator>
   </cc:Work>
  </rdf:RDF>
 </metadata>
 <defs>
  <style type="text/css">*{stroke-linecap:butt;stroke-linejoin:round;}</style>
 </defs>
 <g id="figure_1">
  <g id="patch_1">
   <path d="M 0 345.6 
L 460.8 345.6 
L 460.8 0 
L 0 0 
z
" style="fill:#ffffff;"/>
  </g>
  <g id="axes_1">
   <g id="patch_2">
    <path d="M 57.6 307.584 
L 414.72 307.584 
L 414.72 41.472 
L 57.6 41.472 
z
" style="fill:#ffffff;"/>
   </g>
   <g id="matplotlib.axis_1">
    <g id="xtick_1">
     <g id="line2d_1">
      <defs>
       <path d="M 0 0 
L 0 3.5 
" id="m35b79b440d" style="stroke:#000000;stroke-width:0.8;"/>
      </defs>
      <g>
       <use style="stroke:#000000;stroke-width:0.8;" x="73.832727" xlink:href="#m35b79b440d" y="307.584"/>
      </g>
     </g>
     <g id="text_1">
      <!-- 0.0 -->
      <g transform="translate(65.881165 322.182437)scale(0.1 -0.1)">
       <defs>
        <path d="M 31.78125 66.40625 
Q 24.171875 66.40625 20.328125 58.90625 
Q 16.5 51.421875 16.5 36.375 
Q 16.5 21.390625 20.328125 13.890625 
Q 24.171875 6.390625 31.78125 6.390625 
Q 39.453125 6.390625 43.28125 13.890625 
Q 47.125 21.390625 47.125 36.375 
Q 47.125 51.421875 43.28125 58.90625 
Q 39.453125 66.40625 31.78125 66.40625 
z
M 31.78125 74.21875 
Q 44.046875 74.21875 50.515625 64.515625 
Q 56.984375 54.828125 56.984375 36.375 
Q 56.984375 17.96875 50.515625 8.265625 
Q 44.046875 -1.421875 31.78125 -1.421875 
Q 19.53125 -1.421875 13.0625 8.265625 
Q 6.59375 17.96875 6.59375 36.375 
Q 6.59375 54.828125 13.0625 64.515625 
Q 19.53125 74.21875 31.78125 74.21875 
z
" id="DejaVuSans-48"/>
        <path d="M 10.6875 12.40625 
L 21 12.40625 
L 21 0 
L 10.6875 0 
z
" id="DejaVuSans-46"/>
       </defs>
       <use xlink:href="#DejaVuSans-48"/>
       <use x="63.623047" xlink:href="#DejaVuSans-46"/>
       <use x="95.410156" xlink:href="#DejaVuSans-48"/>
      </g>
     </g>
    </g>
    <g id="xtick_2">
     <g id="line2d_2">
      <g>
       <use style="stroke:#000000;stroke-width:0.8;" x="117.124618" xlink:href="#m35b79b440d" y="307.584"/>
      </g>
     </g>
     <g id="text_2">
      <!-- 2.5 -->
      <g transform="translate(109.173055 322.182437)scale(0.1 -0.1)">
       <defs>
        <path d="M 19.1875 8.296875 
L 53.609375 8.296875 
L 53.609375 0 
L 7.328125 0 
L 7.328125 8.296875 
Q 12.9375 14.109375 22.625 23.890625 
Q 32.328125 33.6875 34.8125 36.53125 
Q 39.546875 41.84375 41.421875 45.53125 
Q 43.3125 49.21875 43.3125 52.78125 
Q 43.3125 58.59375 39.234375 62.25 
Q 35.15625 65.921875 28.609375 65.921875 
Q 23.96875 65.921875 18.8125 64.3125 
Q 13.671875 62.703125 7.8125 59.421875 
L 7.8125 69.390625 
Q 13.765625 71.78125 18.9375 73 
Q 24.125 74.21875 28.421875 74.21875 
Q 39.75 74.21875 46.484375 68.546875 
Q 53.21875 62.890625 53.21875 53.421875 
Q 53.21875 48.921875 51.53125 44.890625 
Q 49.859375 40.875 45.40625 35.40625 
Q 44.1875 33.984375 37.640625 27.21875 
Q 31.109375 20.453125 19.1875 8.296875 
z
" id="DejaVuSans-50"/>
        <path d="M 10.796875 72.90625 
L 49.515625 72.90625 
L 49.515625 64.59375 
L 19.828125 64.59375 
L 19.828125 46.734375 
Q 21.96875 47.46875 24.109375 47.828125 
Q 26.265625 48.1875 28.421875 48.1875 
Q 40.625 48.1875 47.75 41.5 
Q 54.890625 34.8125 54.890625 23.390625 
Q 54.890625 11.625 47.5625 5.09375 
Q 40.234375 -1.421875 26.90625 -1.421875 
Q 22.3125 -1.421875 17.546875 -0.640625 
Q 12.796875 0.140625 7.71875 1.703125 
L 7.71875 11.625 
Q 12.109375 9.234375 16.796875 8.0625 
Q 21.484375 6.890625 26.703125 6.890625 
Q 35.15625 6.890625 40.078125 11.328125 
Q 45.015625 15.765625 45.015625 23.390625 
Q 45.015625 31 40.078125 35.4375 
Q 35.15625 39.890625 26.703125 39.890625 
Q 22.75 39.890625 18.8125 39.015625 
Q 14.890625 38.140625 10.796875 36.28125 
z
" id="DejaVuSans-53"/>
       </defs>
       <use xlink:href="#DejaVuSans-50"/>
       <use x="63.623047" xlink:href="#DejaVuSans-46"/>
       <use x="95.410156" xlink:href="#DejaVuSans-53"/>
      </g>
     </g>
    </g>
    <g id="xtick_3">
     <g id="line2d_3">
      <g>
       <use style="stroke:#000000;stroke-width:0.8;" x="160.416508" xlink:href="#m35b79b440d" y="307.584"/>
      </g>
     </g>
     <g id="text_3">
      <!-- 5.0 -->
      <g transform="translate(152.464946 322.182437)scale(0.1 -0.1)">
       <use xlink:href="#DejaVuSans-53"/>
       <use x="63.623047" xlink:href="#DejaVuSans-46"/>
       <use x="95.410156" xlink:href="#DejaVuSans-48"/>
      </g>
     </g>
    </g>
    <g id="xtick_4">
     <g id="line2d_4">
      <g>
       <use style="stroke:#000000;stroke-width:0.8;" x="203.708399" xlink:href="#m35b79b440d" y="307.584"/>
      </g>
     </g>
     <g id="text_4">
      <!-- 7.5 -->
      <g transform="translate(195.756836 322.182437)scale(0.1 -0.1)">
       <defs>
        <path d="M 8.203125 72.90625 
L 55.078125 72.90625 
L 55.078125 68.703125 
L 28.609375 0 
L 18.3125 0 
L 43.21875 64.59375 
L 8.203125 64.59375 
z
" id="DejaVuSans-55"/>
       </defs>
       <use xlink:href="#DejaVuSans-55"/>
       <use x="63.623047" xlink:href="#DejaVuSans-46"/>
       <use x="95.410156" xlink:href="#DejaVuSans-53"/>
      </g>
     </g>
    </g>
    <g id="xtick_5">
     <g id="line2d_5">
      <g>
       <use style="stroke:#000000;stroke-width:0.8;" x="247.000289" xlink:href="#m35b79b440d" y="307.584"/>
      </g>
     </g>
     <g id="text_5">
      <!-- 10.0 -->
      <g transform="translate(235.867477 322.182437)scale(0.1 -0.1)">
       <defs>
        <path d="M 12.40625 8.296875 
L 28.515625 8.296875 
L 28.515625 63.921875 
L 10.984375 60.40625 
L 10.984375 69.390625 
L 28.421875 72.90625 
L 38.28125 72.90625 
L 38.28125 8.296875 
L 54.390625 8.296875 
L 54.390625 0 
L 12.40625 0 
z
" id="DejaVuSans-49"/>
       </defs>
       <use xlink:href="#DejaVuSans-49"/>
       <use x="63.623047" xlink:href="#DejaVuSans-48"/>
       <use x="127.246094" xlink:href="#DejaVuSans-46"/>
       <use x="159.033203" xlink:href="#DejaVuSans-48"/>
      </g>
     </g>
    </g>
    <g id="xtick_6">
     <g id="line2d_6">
      <g>
       <use style="stroke:#000000;stroke-width:0.8;" x="290.29218" xlink:href="#m35b79b440d" y="307.584"/>
      </g>
     </g>
     <g id="text_6">
      <!-- 12.5 -->
      <g transform="translate(279.159367 322.182437)scale(0.1 -0.1)">
       <use xlink:href="#DejaVuSans-49"/>
       <use x="63.623047" xlink:href="#DejaVuSans-50"/>
       <use x="127.246094" xlink:href="#DejaVuSans-46"/>
       <use x="159.033203" xlink:href="#DejaVuSans-53"/>
      </g>
     </g>
    </g>
    <g id="xtick_7">
     <g id="line2d_7">
      <g>
       <use style="stroke:#000000;stroke-width:0.8;" x="333.58407" xlink:href="#m35b79b440d" y="307.584"/>
      </g>
     </g>
     <g id="text_7">
      <!-- 15.0 -->
      <g transform="translate(322.451258 322.182437)scale(0.1 -0.1)">
       <use xlink:href="#DejaVuSans-49"/>
       <use x="63.623047" xlink:href="#DejaVuSans-53"/>
       <use x="127.246094" xlink:href="#DejaVuSans-46"/>
       <use x="159.033203" xlink:href="#DejaVuSans-48"/>
      </g>
     </g>
    </g>
    <g id="xtick_8">
     <g id="line2d_8">
      <g>
       <use style="stroke:#000000;stroke-width:0.8;" x="376.875961" xlink:href="#m35b79b440d" y="307.584"/>
      </g>
     </g>
     <g id="text_8">
      <!-- 17.5 -->
      <g transform="translate(365.743148 322.182437)scale(0.1 -0.1)">
       <use xlink:href="#DejaVuSans-49"/>
       <use x="63.623047" xlink:href="#DejaVuSans-55"/>
       <use x="127.246094" xlink:href="#DejaVuSans-46"/>
       <use x="159.033203" xlink:href="#DejaVuSans-53"/>
      </g>
     </g>
    </g>
    <g id="text_9">
     <!-- Time (s) -->
     <g transform="translate(215.831094 335.860562)scale(0.1 -0.1)">
      <defs>
       <path d="M -0.296875 72.90625 
L 61.375 72.90625 
L 61.375 64.59375 
L 35.5 64.59375 
L 35.5 0 
L 25.59375 0 
L 25.59375 64.59375 
L -0.296875 64.59375 
z
" id="DejaVuSans-84"/>
       <path d="M 9.421875 54.6875 
L 18.40625 54.6875 
L 18.40625 0 
L 9.421875 0 
z
M 9.421875 75.984375 
L 18.40625 75.984375 
L 18.40625 64.59375 
L 9.421875 64.59375 
z
" id="DejaVuSans-105"/>
       <path d="M 52 44.1875 
Q 55.375 50.25 60.0625 53.125 
Q 64.75 56 71.09375 56 
Q 79.640625 56 84.28125 50.015625 
Q 88.921875 44.046875 88.921875 33.015625 
L 88.921875 0 
L 79.890625 0 
L 79.890625 32.71875 
Q 79.890625 40.578125 77.09375 44.375 
Q 74.3125 48.1875 68.609375 48.1875 
Q 61.625 48.1875 57.5625 43.546875 
Q 53.515625 38.921875 53.515625 30.90625 
L 53.515625 0 
L 44.484375 0 
L 44.484375 32.71875 
Q 44.484375 40.625 41.703125 44.40625 
Q 38.921875 48.1875 33.109375 48.1875 
Q 26.21875 48.1875 22.15625 43.53125 
Q 18.109375 38.875 18.109375 30.90625 
L 18.109375 0 
L 9.078125 0 
L 9.078125 54.6875 
L 18.109375 54.6875 
L 18.109375 46.1875 
Q 21.1875 51.21875 25.484375 53.609375 
Q 29.78125 56 35.6875 56 
Q 41.65625 56 45.828125 52.96875 
Q 50 49.953125 52 44.1875 
z
" id="DejaVuSans-109"/>
       <path d="M 56.203125 29.59375 
L 56.203125 25.203125 
L 14.890625 25.203125 
Q 15.484375 15.921875 20.484375 11.0625 
Q 25.484375 6.203125 34.421875 6.203125 
Q 39.59375 6.203125 44.453125 7.46875 
Q 49.3125 8.734375 54.109375 11.28125 
L 54.109375 2.78125 
Q 49.265625 0.734375 44.1875 -0.34375 
Q 39.109375 -1.421875 33.890625 -1.421875 
Q 20.796875 -1.421875 13.15625 6.1875 
Q 5.515625 13.8125 5.515625 26.8125 
Q 5.515625 40.234375 12.765625 48.109375 
Q 20.015625 56 32.328125 56 
Q 43.359375 56 49.78125 48.890625 
Q 56.203125 41.796875 56.203125 29.59375 
z
M 47.21875 32.234375 
Q 47.125 39.59375 43.09375 43.984375 
Q 39.0625 48.390625 32.421875 48.390625 
Q 24.90625 48.390625 20.390625 44.140625 
Q 15.875 39.890625 15.1875 32.171875 
z
" id="DejaVuSans-101"/>
       <path id="DejaVuSans-32"/>
       <path d="M 31 75.875 
Q 24.46875 64.65625 21.28125 53.65625 
Q 18.109375 42.671875 18.109375 31.390625 
Q 18.109375 20.125 21.3125 9.0625 
Q 24.515625 -2 31 -13.1875 
L 23.1875 -13.1875 
Q 15.875 -1.703125 12.234375 9.375 
Q 8.59375 20.453125 8.59375 31.390625 
Q 8.59375 42.28125 12.203125 53.3125 
Q 15.828125 64.359375 23.1875 75.875 
z
" id="DejaVuSans-40"/>
       <path d="M 44.28125 53.078125 
L 44.28125 44.578125 
Q 40.484375 46.53125 36.375 47.5 
Q 32.28125 48.484375 27.875 48.484375 
Q 21.1875 48.484375 17.84375 46.4375 
Q 14.5 44.390625 14.5 40.28125 
Q 14.5 37.15625 16.890625 35.375 
Q 19.28125 33.59375 26.515625 31.984375 
L 29.59375 31.296875 
Q 39.15625 29.25 43.1875 25.515625 
Q 47.21875 21.78125 47.21875 15.09375 
Q 47.21875 7.46875 41.1875 3.015625 
Q 35.15625 -1.421875 24.609375 -1.421875 
Q 20.21875 -1.421875 15.453125 -0.5625 
Q 10.6875 0.296875 5.421875 2 
L 5.421875 11.28125 
Q 10.40625 8.6875 15.234375 7.390625 
Q 20.0625 6.109375 24.8125 6.109375 
Q 31.15625 6.109375 34.5625 8.28125 
Q 37.984375 10.453125 37.984375 14.40625 
Q 37.984375 18.0625 35.515625 20.015625 
Q 33.0625 21.96875 24.703125 23.78125 
L 21.578125 24.515625 
Q 13.234375 26.265625 9.515625 29.90625 
Q 5.8125 33.546875 5.8125 39.890625 
Q 5.8125 47.609375 11.28125 51.796875 
Q 16.75 56 26.8125 56 
Q 31.78125 56 36.171875 55.265625 
Q 40.578125 54.546875 44.28125 53.078125 
z
" id="DejaVuSans-115"/>
       <path d="M 8.015625 75.875 
L 15.828125 75.875 
Q 23.140625 64.359375 26.78125 53.3125 
Q 30.421875 42.28125 30.421875 31.390625 
Q 30.421875 20.453125 26.78125 9.375 
Q 23.140625 -1.703125 15.828125 -13.1875 
L 8.015625 -13.1875 
Q 14.5 -2 17.703125 9.0625 
Q 20.90625 20.125 20.90625 31.390625 
Q 20.90625 42.671875 17.703125 53.65625 
Q 14.5 64.65625 8.015625 75.875 
z
" id="DejaVuSans-41"/>
      </defs>
      <use xlink:href="#DejaVuSans-84"/>
      <use x="57.958984" xlink:href="#DejaVuSans-105"/>
      <use x="85.742188" xlink:href="#DejaVuSans-109"/>
      <use x="183.154297" xlink:href="#DejaVuSans-101"/>
      <use x="244.677734" xlink:href="#DejaVuSans-32"/>
      <use x="276.464844" xlink:href="#DejaVuSans-40"/>
      <use x="315.478516" xlink:href="#DejaVuSans-115"/>
      <use x="367.578125" xlink:href="#DejaVuSans-41"/>
     </g>
    </g>
   </g>
   <g id="matplotlib.axis_2">
    <g id="ytick_1">
     <g id="line2d_9">
      <defs>
       <path d="M 0 0 
L -3.5 0 
" id="m588c5d0d85" style="stroke:#000000;stroke-width:0.8;"/>
      </defs>
      <g>
       <use style="stroke:#000000;stroke-width:0.8;" x="57.6" xlink:href="#m588c5d0d85" y="298.313747"/>
      </g>
     </g>
     <g id="text_10">
      <!-- −0.00075 -->
      <g transform="translate(0.867188 302.112966)scale(0.1 -0.1)">
       <defs>
        <path d="M 10.59375 35.5 
L 73.1875 35.5 
L 73.1875 27.203125 
L 10.59375 27.203125 
z
" id="DejaVuSans-8722"/>
       </defs>
       <use xlink:href="#DejaVuSans-8722"/>
       <use x="83.789062" xlink:href="#DejaVuSans-48"/>
       <use x="147.412109" xlink:href="#DejaVuSans-46"/>
       <use x="179.199219" xlink:href="#DejaVuSans-48"/>
       <use x="242.822266" xlink:href="#DejaVuSans-48"/>
       <use x="306.445312" xlink:href="#DejaVuSans-48"/>
       <use x="370.068359" xlink:href="#DejaVuSans-55"/>
       <use x="433.691406" xlink:href="#DejaVuSans-53"/>
      </g>
     </g>
    </g>
    <g id="ytick_2">
     <g id="line2d_10">
      <g>
       <use style="stroke:#000000;stroke-width:0.8;" x="57.6" xlink:href="#m588c5d0d85" y="265.832401"/>
      </g>
     </g>
     <g id="text_11">
      <!-- −0.00050 -->
      <g transform="translate(0.867188 269.631619)scale(0.1 -0.1)">
       <use xlink:href="#DejaVuSans-8722"/>
       <use x="83.789062" xlink:href="#DejaVuSans-48"/>
       <use x="147.412109" xlink:href="#DejaVuSans-46"/>
       <use x="179.199219" xlink:href="#DejaVuSans-48"/>
       <use x="242.822266" xlink:href="#DejaVuSans-48"/>
       <use x="306.445312" xlink:href="#DejaVuSans-48"/>
       <use x="370.068359" xlink:href="#DejaVuSans-53"/>
       <use x="433.691406" xlink:href="#DejaVuSans-48"/>
      </g>
     </g>
    </g>
    <g id="ytick_3">
     <g id="line2d_11">
      <g>
       <use style="stroke:#000000;stroke-width:0.8;" x="57.6" xlink:href="#m588c5d0d85" y="233.351054"/>
      </g>
     </g>
     <g id="text_12">
      <!-- −0.00025 -->
      <g transform="translate(0.867188 237.150273)scale(0.1 -0.1)">
       <use xlink:href="#DejaVuSans-8722"/>
       <use x="83.789062" xlink:href="#DejaVuSans-48"/>
       <use x="147.412109" xlink:href="#DejaVuSans-46"/>
       <use x="179.199219" xlink:href="#DejaVuSans-48"/>
       <use x="242.822266" xlink:href="#DejaVuSans-48"/>
       <use x="306.445312" xlink:href="#DejaVuSans-48"/>
       <use x="370.068359" xlink:href="#DejaVuSans-50"/>
       <use x="433.691406" xlink:href="#DejaVuSans-53"/>
      </g>
     </g>
    </g>
    <g id="ytick_4">
     <g id="line2d_12">
      <g>
       <use style="stroke:#000000;stroke-width:0.8;" x="57.6" xlink:href="#m588c5d0d85" y="200.869708"/>
      </g>
     </g>
     <g id="text_13">
      <!-- 0.00000 -->
      <g transform="translate(9.246875 204.668927)scale(0.1 -0.1)">
       <use xlink:href="#DejaVuSans-48"/>
       <use x="63.623047" xlink:href="#DejaVuSans-46"/>
       <use x="95.410156" xlink:href="#DejaVuSans-48"/>
       <use x="159.033203" xlink:href="#DejaVuSans-48"/>
       <use x="222.65625" xlink:href="#DejaVuSans-48"/>
       <use x="286.279297" xlink:href="#DejaVuSans-48"/>
       <use x="349.902344" xlink:href="#DejaVuSans-48"/>
      </g>
     </g>
    </g>
    <g id="ytick_5">
     <g id="line2d_13">
      <g>
       <use style="stroke:#000000;stroke-width:0.8;" x="57.6" xlink:href="#m588c5d0d85" y="168.388362"/>
      </g>
     </g>
     <g id="text_14">
      <!-- 0.00025 -->
      <g transform="translate(9.246875 172.18758)scale(0.1 -0.1)">
       <use xlink:href="#DejaVuSans-48"/>
       <use x="63.623047" xlink:href="#DejaVuSans-46"/>
       <use x="95.410156" xlink:href="#DejaVuSans-48"/>
       <use x="159.033203" xlink:href="#DejaVuSans-48"/>
       <use x="222.65625" xlink:href="#DejaVuSans-48"/>
       <use x="286.279297" xlink:href="#DejaVuSans-50"/>
       <use x="349.902344" xlink:href="#DejaVuSans-53"/>
      </g>
     </g>
    </g>
    <g id="ytick_6">
     <g id="line2d_14">
      <g>
       <use style="stroke:#000000;stroke-width:0.8;" x="57.6" xlink:href="#m588c5d0d85" y="135.907015"/>
      </g>
     </g>
     <g id="text_15">
      <!-- 0.00050 -->
      <g transform="translate(9.246875 139.706234)scale(0.1 -0.1)">
       <use xlink:href="#DejaVuSans-48"/>
       <use x="63.623047" xlink:href="#DejaVuSans-46"/>
       <use x="95.410156" xlink:href="#DejaVuSans-48"/>
       <use x="159.033203" xlink:href="#DejaVuSans-48"/>
       <use x="222.65625" xlink:href="#DejaVuSans-48"/>
       <use x="286.279297" xlink:href="#DejaVuSans-53"/>
       <use x="349.902344" xlink:href="#DejaVuSans-48"/>
      </g>
     </g>
    </g>
    <g id="ytick_7">
     <g id="line2d_15">
      <g>
       <use style="stroke:#000000;stroke-width:0.8;" x="57.6" xlink:href="#m588c5d0d85" y="103.425669"/>
      </g>
     </g>
     <g id="text_16">
      <!-- 0.00075 -->
      <g transform="translate(9.246875 107.224888)scale(0.1 -0.1)">
       <use xlink:href="#DejaVuSans-48"/>
       <use x="63.623047" xlink:href="#DejaVuSans-46"/>
       <use x="95.410156" xlink:href="#DejaVuSans-48"/>
       <use x="159.033203" xlink:href="#DejaVuSans-48"/>
       <use x="222.65625" xlink:href="#DejaVuSans-48"/>
       <use x="286.279297" xlink:href="#DejaVuSans-55"/>
       <use x="349.902344" xlink:href="#DejaVuSans-53"/>
      </g>
     </g>
    </g>
    <g id="ytick_8">
     <g id="line2d_16">
      <g>
       <use style="stroke:#000000;stroke-width:0.8;" x="57.6" xlink:href="#m588c5d0d85" y="70.944323"/>
      </g>
     </g>
     <g id="text_17">
      <!-- 0.00100 -->
      <g transform="translate(9.246875 74.743541)scale(0.1 -0.1)">
       <use xlink:href="#DejaVuSans-48"/>
       <use x="63.623047" xlink:href="#DejaVuSans-46"/>
       <use x="95.410156" xlink:href="#DejaVuSans-48"/>
       <use x="159.033203" xlink:href="#DejaVuSans-48"/>
       <use x="222.65625" xlink:href="#DejaVuSans-49"/>
       <use x="286.279297" xlink:href="#DejaVuSans-48"/>
       <use x="349.902344" xlink:href="#DejaVuSans-48"/>
      </g>
     </g>
    </g>
    <g id="text_18">
     <!-- Volts (V) -->
     <g transform="translate(-5.2125 195.485031)rotate(-90)scale(0.1 -0.1)">
      <defs>
       <path d="M 28.609375 0 
L 0.78125 72.90625 
L 11.078125 72.90625 
L 34.1875 11.53125 
L 57.328125 72.90625 
L 67.578125 72.90625 
L 39.796875 0 
z
" id="DejaVuSans-86"/>
       <path d="M 30.609375 48.390625 
Q 23.390625 48.390625 19.1875 42.75 
Q 14.984375 37.109375 14.984375 27.296875 
Q 14.984375 17.484375 19.15625 11.84375 
Q 23.34375 6.203125 30.609375 6.203125 
Q 37.796875 6.203125 41.984375 11.859375 
Q 46.1875 17.53125 46.1875 27.296875 
Q 46.1875 37.015625 41.984375 42.703125 
Q 37.796875 48.390625 30.609375 48.390625 
z
M 30.609375 56 
Q 42.328125 56 49.015625 48.375 
Q 55.71875 40.765625 55.71875 27.296875 
Q 55.71875 13.875 49.015625 6.21875 
Q 42.328125 -1.421875 30.609375 -1.421875 
Q 18.84375 -1.421875 12.171875 6.21875 
Q 5.515625 13.875 5.515625 27.296875 
Q 5.515625 40.765625 12.171875 48.375 
Q 18.84375 56 30.609375 56 
z
" id="DejaVuSans-111"/>
       <path d="M 9.421875 75.984375 
L 18.40625 75.984375 
L 18.40625 0 
L 9.421875 0 
z
" id="DejaVuSans-108"/>
       <path d="M 18.3125 70.21875 
L 18.3125 54.6875 
L 36.8125 54.6875 
L 36.8125 47.703125 
L 18.3125 47.703125 
L 18.3125 18.015625 
Q 18.3125 11.328125 20.140625 9.421875 
Q 21.96875 7.515625 27.59375 7.515625 
L 36.8125 7.515625 
L 36.8125 0 
L 27.59375 0 
Q 17.1875 0 13.234375 3.875 
Q 9.28125 7.765625 9.28125 18.015625 
L 9.28125 47.703125 
L 2.6875 47.703125 
L 2.6875 54.6875 
L 9.28125 54.6875 
L 9.28125 70.21875 
z
" id="DejaVuSans-116"/>
      </defs>
      <use xlink:href="#DejaVuSans-86"/>
      <use x="60.658203" xlink:href="#DejaVuSans-111"/>
      <use x="121.839844" xlink:href="#DejaVuSans-108"/>
      <use x="149.623047" xlink:href="#DejaVuSans-116"/>
      <use x="188.832031" xlink:href="#DejaVuSans-115"/>
      <use x="240.931641" xlink:href="#DejaVuSans-32"/>
      <use x="272.71875" xlink:href="#DejaVuSans-40"/>
      <use x="311.732422" xlink:href="#DejaVuSans-86"/>
      <use x="380.140625" xlink:href="#DejaVuSans-41"/>
     </g>
    </g>
   </g>
   <g id="line2d_17">
    <path clip-path="url(#pb8f3c28129)" d="M 73.832727 200.842496 
L 73.971291 200.922763 
L 74.179136 200.987625 
L 74.594827 201.165232 
L 76.742563 202.168704 
L 76.881127 202.272118 
L 77.01969 202.208326 
L 77.227536 202.465536 
L 77.366099 202.377949 
L 77.573945 202.637147 
L 77.712508 202.591322 
L 78.058917 202.832352 
L 78.266763 202.875169 
L 78.405327 203.067022 
L 78.54389 202.879599 
L 78.613172 202.959821 
L 78.751736 203.257628 
L 78.890299 202.982184 
L 78.959581 203.055139 
L 79.098145 203.326619 
L 79.30599 203.039106 
L 79.444554 203.185967 
L 79.790963 203.032226 
L 79.929526 203.218175 
L 79.998808 203.142468 
L 80.137372 202.82157 
L 80.275935 203.217471 
L 80.345217 203.096308 
L 80.483781 202.601098 
L 80.622344 203.039854 
L 80.691626 202.907384 
L 80.83019 202.402919 
L 80.968753 202.647878 
L 81.59229 201.665688 
L 81.730853 201.31447 
L 81.869417 201.563333 
L 82.077262 200.536165 
L 82.215826 200.886264 
L 82.423671 199.706537 
L 82.492953 199.928097 
L 82.562235 199.872381 
L 82.839362 198.722352 
L 83.116489 197.860665 
L 83.255053 196.948404 
L 83.324335 197.042962 
L 83.393617 197.176112 
L 83.601462 195.26203 
L 83.670744 195.521745 
L 83.740026 195.807231 
L 83.947871 193.601181 
L 84.017153 193.798532 
L 84.086435 193.990379 
L 84.848535 188.83601 
L 84.917816 188.953305 
L 84.987098 188.688462 
L 85.194944 186.176962 
L 85.264225 186.701336 
L 85.333507 186.542367 
L 85.541353 183.467951 
L 85.610634 184.007825 
L 85.679916 183.820259 
L 85.887762 180.798607 
L 85.957043 180.860101 
L 86.095607 179.617804 
L 86.442016 176.459668 
L 86.511298 176.382921 
L 86.719143 172.596611 
L 86.788425 173.027693 
L 86.857707 173.560517 
L 87.065552 168.686815 
L 87.134834 169.347106 
L 87.204116 170.057233 
L 87.75837 162.12073 
L 88.174061 157.396569 
L 88.312625 155.034891 
L 88.381907 156.368996 
L 88.451188 156.280353 
L 88.659034 150.057561 
L 88.797597 152.490153 
L 89.005443 145.489391 
L 89.144007 147.465551 
L 89.351852 141.607922 
L 89.421134 141.644428 
L 89.698261 138.480322 
L 89.836825 133.304676 
L 89.975388 138.646145 
L 90.04467 135.926666 
L 90.183234 124.902906 
L 90.321797 137.366966 
L 90.391079 133.556633 
L 90.529643 116.603099 
L 90.668206 135.444538 
L 90.737488 130.886793 
L 90.876052 109.207311 
L 91.014615 132.223195 
L 91.083897 127.485683 
L 91.153179 280.608874 
L 91.222461 277.397269 
L 91.361024 295.488 
L 91.56887 273.549692 
L 91.707433 289.614901 
L 91.915279 270.996342 
L 91.984561 276.821911 
L 92.053842 282.451603 
L 92.123124 279.750374 
L 92.261688 269.027139 
L 92.400251 274.891829 
L 92.608097 267.929148 
L 92.677379 268.065589 
L 92.74666 267.983117 
L 92.954506 264.88863 
L 93.162351 259.339954 
L 93.231633 259.630817 
L 93.300915 258.855369 
L 93.50876 252.461632 
L 93.578042 251.872278 
L 93.647324 249.982089 
L 93.855169 240.677763 
L 93.993733 244.034174 
L 94.201578 241.333664 
L 94.547987 244.305121 
L 94.755833 245.867067 
L 94.825115 245.71705 
L 95.03296 242.814071 
L 95.102242 243.535235 
L 95.171524 242.798042 
L 95.379369 239.085386 
L 95.448651 239.081949 
L 95.517933 239.706058 
L 95.656496 237.93748 
L 95.725778 238.582457 
L 95.864342 244.791619 
L 96.002905 250.11494 
L 96.141469 232.391333 
L 96.280033 179.396522 
L 96.487878 92.559445 
L 96.55716 100.604348 
L 96.972851 214.848358 
L 97.111414 218.649469 
L 97.180696 218.309621 
L 97.249978 218.866083 
L 97.388541 221.29631 
L 97.665669 219.406107 
L 97.873514 217.839234 
L 97.942796 217.973223 
L 98.012078 217.628357 
L 98.150641 214.787764 
L 98.219923 214.836643 
L 98.289205 214.734476 
L 98.358487 214.822002 
L 98.566332 211.336068 
L 98.635614 211.711877 
L 99.466996 201.597081 
L 99.605559 199.729926 
L 99.951968 194.96132 
L 100.506223 186.846336 
L 100.78335 183.48813 
L 101.129759 189.406674 
L 101.822577 204.102802 
L 102.099704 205.688807 
L 102.168986 205.41306 
L 102.238268 205.531795 
L 102.376832 206.432239 
L 102.446113 206.321676 
L 102.723241 204.894484 
L 103.000368 206.621261 
L 103.208213 204.20612 
L 103.277495 204.361981 
L 103.346777 204.594745 
L 103.554622 205.876351 
L 103.693186 205.408287 
L 103.762468 205.458883 
L 103.83175 205.549787 
L 103.970313 206.333787 
L 104.24744 204.543952 
L 104.455286 206.51266 
L 104.524568 206.256596 
L 104.593849 206.607837 
L 104.663131 205.946488 
L 104.732413 205.995793 
L 104.940258 207.681421 
L 105.00954 207.628935 
L 105.078822 207.03102 
L 105.148104 207.191552 
L 105.217386 207.316744 
L 105.286667 206.928997 
L 105.355949 207.048456 
L 105.494513 208.108116 
L 105.563795 207.885364 
L 105.77164 208.62505 
L 105.910204 208.025832 
L 106.048767 208.10975 
L 106.118049 207.886287 
L 106.256613 208.623419 
L 106.325895 207.918819 
L 106.464458 209.069636 
L 106.53374 208.783602 
L 106.672304 208.978499 
L 106.880149 205.219398 
L 106.949431 205.157209 
L 107.087994 203.644447 
L 107.434403 197.538399 
L 107.572967 198.995837 
L 107.780812 201.467841 
L 107.850094 200.720589 
L 107.919376 201.38345 
L 108.265785 211.349889 
L 108.404349 210.391783 
L 108.542912 213.059431 
L 108.612194 212.491914 
L 108.750758 211.39075 
L 108.958603 214.546438 
L 109.097167 211.879763 
L 109.166449 212.927061 
L 109.374294 220.5025 
L 109.512858 226.562003 
L 109.582139 224.299151 
L 109.720703 199.435706 
L 109.99783 62.944157 
L 110.067112 70.056834 
L 110.552085 204.74021 
L 110.898494 208.778945 
L 110.967776 207.890009 
L 111.037057 208.038485 
L 111.106339 209.384473 
L 111.175621 209.363468 
L 111.244903 209.155265 
L 111.383466 208.268549 
L 111.52203 209.577079 
L 111.729875 206.461217 
L 111.799157 206.678885 
L 111.937721 206.415571 
L 112.076284 205.837537 
L 112.145566 205.659662 
L 112.422694 202.826229 
L 112.491975 202.67299 
L 112.907666 197.63437 
L 112.976948 197.88347 
L 113.184793 194.724057 
L 113.739048 184.745969 
L 114.293302 178.272841 
L 114.362584 178.644088 
L 114.501148 180.573981 
L 114.778275 190.846367 
L 115.193966 204.397942 
L 115.678938 208.342125 
L 115.74822 208.468424 
L 115.817502 208.106211 
L 115.886784 208.613191 
L 115.956066 208.437214 
L 116.094629 208.782871 
L 116.233193 207.666385 
L 116.302475 208.212777 
L 116.441038 208.154021 
L 116.51032 207.406495 
L 116.648884 208.164312 
L 116.718166 207.028334 
L 116.787447 207.205304 
L 116.995293 208.693659 
L 117.133856 208.779076 
L 117.341702 207.324821 
L 117.480265 208.588482 
L 117.688111 207.422929 
L 117.826674 207.580963 
L 117.965238 208.137408 
L 118.03452 207.914035 
L 118.103802 206.86603 
L 118.173083 207.236934 
L 118.242365 207.974262 
L 118.311647 207.89648 
L 118.450211 208.051233 
L 118.519492 207.480054 
L 118.588774 207.567581 
L 118.727338 208.512931 
L 118.79662 207.992731 
L 118.865902 208.477749 
L 118.935183 208.190681 
L 119.004465 207.628012 
L 119.073747 208.047788 
L 119.143029 208.016113 
L 119.212311 207.908927 
L 119.281592 208.148188 
L 119.350874 207.946513 
L 119.420156 208.174041 
L 119.489438 207.741402 
L 119.55872 208.105111 
L 119.697283 207.277968 
L 119.766565 208.244719 
L 119.835847 207.834102 
L 120.459383 198.565217 
L 120.667228 196.229709 
L 121.013638 200.326523 
L 121.152201 202.549137 
L 121.429328 210.221942 
L 121.49861 209.406008 
L 121.567892 209.331185 
L 121.706456 210.253859 
L 121.775737 211.100649 
L 121.845019 210.717473 
L 121.914301 209.763979 
L 121.983583 210.008574 
L 122.122146 211.775413 
L 122.191428 211.499466 
L 122.26071 210.039874 
L 122.329992 210.228472 
L 122.468555 213.417805 
L 122.676401 223.624242 
L 122.745683 222.447682 
L 122.884246 202.698406 
L 123.161374 90.364394 
L 123.299937 111.153448 
L 123.577064 204.235035 
L 123.646346 203.380443 
L 124.131319 206.944392 
L 124.339164 207.419133 
L 124.408446 207.357536 
L 124.54701 206.27161 
L 124.616291 206.427948 
L 124.754855 207.1665 
L 124.893419 204.5669 
L 124.962701 205.590473 
L 125.031982 205.494278 
L 125.101264 205.223976 
L 125.30911 203.796422 
L 125.378391 203.813739 
L 126.071209 197.653248 
L 126.140491 197.511695 
L 126.4869 192.847851 
L 126.694746 190.207521 
L 126.971873 186.17583 
L 127.456846 181.60577 
L 127.595409 181.966242 
L 128.634636 206.543198 
L 128.842482 208.411007 
L 128.911763 208.545328 
L 129.050327 207.446949 
L 129.119609 207.500877 
L 129.258173 208.142605 
L 129.327454 207.849977 
L 129.396736 208.141141 
L 129.673863 207.24199 
L 129.812427 207.669299 
L 129.881709 207.145755 
L 130.089554 207.932812 
L 130.158836 207.957686 
L 130.228118 207.151856 
L 130.2974 207.516483 
L 130.366681 207.304835 
L 130.505245 207.506429 
L 130.574527 207.366329 
L 130.643809 207.498805 
L 130.71309 207.405284 
L 130.851654 206.866855 
L 130.920936 207.01329 
L 131.059499 207.964625 
L 131.128781 207.458386 
L 131.198063 207.612384 
L 131.544472 208.566853 
L 131.613754 208.304362 
L 131.683036 209.18605 
L 131.752318 207.940826 
L 131.821599 208.386163 
L 132.029445 208.746334 
L 132.098727 208.371746 
L 132.23729 209.22816 
L 132.306572 209.079754 
L 132.514417 208.44019 
L 132.583699 209.057914 
L 132.652981 208.838422 
L 132.722263 208.542101 
L 132.860826 209.104407 
L 132.930108 208.760246 
L 133.068672 209.093914 
L 133.137954 208.791421 
L 133.276517 210.036933 
L 133.345799 209.542672 
L 133.415081 209.743551 
L 133.484363 209.53695 
L 133.553645 209.86726 
L 133.622926 209.827612 
L 133.692208 209.633972 
L 133.76149 210.124908 
L 133.900054 207.878466 
L 134.038617 206.041044 
L 134.107899 206.679873 
L 134.246463 205.068256 
L 134.52359 198.634619 
L 134.592872 198.232339 
L 134.869999 202.159588 
L 134.939281 201.910701 
L 135.216408 204.695215 
L 135.493535 212.256203 
L 135.562817 212.174391 
L 135.701381 213.913966 
L 135.770662 213.580535 
L 135.839944 212.499292 
L 135.909226 212.903214 
L 136.04779 214.41514 
L 136.117071 214.243353 
L 136.255635 212.603337 
L 136.532762 221.861705 
L 136.671326 229.317261 
L 136.740608 226.148958 
L 136.879171 200.531431 
L 137.156298 63.062031 
L 137.22558 65.375122 
L 137.433426 159.403752 
L 137.571989 197.169413 
L 137.849117 204.772273 
L 138.126244 209.402948 
L 138.195526 209.340957 
L 138.334089 210.851498 
L 138.403371 210.510712 
L 138.541935 209.130329 
L 138.611216 209.444446 
L 138.680498 210.019948 
L 138.888344 207.651611 
L 138.957625 207.969741 
L 139.234753 204.983774 
L 139.304034 205.24951 
L 139.373316 205.61152 
L 139.858289 200.858549 
L 139.927571 200.787441 
L 139.996853 200.526272 
L 140.204698 198.32742 
L 141.382489 181.522612 
L 141.45177 181.498627 
L 141.659616 183.705466 
L 142.075307 196.328894 
L 142.421716 206.548479 
L 142.560279 207.127447 
L 142.629561 207.123006 
L 142.768125 208.053694 
L 142.837407 207.854048 
L 142.906688 207.937164 
L 142.97597 207.711948 
L 143.045252 207.797991 
L 143.114534 208.100878 
L 143.253097 207.766618 
L 143.391661 208.343598 
L 143.460943 208.238431 
L 143.530225 207.726006 
L 143.599506 207.807073 
L 143.668788 207.797672 
L 143.73807 207.550769 
L 143.876634 207.983703 
L 143.945915 207.658654 
L 144.015197 207.811234 
L 144.084479 207.644433 
L 144.223043 206.960045 
L 144.292325 207.795748 
L 144.361606 207.457527 
L 144.430888 207.508819 
L 144.50017 207.377354 
L 144.638734 208.158514 
L 144.708015 207.898559 
L 144.777297 207.195316 
L 144.846579 207.944457 
L 144.915861 207.578318 
L 144.985143 207.795225 
L 145.054424 207.701967 
L 145.123706 207.651218 
L 145.192988 207.827032 
L 145.26227 207.378588 
L 145.331552 207.461573 
L 145.400833 207.362367 
L 145.677961 208.875252 
L 145.816524 208.17067 
L 145.885806 208.508103 
L 146.02437 207.814314 
L 146.093651 208.028491 
L 146.162933 208.754401 
L 146.232215 208.453035 
L 146.301497 208.341334 
L 146.370779 208.392112 
L 146.440061 208.780968 
L 146.509342 208.200808 
L 146.578624 209.274813 
L 146.647906 208.762458 
L 146.717188 208.475987 
L 146.925033 209.121967 
L 147.063597 208.734542 
L 147.132879 208.768292 
L 147.20216 208.744304 
L 147.271442 209.037835 
L 147.340724 208.746948 
L 147.479288 209.651645 
L 147.617851 208.667749 
L 147.756415 209.31805 
L 147.96426 206.383806 
L 148.033542 206.31013 
L 148.102824 205.921597 
L 148.449233 198.45971 
L 148.518515 197.987757 
L 148.587797 198.375587 
L 148.795642 201.167084 
L 149.003487 202.551716 
L 149.349896 211.701293 
L 149.48846 211.000077 
L 149.696305 211.684773 
L 149.765587 211.397544 
L 149.834869 211.207756 
L 149.973433 213.301826 
L 150.042714 212.920751 
L 150.181278 211.315736 
L 150.389124 216.348093 
L 150.596969 225.333252 
L 150.666251 222.604651 
L 150.804814 196.17141 
L 151.081942 71.721228 
L 151.151223 82.220324 
L 151.566914 205.078394 
L 151.636196 204.393305 
L 151.705478 204.773281 
L 151.982605 207.74367 
L 152.051887 207.613334 
L 152.121169 208.022071 
L 152.19045 207.982691 
L 152.259732 208.026613 
L 152.329014 208.486413 
L 152.398296 207.003151 
L 152.467578 207.483997 
L 152.53686 208.006157 
L 152.606141 207.800004 
L 152.813987 205.937275 
L 152.883269 205.985072 
L 152.95255 206.292254 
L 153.160396 204.268191 
L 153.229678 204.838621 
L 153.298959 204.625551 
L 153.576087 201.113924 
L 153.71465 200.097753 
L 154.061059 196.026117 
L 154.130341 196.172732 
L 154.407468 191.338098 
L 154.546032 189.13243 
L 155.169568 179.70086 
L 155.23885 179.407374 
L 155.377414 177.667869 
L 155.446695 177.778485 
L 155.515977 178.398096 
L 155.862386 190.542985 
L 156.208795 202.247635 
L 156.555204 207.25599 
L 156.624486 206.961187 
L 156.832332 208.07612 
L 156.901613 208.122998 
L 157.040177 207.94453 
L 157.317304 208.620967 
L 157.455868 207.535561 
L 157.52515 207.873695 
L 157.594431 207.937952 
L 157.732995 207.6058 
L 157.94084 208.292446 
L 158.010122 208.244238 
L 158.079404 208.226422 
L 158.287249 207.062839 
L 158.356531 207.201851 
L 158.425813 207.634737 
L 158.495095 207.539979 
L 158.564377 207.564212 
L 158.70294 208.531363 
L 158.772222 207.888231 
L 158.841504 208.455559 
L 158.980068 207.884908 
L 159.187913 208.594275 
L 159.257195 208.53033 
L 159.395758 208.730177 
L 159.46504 208.520211 
L 159.603604 209.33045 
L 159.672886 209.188993 
L 159.811449 208.4823 
L 159.880731 209.285272 
L 159.950013 209.258657 
L 160.157858 208.159196 
L 160.22714 209.298897 
L 160.296422 209.184852 
L 160.365704 209.048249 
L 160.573549 209.534756 
L 160.642831 208.855148 
L 160.781394 210.24122 
L 160.850676 209.800747 
L 160.98924 209.885202 
L 161.058522 209.706907 
L 161.127804 209.75726 
L 161.75134 200.054142 
L 161.889903 198.415045 
L 161.959185 198.419356 
L 162.236312 202.10736 
L 162.374876 202.182289 
L 162.582721 206.678367 
L 162.790567 211.336932 
L 162.859849 210.902256 
L 163.136976 212.563028 
L 163.27554 211.370349 
L 163.483385 212.697951 
L 163.621949 211.18708 
L 163.899076 221.131356 
L 164.037639 227.143504 
L 164.176203 210.742044 
L 164.314767 156.739325 
L 164.522612 76.270565 
L 164.661176 113.874339 
L 164.938303 200.175137 
L 165.631121 209.403355 
L 165.700403 209.907853 
L 165.97753 207.535103 
L 166.116094 207.5843 
L 166.185375 206.258511 
L 166.254657 206.45094 
L 166.323939 206.919164 
L 166.462503 205.887182 
L 166.601066 204.431549 
L 166.670348 204.860096 
L 166.947475 202.528117 
L 167.016757 202.586994 
L 167.086039 200.072168 
L 167.155321 200.594572 
L 167.432448 197.35934 
L 167.50173 197.453941 
L 168.333111 186.370818 
L 168.67952 182.268696 
L 168.748802 182.531917 
L 168.818084 181.816297 
L 169.095211 186.990733 
L 169.649466 203.611067 
L 169.857311 206.521398 
L 170.273002 208.650453 
L 170.411566 208.498707 
L 170.550129 208.385765 
L 170.619411 208.609969 
L 170.688693 207.858614 
L 170.757975 207.980038 
L 170.827256 208.377682 
L 170.896538 208.272325 
L 170.96582 208.241039 
L 171.035102 207.4612 
L 171.104384 207.695149 
L 171.173665 207.796438 
L 171.242947 207.697827 
L 171.312229 207.775834 
L 171.381511 208.349204 
L 171.450793 208.185612 
L 171.520074 207.000336 
L 171.589356 207.176964 
L 171.658638 207.579115 
L 171.72792 207.272622 
L 171.797202 207.397393 
L 171.866484 207.435246 
L 171.935765 207.219362 
L 172.005047 207.637399 
L 172.143611 207.296263 
L 172.212893 208.193348 
L 172.351456 207.167713 
L 172.420738 207.571334 
L 172.49002 207.23619 
L 172.559302 207.315359 
L 172.628583 207.131322 
L 172.836429 207.986497 
L 172.974992 208.163776 
L 173.044274 208.577471 
L 173.113556 208.292205 
L 173.25212 208.776629 
L 173.390683 208.004897 
L 173.66781 209.238572 
L 173.806374 208.970068 
L 173.875656 208.704273 
L 173.944938 208.758513 
L 174.083501 209.24179 
L 174.222065 209.209244 
L 174.360629 209.511526 
L 174.499192 209.050009 
L 174.568474 208.496252 
L 174.637756 208.561903 
L 174.707038 209.20583 
L 174.776319 209.15534 
L 174.914883 209.440764 
L 175.053447 209.778626 
L 175.122728 209.735874 
L 175.261292 209.338121 
L 175.330574 209.408709 
L 175.538419 209.01514 
L 175.607701 208.72798 
L 175.746265 205.489982 
L 175.815547 205.792447 
L 175.95411 205.382961 
L 176.092674 201.766696 
L 176.300519 197.894396 
L 176.369801 196.91681 
L 176.71621 201.414655 
L 176.785492 201.266055 
L 177.201183 211.768572 
L 177.270464 211.495525 
L 177.339746 211.277088 
L 177.47831 212.766919 
L 177.547592 212.522989 
L 177.686155 210.997553 
L 177.824719 213.742065 
L 177.963283 212.029598 
L 178.101846 212.453304 
L 178.24041 216.48411 
L 178.448255 228.44485 
L 178.586819 213.882197 
L 178.725382 158.557203 
L 178.933228 58.213049 
L 179.071791 95.405013 
L 179.348919 200.990641 
L 179.556764 204.635774 
L 180.041737 209.021566 
L 180.111019 209.686146 
L 180.249582 208.714062 
L 180.457428 209.36219 
L 180.665273 206.889098 
L 180.734555 207.148471 
L 180.803837 207.538652 
L 180.9424 205.149849 
L 181.011682 205.212883 
L 181.080964 205.233664 
L 181.427373 202.335308 
L 181.981627 197.039809 
L 182.050909 196.500042 
L 182.605164 186.834375 
L 182.743727 185.192645 
L 183.090136 179.292433 
L 183.159418 178.431732 
L 183.2287 178.830422 
L 183.367263 178.880116 
L 183.505827 182.245064 
L 184.060081 202.138487 
L 184.267927 206.370232 
L 184.614336 208.941384 
L 184.683618 208.733689 
L 184.7529 207.738569 
L 184.822181 208.137566 
L 184.891463 207.993595 
L 185.099309 208.774184 
L 185.16859 208.551549 
L 185.307154 207.820039 
L 185.514999 208.685958 
L 185.653563 207.799654 
L 185.722845 207.857859 
L 185.792127 207.882257 
L 185.861408 207.777461 
L 185.999972 208.188773 
L 186.069254 207.921621 
L 186.207817 208.448787 
L 186.277099 207.75691 
L 186.415663 208.71512 
L 186.623508 207.344255 
L 186.762072 208.655182 
L 186.831354 208.252899 
L 186.969917 209.058551 
L 187.039199 208.807792 
L 187.177763 208.430209 
L 187.247045 208.769061 
L 187.316326 208.584546 
L 187.45489 207.909743 
L 187.593454 209.082618 
L 187.732017 208.950509 
L 187.870581 208.276858 
L 187.939863 208.354134 
L 188.009144 208.57938 
L 188.078426 208.47782 
L 188.147708 208.629407 
L 188.21699 208.379895 
L 188.355553 208.97827 
L 188.494117 208.344758 
L 188.632681 208.764572 
L 188.771244 208.565396 
L 188.909808 208.929331 
L 189.048372 208.459745 
L 189.117653 209.006264 
L 189.186935 208.825504 
L 189.671908 202.545905 
L 189.949035 197.739114 
L 190.018317 197.069627 
L 190.364726 200.495719 
L 190.434008 200.430179 
L 190.780417 211.149656 
L 190.91898 209.830733 
L 190.988262 209.931694 
L 191.126826 211.360938 
L 191.265389 210.301089 
L 191.334671 210.809681 
L 191.473235 212.376381 
L 191.542517 212.026712 
L 191.611798 210.901559 
L 191.68108 211.012837 
L 191.819644 213.966267 
L 192.027489 223.856711 
L 192.096771 223.100303 
L 192.235335 203.949416 
L 192.512462 85.315342 
L 192.651025 106.058612 
L 192.928153 204.747179 
L 192.997435 204.646227 
L 193.135998 204.312868 
L 193.413125 206.596207 
L 193.620971 207.433636 
L 193.690253 207.478537 
L 193.759534 207.867787 
L 193.898098 206.243514 
L 193.96738 206.471417 
L 194.036662 207.508176 
L 194.105943 206.902051 
L 194.244507 204.957205 
L 194.313789 205.183359 
L 194.383071 205.197947 
L 194.452352 205.394107 
L 194.590916 203.278091 
L 194.660198 203.68915 
L 194.72948 203.838116 
L 195.422298 196.682325 
L 195.699425 193.533984 
L 195.976552 189.647868 
L 196.738652 179.469915 
L 197.015779 181.879538 
L 197.777879 205.034502 
L 198.124288 208.038773 
L 198.19357 208.593658 
L 198.262852 208.384235 
L 198.332134 208.022044 
L 198.401415 208.061723 
L 198.609261 209.107499 
L 198.747824 208.073669 
L 198.886388 208.152537 
L 198.95567 208.325455 
L 199.024952 208.272994 
L 199.302079 207.348498 
L 199.371361 207.544578 
L 199.440643 208.026664 
L 199.579206 207.128757 
L 199.648488 207.979219 
L 199.71777 207.625846 
L 199.787052 207.341042 
L 199.856333 207.884709 
L 199.925615 207.030664 
L 199.994897 207.197909 
L 200.133461 207.969055 
L 200.272024 206.957013 
L 200.47987 207.336703 
L 200.618433 208.355384 
L 200.687715 208.306765 
L 200.756997 208.338176 
L 200.89556 208.035636 
L 201.034124 209.529615 
L 201.103406 209.112832 
L 201.172688 208.9085 
L 201.24197 209.151815 
L 201.311251 208.947587 
L 201.519097 209.652728 
L 201.65766 209.92226 
L 201.796224 208.705936 
L 201.934788 210.22611 
L 202.004069 210.104181 
L 202.142633 209.330905 
L 202.41976 210.079857 
L 202.558324 210.372222 
L 202.696887 209.98266 
L 202.835451 210.436483 
L 202.904733 210.442294 
L 203.043296 209.486188 
L 203.112578 209.786375 
L 203.251142 208.283247 
L 203.389706 205.626378 
L 203.458987 205.955301 
L 203.666833 203.426925 
L 203.874678 198.46243 
L 203.94396 198.053526 
L 204.013242 198.654925 
L 204.221087 202.516407 
L 204.290369 201.776238 
L 204.498214 203.674652 
L 204.913905 213.105055 
L 205.052469 213.661948 
L 205.260314 211.974728 
L 205.46816 214.638689 
L 205.606723 213.246708 
L 205.745287 215.461933 
L 206.022414 231.159357 
L 206.091696 229.829478 
L 206.23026 208.4475 
L 206.438105 96.643864 
L 206.576669 55.297909 
L 206.715232 102.62331 
L 206.992359 199.958381 
L 207.200205 204.368196 
L 207.615896 209.275738 
L 207.685178 209.194906 
L 207.823741 209.895869 
L 207.962305 208.348404 
L 208.100868 209.075602 
L 208.239432 207.520197 
L 208.377996 208.847976 
L 208.655123 205.636087 
L 208.724405 205.726211 
L 209.69435 196.100632 
L 209.902195 192.711672 
L 210.040759 191.275272 
L 210.525732 183.678153 
L 210.802859 180.74748 
L 210.872141 180.876961 
L 211.010704 182.380608 
L 211.21855 188.60026 
L 211.703522 204.222326 
L 211.98065 207.565506 
L 212.257777 209.899657 
L 212.534904 207.829916 
L 212.812031 208.849669 
L 212.881313 208.536756 
L 213.019877 208.252271 
L 213.089158 208.290344 
L 213.15844 208.37589 
L 213.227722 207.735187 
L 213.435567 208.53565 
L 213.504849 208.676258 
L 213.643413 208.181943 
L 213.712695 208.267078 
L 213.781976 208.540686 
L 213.92054 208.012374 
L 213.989822 208.631785 
L 214.059104 208.223842 
L 214.128386 208.824152 
L 214.266949 208.189069 
L 214.336231 208.407759 
L 214.405513 208.307688 
L 214.474795 208.132905 
L 214.544076 208.693042 
L 214.613358 208.543843 
L 214.68264 208.620349 
L 214.751922 208.920002 
L 214.821204 208.21592 
L 214.890485 208.411821 
L 214.959767 209.781415 
L 215.029049 209.064862 
L 215.098331 209.171863 
L 215.167613 208.89988 
L 215.306176 209.509018 
L 215.514022 208.695934 
L 215.583303 209.156202 
L 215.652585 209.013517 
L 215.721867 209.132781 
L 215.791149 208.899906 
L 215.860431 208.928783 
L 215.929712 209.314299 
L 215.998994 208.897459 
L 216.068276 209.028351 
L 216.276122 209.823128 
L 216.345403 209.323896 
L 216.414685 209.385736 
L 216.483967 209.591544 
L 217.038221 203.235423 
L 217.315349 197.465515 
L 217.38463 197.537343 
L 217.592476 201.070601 
L 217.661758 200.477329 
L 217.869603 202.993708 
L 218.14673 211.684359 
L 218.285294 210.755941 
L 218.493139 213.17459 
L 218.631703 211.264172 
L 218.700985 211.673544 
L 218.839548 213.539261 
L 218.978112 211.275935 
L 219.047394 211.40282 
L 219.393803 225.293473 
L 219.463085 223.726094 
L 219.601648 200.876473 
L 219.878775 70.735907 
L 219.948057 76.395765 
L 220.363748 204.880845 
L 220.43303 204.635831 
L 220.502312 205.027101 
L 220.710157 207.132749 
L 220.848721 207.731363 
L 220.918003 207.707798 
L 221.056566 208.83104 
L 221.264412 207.292703 
L 221.333693 207.750755 
L 221.541539 206.418198 
L 221.610821 205.669648 
L 221.680102 206.246496 
L 221.749384 206.052978 
L 222.095793 203.581275 
L 222.165075 203.516205 
L 222.37292 200.92454 
L 222.511484 199.761506 
L 222.927175 195.423445 
L 223.065739 193.458206 
L 223.550711 186.04971 
L 224.035684 180.123432 
L 224.174247 179.255935 
L 224.243529 179.282391 
L 224.312811 180.086597 
L 225.282756 206.980354 
L 225.352038 207.180371 
L 225.559884 208.099848 
L 225.698447 208.086967 
L 225.906293 207.225819 
L 225.975574 208.111321 
L 226.044856 208.04715 
L 226.114138 208.225055 
L 226.18342 208.176887 
L 226.252702 208.063861 
L 226.321983 208.236071 
L 226.391265 207.319393 
L 226.460547 207.34353 
L 226.529829 207.318972 
L 226.599111 207.643022 
L 226.668393 207.602684 
L 226.737674 207.47866 
L 226.806956 207.845016 
L 226.94552 207.260079 
L 227.014802 207.415447 
L 227.084083 207.515376 
L 227.153365 208.549903 
L 227.222647 208.111659 
L 227.291929 207.675309 
L 227.361211 207.822568 
L 227.430492 207.595444 
L 227.638338 208.485852 
L 227.776901 208.117056 
L 227.915465 208.448125 
L 227.984747 208.520151 
L 228.12331 208.418706 
L 228.192592 209.00825 
L 228.261874 208.743997 
L 228.331156 208.687633 
L 228.469719 209.358992 
L 228.608283 208.974256 
L 228.746847 210.256155 
L 228.816129 209.586061 
L 228.954692 208.658138 
L 229.093256 209.806844 
L 229.231819 209.48157 
L 229.301101 209.643217 
L 229.370383 209.843995 
L 229.439665 209.805543 
L 229.508947 209.146671 
L 229.578228 209.536442 
L 229.786074 208.598737 
L 229.855356 208.543471 
L 229.924637 208.983516 
L 230.40961 203.688663 
L 230.756019 197.345545 
L 231.033146 201.835361 
L 231.17171 201.227575 
L 231.310274 203.170601 
L 231.448837 207.761419 
L 231.587401 210.930565 
L 231.656683 211.073285 
L 231.795246 210.698243 
L 231.93381 212.145534 
L 232.072373 211.303137 
L 232.210937 213.782616 
L 232.280219 213.38412 
L 232.418782 211.6131 
L 232.626628 215.990418 
L 232.834473 228.741767 
L 232.903755 226.514371 
L 233.042319 203.089935 
L 233.319446 69.727962 
L 233.388728 72.460069 
L 233.596573 160.851731 
L 233.735137 198.81036 
L 234.150828 208.840239 
L 234.358673 210.191171 
L 234.427955 210.158629 
L 234.566518 211.285226 
L 234.705082 209.968305 
L 234.774364 210.065853 
L 234.843646 210.046763 
L 235.605746 205.613168 
L 235.813591 203.678242 
L 236.090718 201.004305 
L 236.367845 197.438986 
L 236.506409 196.002673 
L 237.060663 188.093254 
L 237.407073 183.693535 
L 237.614918 181.509132 
L 237.753482 183.550458 
L 238.030609 192.212234 
L 238.584863 207.51571 
L 238.723427 208.340545 
L 238.792709 208.25406 
L 238.86199 208.473618 
L 238.931272 209.583134 
L 239.000554 209.275645 
L 239.069836 208.61508 
L 239.139118 208.915119 
L 239.208399 208.925017 
L 239.416245 209.590722 
L 239.485527 209.913609 
L 239.762654 208.812954 
L 239.831936 209.400522 
L 239.970499 208.667266 
L 240.039781 208.601449 
L 240.178345 208.890515 
L 240.247627 208.551884 
L 240.316908 209.089191 
L 240.455472 208.181318 
L 240.524754 208.600176 
L 240.594036 208.421899 
L 240.732599 207.832407 
L 240.871163 208.770628 
L 240.940445 208.284931 
L 241.009726 208.735705 
L 241.079008 208.245054 
L 241.14829 208.38706 
L 241.425417 207.827317 
L 241.494699 208.61873 
L 241.563981 208.4599 
L 241.633263 208.188507 
L 241.771826 208.742405 
L 241.841108 208.473483 
L 242.048954 209.451283 
L 242.118235 209.765069 
L 242.256799 208.637413 
L 242.326081 209.100557 
L 242.395363 209.725999 
L 242.533926 208.44357 
L 242.603208 208.710501 
L 242.880335 209.826273 
L 242.949617 209.731256 
L 243.018899 208.892861 
L 243.088181 209.245116 
L 243.226744 208.533886 
L 243.43459 209.693751 
L 243.503871 209.095006 
L 243.573153 209.648852 
L 243.642435 209.028002 
L 243.850281 206.303262 
L 243.919562 206.586038 
L 243.988844 206.01981 
L 244.404535 198.243011 
L 244.543099 199.713128 
L 244.681662 200.870728 
L 244.820226 200.823149 
L 244.889508 201.428317 
L 245.235917 211.460921 
L 245.37448 210.343857 
L 245.582326 212.956829 
L 245.720889 210.70272 
L 245.928735 213.981122 
L 246.067298 211.87461 
L 246.13658 212.494316 
L 246.344426 220.205693 
L 246.482989 227.289275 
L 246.552271 224.198323 
L 246.690835 199.110658 
L 246.967962 62.301976 
L 247.037244 71.122993 
L 247.452934 203.04076 
L 247.66078 206.105636 
L 247.868625 208.430604 
L 247.937907 209.10684 
L 248.007189 208.606619 
L 248.145753 209.02547 
L 248.215034 208.911369 
L 248.353598 208.008424 
L 248.492162 209.106521 
L 248.630725 207.637631 
L 248.700007 206.936931 
L 248.769289 207.749263 
L 248.838571 207.653575 
L 249.046416 205.098029 
L 249.18498 204.468786 
L 249.531389 201.087746 
L 249.60067 200.922416 
L 249.94708 197.129479 
L 250.016361 196.658613 
L 250.986307 180.500278 
L 251.055588 180.212453 
L 251.263434 178.349888 
L 251.401997 178.70597 
L 251.679125 188.872643 
L 252.094816 203.626577 
L 252.302661 206.392225 
L 252.579788 209.175928 
L 252.718352 208.760009 
L 252.787634 208.955635 
L 252.856915 208.456761 
L 252.926197 208.606155 
L 253.064761 209.173991 
L 253.134043 209.151214 
L 253.341888 208.197163 
L 253.41117 208.694595 
L 253.480452 208.541813 
L 253.549733 208.449146 
L 253.619015 208.778084 
L 253.688297 208.594846 
L 253.826861 207.387076 
L 253.896142 208.036588 
L 253.965424 207.985786 
L 254.17327 208.945411 
L 254.450397 207.435233 
L 254.519679 208.427503 
L 254.588961 207.964578 
L 254.727524 208.729161 
L 254.796806 208.416202 
L 254.866088 208.959807 
L 255.004651 207.889036 
L 255.073933 208.314206 
L 255.143215 208.21245 
L 255.35106 209.172098 
L 255.489624 208.92403 
L 255.558906 209.109723 
L 255.628188 208.693516 
L 255.697469 209.021336 
L 255.766751 208.998371 
L 255.836033 208.378278 
L 255.905315 208.683343 
L 256.043878 208.46464 
L 256.182442 208.551297 
L 256.390288 209.588664 
L 256.459569 209.459156 
L 256.528851 208.811639 
L 256.598133 209.192086 
L 256.667415 208.646637 
L 256.736697 208.721824 
L 256.805978 208.857998 
L 257.221669 204.773738 
L 257.568078 197.647632 
L 257.63736 197.82612 
L 257.706642 198.087212 
L 257.914487 200.781291 
L 257.983769 200.945836 
L 258.122333 202.549298 
L 258.468742 211.690762 
L 258.607305 210.312367 
L 258.745869 211.395562 
L 258.815151 211.373775 
L 258.884433 210.458836 
L 259.092278 212.782239 
L 259.16156 212.087279 
L 259.300123 210.331722 
L 259.507969 216.390473 
L 259.715814 224.814783 
L 259.854378 205.153992 
L 260.062223 111.810125 
L 260.200787 86.117929 
L 260.408632 167.262302 
L 260.547196 204.112263 
L 260.68576 204.116464 
L 260.824323 204.768473 
L 261.10145 208.13787 
L 261.240014 207.829105 
L 261.309296 208.250944 
L 261.378578 207.848398 
L 261.517141 206.472497 
L 261.655705 206.990738 
L 261.724987 206.963513 
L 261.794268 206.827017 
L 261.932832 205.350416 
L 262.002114 205.978191 
L 262.140677 203.94785 
L 262.209959 202.908533 
L 262.279241 203.041588 
L 262.417805 202.277645 
L 263.664877 188.622381 
L 263.872723 185.855497 
L 264.357695 180.077474 
L 264.496259 179.963798 
L 264.634822 181.969724 
L 265.535486 206.689206 
L 265.812613 208.025461 
L 265.881895 207.807639 
L 265.951177 208.30589 
L 266.020459 207.915622 
L 266.08974 208.503017 
L 266.159022 208.265669 
L 266.297586 208.232318 
L 266.366868 208.723662 
L 266.436149 208.669613 
L 266.574713 208.253723 
L 266.643995 208.423673 
L 266.782558 208.658431 
L 266.921122 208.180228 
L 266.990404 208.476682 
L 267.406095 206.697976 
L 267.544658 207.358452 
L 267.61394 207.336408 
L 267.683222 207.444817 
L 267.752504 206.702894 
L 267.821786 206.798746 
L 267.891067 206.923494 
L 267.960349 207.475321 
L 268.029631 207.242824 
L 268.098913 206.884347 
L 268.237476 207.547525 
L 268.306758 207.273315 
L 268.514604 208.487165 
L 268.583885 208.41659 
L 268.791731 209.385451 
L 268.930294 209.632831 
L 268.999576 209.362591 
L 269.207422 210.180706 
L 269.276704 209.995729 
L 269.415267 208.972146 
L 269.484549 209.089495 
L 269.553831 209.372005 
L 269.623113 208.599231 
L 269.761676 209.931476 
L 269.830958 209.205041 
L 269.90024 209.846339 
L 269.969522 209.495183 
L 270.038803 209.569581 
L 270.108085 208.969186 
L 270.246649 210.310001 
L 270.454494 209.495669 
L 270.593058 208.869229 
L 270.731621 209.630238 
L 271.216594 204.032043 
L 271.493721 198.413137 
L 271.563003 198.067054 
L 271.84013 201.573932 
L 271.978694 202.377934 
L 272.186539 206.118252 
L 272.394385 212.397509 
L 272.463667 212.652935 
L 272.532948 212.122382 
L 272.60223 212.273897 
L 272.671512 213.25758 
L 272.740794 212.686432 
L 272.810076 212.065928 
L 272.879357 212.291814 
L 273.017921 214.476384 
L 273.156485 212.442168 
L 273.225766 212.718074 
L 273.295048 213.267245 
L 273.502894 222.981765 
L 273.641457 229.993365 
L 273.780021 214.06889 
L 273.918585 155.606284 
L 274.12643 55.878463 
L 274.195712 65.535031 
L 274.611403 201.383051 
L 274.819248 204.8426 
L 275.165657 209.250856 
L 275.304221 210.497731 
L 275.373503 210.13968 
L 275.512066 209.079072 
L 275.65063 209.39465 
L 275.789193 207.266699 
L 275.927757 208.482098 
L 275.997039 208.216772 
L 276.204884 205.576347 
L 276.274166 206.245709 
L 277.244111 196.136794 
L 277.451957 192.37368 
L 277.521239 192.394289 
L 277.867648 186.131049 
L 277.936929 185.934457 
L 278.283338 181.102077 
L 278.35262 180.257067 
L 278.421902 180.603231 
L 278.491184 180.700567 
L 278.837593 190.815213 
L 279.253284 204.602061 
L 279.530411 207.710495 
L 279.599693 207.720581 
L 279.807538 209.475725 
L 279.87682 209.186343 
L 280.015384 208.569423 
L 280.084665 208.784257 
L 280.153947 208.392975 
L 280.223229 208.608592 
L 280.292511 208.579722 
L 280.361793 209.131864 
L 280.431074 208.833537 
L 280.569638 208.432548 
L 280.708202 209.191792 
L 280.777483 208.768088 
L 280.846765 208.80396 
L 280.916047 208.64243 
L 281.054611 209.006253 
L 281.123892 209.011539 
L 281.193174 208.664319 
L 281.262456 209.227397 
L 281.331738 208.985104 
L 281.470301 207.89309 
L 281.608865 208.632916 
L 281.678147 208.52024 
L 281.816711 207.490274 
L 282.024556 208.269786 
L 282.16312 209.073249 
L 282.301683 208.185222 
L 282.509529 209.095886 
L 282.648092 208.52105 
L 282.717374 208.544124 
L 282.925219 208.995302 
L 282.994501 208.528659 
L 283.063783 209.033563 
L 283.133065 208.50455 
L 283.271628 209.237633 
L 283.34091 208.989243 
L 283.410192 208.325536 
L 283.479474 208.713459 
L 283.548756 209.63117 
L 283.687319 208.723827 
L 283.756601 208.757681 
L 283.825883 208.433123 
L 283.895165 208.513282 
L 283.964447 209.179148 
L 284.033728 208.617902 
L 284.10301 209.132588 
L 284.172292 208.850945 
L 284.241574 208.316697 
L 284.310856 208.542673 
L 284.449419 209.219867 
L 285.142237 197.664373 
L 285.280801 197.977598 
L 285.350083 198.219526 
L 285.557928 200.667771 
L 285.765773 203.86768 
L 285.904337 207.176629 
L 286.042901 210.103542 
L 286.112183 209.903914 
L 286.38931 211.571705 
L 286.527873 210.064203 
L 286.597155 210.727729 
L 286.735719 213.218323 
L 286.874282 210.858263 
L 287.012846 213.096679 
L 287.15141 218.018723 
L 287.289973 223.626333 
L 287.359255 221.819101 
L 287.497819 196.841397 
L 287.774946 72.092165 
L 287.844228 81.742915 
L 288.259919 204.588065 
L 288.3292 203.913294 
L 288.675609 206.68345 
L 288.744891 206.221743 
L 288.883455 207.92767 
L 288.952737 207.570788 
L 289.0913 206.747304 
L 289.229864 207.182788 
L 289.299146 207.141864 
L 289.506991 204.918023 
L 289.576273 205.218746 
L 289.645555 205.716687 
L 289.922682 203.096826 
L 289.991964 203.082778 
L 290.269091 200.200185 
L 290.338373 200.110085 
L 290.754064 195.571518 
L 291.793291 181.501527 
L 292.070418 180.027983 
L 292.278263 182.96398 
L 293.040363 206.008543 
L 293.248209 207.417894 
L 293.31749 207.517647 
L 293.456054 208.685893 
L 293.525336 208.121303 
L 293.594618 208.523665 
L 293.663899 207.871824 
L 293.733181 208.119241 
L 293.802463 208.599319 
L 293.871745 208.535701 
L 293.941027 208.728014 
L 294.010308 208.525668 
L 294.07959 208.755365 
L 294.218154 208.016728 
L 294.287436 208.407373 
L 294.425999 207.860293 
L 294.633845 208.467706 
L 294.703127 208.322188 
L 294.910972 207.630396 
L 295.049536 208.08217 
L 295.118817 207.819906 
L 295.188099 207.963319 
L 295.257381 207.797522 
L 295.395945 208.59899 
L 295.534508 208.117969 
L 295.950199 209.408548 
L 296.019481 208.776742 
L 296.435172 210.530994 
L 296.504453 210.469093 
L 296.573735 210.914688 
L 296.643017 210.575983 
L 296.712299 210.707097 
L 296.781581 210.626068 
L 296.850863 210.373532 
L 296.920144 211.344388 
L 296.989426 211.215497 
L 297.12799 210.778855 
L 297.266553 211.063674 
L 297.474399 210.621673 
L 297.543681 210.698905 
L 297.612962 210.578961 
L 297.682244 209.93005 
L 297.751526 210.56104 
L 297.820808 210.413165 
L 297.89009 210.204191 
L 297.959371 210.936091 
L 298.097935 210.460778 
L 298.167217 210.528375 
L 298.444344 209.809482 
L 298.721471 206.022542 
L 298.790753 206.21435 
L 298.929317 204.284813 
L 299.137162 198.450163 
L 299.206444 198.476071 
L 299.275726 197.687034 
L 299.483571 201.213041 
L 299.552853 201.200382 
L 299.691417 200.808602 
L 299.899262 204.038439 
L 300.107107 210.287352 
L 300.176389 210.242435 
L 300.245671 209.908842 
L 300.384235 210.584487 
L 300.59208 208.768511 
L 300.730644 211.999421 
L 300.938489 207.728742 
L 301.146335 212.24753 
L 301.35418 223.827146 
L 301.492744 207.729098 
L 301.631307 154.714027 
L 301.839153 59.283465 
L 301.908434 67.661775 
L 302.393407 195.347754 
L 302.531971 197.055225 
L 302.739816 202.256086 
L 302.809098 202.194053 
L 302.87838 201.847828 
L 303.086225 202.982434 
L 303.224789 202.200009 
L 303.363352 202.926394 
L 303.571198 201.871243 
L 303.709761 202.633036 
L 303.917607 201.204329 
L 304.05617 202.621098 
L 304.194734 201.752449 
L 304.333298 201.768742 
L 304.471861 200.35032 
L 304.541143 200.369134 
L 304.610425 200.403205 
L 304.956834 198.099052 
L 305.441807 192.038374 
L 305.58037 190.903607 
L 305.996061 185.886159 
L 306.134625 185.250286 
L 306.203906 185.326942 
L 306.273188 186.113909 
L 307.10457 211.198575 
L 307.173852 211.610106 
L 307.243134 212.882261 
L 307.312415 212.709682 
L 307.450979 214.077166 
L 307.520261 213.21709 
L 307.589543 213.285589 
L 307.658824 213.540855 
L 307.728106 213.200329 
L 307.797388 213.826553 
L 307.86667 213.801723 
L 307.935952 213.22516 
L 308.005233 213.234547 
L 308.074515 213.101855 
L 308.213079 212.3747 
L 308.282361 212.718745 
L 308.351642 212.670801 
L 308.420924 212.575868 
L 308.490206 212.702739 
L 308.559488 212.343785 
L 308.62877 212.414399 
L 308.767333 212.66865 
L 308.836615 212.652994 
L 308.905897 211.891614 
L 308.975179 212.031141 
L 309.04446 212.27687 
L 309.113742 211.719535 
L 309.183024 211.888251 
L 309.252306 211.904994 
L 309.529433 210.682385 
L 309.598715 210.794062 
L 309.667997 211.1586 
L 309.737279 210.932506 
L 309.80656 210.340768 
L 309.945124 211.256289 
L 310.152969 210.075922 
L 310.291533 209.260919 
L 310.430097 210.023104 
L 310.499378 209.736588 
L 310.56866 210.314046 
L 310.707224 209.837332 
L 310.776506 209.890807 
L 310.845787 209.425592 
L 310.915069 209.563611 
L 310.984351 209.662581 
L 311.053633 209.547177 
L 311.261478 210.09001 
L 311.400042 208.334945 
L 311.677169 210.275161 
L 311.954296 209.346589 
L 312.023578 209.419541 
L 312.09286 209.888561 
L 312.508551 207.340727 
L 312.647114 205.738387 
L 312.716396 206.196816 
L 312.924242 201.909187 
L 313.201369 197.474352 
L 313.339932 197.889688 
L 313.755623 202.500769 
L 314.032751 211.447033 
L 314.171314 209.645657 
L 314.240596 209.726043 
L 314.37916 211.375349 
L 314.517723 210.062889 
L 314.725569 212.927654 
L 314.864132 210.654333 
L 315.002696 212.694085 
L 315.279823 222.784085 
L 315.349105 221.653167 
L 315.487668 197.15376 
L 315.764796 67.294053 
L 315.834078 75.579982 
L 316.249768 203.711701 
L 316.31905 203.279672 
L 316.526896 205.801063 
L 316.596177 206.699369 
L 316.665459 206.58629 
L 316.804023 206.909473 
L 316.942586 208.083508 
L 317.08115 206.456646 
L 317.150432 206.892332 
L 317.219714 206.666874 
L 317.288995 206.760931 
L 317.496841 204.953085 
L 317.566123 205.055123 
L 317.635404 205.589253 
L 317.84325 202.757127 
L 317.912532 203.134637 
L 318.051095 202.017537 
L 318.813195 194.734566 
L 319.852422 180.115802 
L 320.060268 178.797749 
L 320.12955 178.79964 
L 320.337395 183.833335 
L 320.822368 201.439131 
L 321.30734 207.423371 
L 321.584467 208.369667 
L 321.653749 208.273704 
L 321.930876 207.478616 
L 322.138722 206.962349 
L 322.277286 207.927778 
L 322.485131 206.913223 
L 322.554413 206.874712 
L 322.623695 207.39144 
L 322.692976 207.173329 
L 322.762258 206.98142 
L 322.83154 207.322347 
L 322.900822 206.949589 
L 323.177949 208.271402 
L 323.316513 207.334285 
L 323.524358 208.403523 
L 323.59364 208.260972 
L 323.662922 208.457745 
L 323.732203 209.129432 
L 323.801485 208.968423 
L 323.870767 208.9847 
L 323.940049 209.245417 
L 324.009331 209.044544 
L 324.286458 210.130168 
L 324.494303 209.100425 
L 324.632867 209.329174 
L 324.702149 209.787393 
L 324.771431 209.547138 
L 324.840712 209.314068 
L 325.048558 210.190175 
L 325.11784 210.034504 
L 325.187121 209.108197 
L 325.256403 209.587462 
L 325.394967 209.962398 
L 325.602812 209.517561 
L 325.672094 209.743676 
L 325.879939 210.525066 
L 325.949221 210.415826 
L 326.157067 209.221823 
L 326.226349 209.244618 
L 326.29563 208.609961 
L 326.434194 206.125186 
L 326.503476 206.144759 
L 326.572758 205.83548 
L 326.711321 203.404936 
L 326.988448 197.891192 
L 327.05773 197.97208 
L 327.265576 201.467055 
L 327.334857 202.03848 
L 327.404139 201.757755 
L 327.473421 201.919659 
L 327.611985 203.933524 
L 327.889112 211.984148 
L 327.958394 211.710806 
L 328.027675 211.813583 
L 328.166239 212.805786 
L 328.235521 212.497615 
L 328.304803 210.997729 
L 328.512648 214.04048 
L 328.651212 211.791611 
L 328.859057 215.636252 
L 329.066903 228.874511 
L 329.136184 228.638256 
L 329.274748 208.988147 
L 329.621157 68.342453 
L 329.690439 84.08958 
L 330.036848 199.653438 
L 330.383257 207.698517 
L 330.521821 210.033703 
L 330.591102 209.444642 
L 330.660384 209.664863 
L 330.729666 209.848798 
L 330.798948 210.505845 
L 330.937511 208.865184 
L 331.006793 209.096119 
L 331.145357 209.444042 
L 331.630329 205.929105 
L 331.699611 206.069239 
L 331.768893 205.984559 
L 331.838175 205.487941 
L 332.04602 203.31153 
L 332.669557 197.272135 
L 333.639502 182.830158 
L 333.916629 180.983689 
L 334.055193 182.667346 
L 334.263038 189.804487 
L 334.748011 204.29921 
L 335.09442 208.030827 
L 335.232983 209.465469 
L 335.302265 209.071613 
L 335.440829 208.356168 
L 335.510111 208.813082 
L 335.579392 208.709578 
L 335.787238 209.150512 
L 335.85652 208.171204 
L 335.925801 208.44811 
L 336.133647 209.326543 
L 336.410774 207.899989 
L 336.480056 208.178375 
L 336.549338 208.164276 
L 336.618619 207.412909 
L 336.687901 207.802105 
L 336.826465 208.398847 
L 336.895747 208.272421 
L 337.103592 207.794479 
L 337.172874 207.886898 
L 337.242156 208.138748 
L 337.311438 208.11742 
L 337.380719 208.123037 
L 337.519283 208.601669 
L 337.657847 207.905623 
L 337.727128 208.604397 
L 337.79641 208.510069 
L 337.865692 208.623817 
L 337.934974 208.376367 
L 338.004256 208.626673 
L 338.073537 209.511551 
L 338.212101 208.660642 
L 338.350665 209.566835 
L 338.419946 209.240234 
L 338.489228 208.441379 
L 338.55851 208.788172 
L 338.627792 208.445516 
L 338.697074 208.48294 
L 338.766355 208.542627 
L 338.835637 207.951099 
L 339.043483 208.910259 
L 339.112765 208.963447 
L 339.182046 208.718142 
L 339.251328 209.087122 
L 339.32061 208.993699 
L 339.389892 209.098712 
L 339.528455 208.33129 
L 339.597737 209.076639 
L 339.667019 208.797136 
L 339.874864 209.386815 
L 339.944146 209.230619 
L 340.151992 206.262944 
L 340.290555 205.548538 
L 340.636964 198.454944 
L 340.706246 197.972889 
L 340.775528 198.078644 
L 340.983373 200.89472 
L 341.052655 201.293673 
L 341.121937 200.926722 
L 341.260501 203.201394 
L 341.537628 211.810084 
L 341.60691 211.485964 
L 341.676191 210.709047 
L 341.745473 210.862726 
L 341.814755 212.387343 
L 341.884037 212.056556 
L 341.953319 210.969528 
L 342.0226 211.005881 
L 342.230446 213.042512 
L 342.369009 211.430118 
L 342.576855 215.706086 
L 342.7847 225.105749 
L 342.853982 222.516724 
L 342.992546 195.692729 
L 343.269673 67.332518 
L 343.338955 79.634399 
L 343.754646 204.249516 
L 343.823927 204.175447 
L 344.3089 208.789251 
L 344.378182 208.753575 
L 344.516745 208.023994 
L 344.586027 207.536438 
L 344.655309 207.721109 
L 344.793873 208.699356 
L 345.001718 206.400093 
L 345.071 206.627078 
L 345.140282 207.339259 
L 345.486691 203.966788 
L 345.763818 202.019655 
L 345.8331 201.92175 
L 347.565145 177.453831 
L 347.634427 177.038415 
L 347.842272 182.779162 
L 348.396527 203.088375 
L 348.673654 207.769678 
L 348.742936 207.621788 
L 348.812217 207.470135 
L 348.950781 208.055895 
L 349.020063 208.127544 
L 349.089345 208.012481 
L 349.227908 208.555946 
L 349.29719 208.448412 
L 349.366472 208.070703 
L 349.435754 208.259836 
L 349.505036 208.436481 
L 349.643599 207.565386 
L 349.782163 208.079774 
L 349.851445 208.012201 
L 350.05929 207.244973 
L 350.128572 207.338083 
L 350.197854 208.017142 
L 350.336417 207.283894 
L 350.405699 207.568849 
L 350.474981 206.956388 
L 350.544263 207.55009 
L 350.682826 206.978751 
L 350.752108 207.046934 
L 350.82139 206.958816 
L 351.167799 208.148538 
L 351.237081 207.324456 
L 351.375644 208.736998 
L 351.514208 208.315539 
L 351.58349 208.721586 
L 351.652772 208.249384 
L 351.791335 209.303641 
L 351.860617 208.746839 
L 351.929899 208.795255 
L 352.068462 209.6038 
L 352.137744 209.593183 
L 352.34559 209.584003 
L 352.414871 209.746566 
L 352.691999 209.083295 
L 352.76128 209.147581 
L 352.830562 208.941311 
L 352.899844 209.528166 
L 352.969126 209.032256 
L 353.176971 205.706563 
L 353.246253 205.651273 
L 353.315535 206.108839 
L 353.384817 205.566884 
L 353.661944 197.192085 
L 353.731226 197.209617 
L 354.28548 204.635748 
L 354.562607 211.724414 
L 354.701171 210.730531 
L 354.770453 210.86651 
L 354.909016 212.672481 
L 354.978298 212.448963 
L 355.116862 211.157132 
L 355.255425 213.539286 
L 355.324707 213.194324 
L 355.463271 211.826813 
L 355.740398 222.276516 
L 355.878962 227.101532 
L 356.017525 209.030201 
L 356.156089 153.179485 
L 356.363934 76.40468 
L 356.502498 119.952925 
L 356.779625 201.77699 
L 356.918189 203.917882 
L 357.33388 208.973135 
L 357.403161 209.029935 
L 357.472443 209.631838 
L 357.541725 209.423673 
L 357.74957 207.931415 
L 357.818852 207.622635 
L 357.888134 208.122693 
L 358.026698 206.725337 
L 358.165261 206.901992 
L 358.234543 207.190988 
L 358.373107 204.578649 
L 358.442389 204.906937 
L 358.51167 205.017138 
L 358.580952 204.699829 
L 358.927361 201.217929 
L 359.481616 195.432597 
L 359.897306 189.314891 
L 360.520843 182.165936 
L 360.590125 181.959241 
L 360.659406 182.138508 
L 360.79797 184.028954 
L 361.56007 206.50403 
L 361.767915 208.066891 
L 362.045042 209.26037 
L 362.32217 208.713426 
L 362.460733 209.024328 
L 362.599297 208.791614 
L 362.668579 209.100152 
L 362.737861 208.904555 
L 362.876424 209.098208 
L 363.08427 208.471336 
L 363.222833 209.142273 
L 363.292115 208.94636 
L 363.569242 207.851513 
L 363.707806 208.149433 
L 363.777088 207.275157 
L 363.846369 207.761402 
L 363.915651 208.348651 
L 363.984933 208.291128 
L 364.054215 207.975746 
L 364.123497 208.002444 
L 364.26206 208.445294 
L 364.400624 208.335097 
L 364.747033 210.377637 
L 364.954878 208.969996 
L 365.02416 208.732363 
L 365.232006 210.613411 
L 365.301287 209.84267 
L 365.370569 210.069571 
L 365.509133 210.592368 
L 365.647696 210.541763 
L 365.78626 210.764369 
L 365.994105 209.380916 
L 366.132669 208.983811 
L 366.340514 210.051765 
L 366.409796 209.773457 
L 366.479078 209.949526 
L 366.54836 209.868726 
L 366.617642 209.860055 
L 366.686924 210.220871 
L 366.825487 207.594689 
L 366.964051 206.063797 
L 367.033333 206.06535 
L 367.102614 205.595202 
L 367.31046 199.876157 
L 367.449023 197.438711 
L 367.518305 197.25339 
L 368.07256 203.78695 
L 368.418969 211.989893 
L 368.48825 211.779388 
L 368.626814 213.722025 
L 368.696096 213.299858 
L 368.83466 211.823097 
L 369.042505 214.495974 
L 369.181069 211.732049 
L 369.388914 217.259944 
L 369.596759 228.354847 
L 369.735323 214.116677 
L 369.873887 159.633433 
L 370.081732 59.922912 
L 370.220296 98.137063 
L 370.497423 201.222847 
L 370.982396 207.692884 
L 371.051677 207.9486 
L 371.259523 209.81355 
L 371.328805 209.848894 
L 371.467368 208.588112 
L 371.605932 209.254558 
L 371.813777 206.197843 
L 371.952341 207.805338 
L 372.160186 204.735896 
L 372.229468 204.826787 
L 372.368032 203.511023 
L 372.437313 203.963365 
L 372.783723 200.99521 
L 373.615104 188.780138 
L 374.100077 181.713251 
L 374.307922 179.151641 
L 374.377204 179.381298 
L 374.515768 180.659174 
L 375.277868 205.280181 
L 375.624277 208.579431 
L 375.76284 209.031482 
L 375.970686 208.193801 
L 376.247813 208.192785 
L 376.317095 208.48631 
L 376.455658 207.907098 
L 376.52494 207.798218 
L 376.594222 208.550493 
L 376.732785 207.888774 
L 376.802067 207.743836 
L 376.871349 207.805038 
L 376.940631 207.831786 
L 377.079195 208.352095 
L 377.217758 207.774047 
L 377.28704 207.757193 
L 377.356322 207.927224 
L 377.425604 207.572378 
L 377.494885 207.734446 
L 377.564167 207.859732 
L 377.633449 207.718376 
L 377.841294 208.492744 
L 377.979858 208.116177 
L 378.04914 207.486673 
L 378.118422 207.5151 
L 378.326267 208.407826 
L 378.395549 208.397174 
L 378.464831 208.073577 
L 378.534112 208.780898 
L 378.603394 208.696981 
L 378.672676 208.0253 
L 378.741958 208.089545 
L 378.81124 208.198359 
L 378.949803 208.915031 
L 379.019085 208.751603 
L 379.157649 209.234428 
L 379.296212 208.352895 
L 379.365494 209.029356 
L 379.434776 208.949482 
L 379.642621 208.183419 
L 379.711903 208.392328 
L 379.781185 208.233872 
L 379.98903 205.067766 
L 380.058312 205.265061 
L 380.266158 203.250901 
L 380.543285 197.06319 
L 380.612567 197.174146 
L 380.75113 198.140961 
L 380.958976 200.300214 
L 381.028257 200.90733 
L 381.443948 209.942869 
L 381.582512 209.585266 
L 381.790357 211.748014 
L 381.928921 209.815922 
L 382.136766 212.460786 
L 382.27533 209.676274 
L 382.483175 215.221514 
L 382.691021 224.428628 
L 382.760303 221.18796 
L 382.898866 194.137253 
L 383.175993 79.197311 
L 383.314557 119.443129 
L 383.591684 205.150335 
L 383.730248 204.138439 
L 384.076657 207.362567 
L 384.353784 208.509788 
L 384.492348 207.457111 
L 384.56163 207.838676 
L 384.630911 208.02686 
L 384.700193 207.805446 
L 384.908039 205.532349 
L 385.046602 206.331474 
L 385.254448 204.040576 
L 385.323729 204.410429 
L 385.600857 201.741708 
L 386.085829 196.052162 
L 386.155111 196.023477 
L 386.362957 193.145822 
L 387.125056 182.289656 
L 387.471465 180.330088 
L 387.610029 182.78122 
L 387.817875 189.319317 
L 388.302847 204.149395 
L 388.510693 207.343376 
L 388.649256 208.278444 
L 388.718538 208.342259 
L 388.78782 209.032801 
L 388.857102 208.666013 
L 389.064947 208.228273 
L 389.134229 207.758352 
L 389.272792 208.98256 
L 389.411356 208.248748 
L 389.480638 208.255645 
L 389.688483 208.981557 
L 389.757765 208.896845 
L 389.896329 207.765729 
L 390.034892 208.50482 
L 390.104174 208.471833 
L 390.173456 208.577497 
L 390.31202 207.995844 
L 390.381301 207.999036 
L 390.450583 208.414749 
L 390.519865 208.32566 
L 390.72771 207.676239 
L 390.796992 207.849775 
L 390.935556 208.614922 
L 391.074119 207.860831 
L 391.143401 208.764483 
L 391.212683 208.47538 
L 391.281965 208.369137 
L 391.351247 208.715775 
L 391.48981 208.315701 
L 391.836219 210.015281 
L 391.905501 209.643408 
L 391.974783 209.680169 
L 392.113347 210.071052 
L 392.25191 209.577714 
L 392.390474 210.188291 
L 392.459756 210.061766 
L 392.529037 210.163347 
L 392.598319 210.158602 
L 392.667601 209.676699 
L 392.806165 210.741551 
L 392.875446 210.650156 
L 393.01401 209.866162 
L 393.152574 210.414966 
L 393.221855 210.177298 
L 393.291137 210.844201 
L 393.360419 210.792068 
L 393.498983 209.269483 
L 393.568264 210.481194 
L 393.637546 210.071182 
L 393.983955 206.132235 
L 394.053237 205.865365 
L 394.399646 199.070564 
L 394.468928 198.698513 
L 394.676773 202.423967 
L 394.815337 203.171756 
L 394.884619 202.888558 
L 395.023182 205.33122 
L 395.231028 212.566017 
L 395.30031 212.428719 
L 395.369591 212.139412 
L 395.577437 213.482988 
L 395.646719 213.226812 
L 395.716 212.057681 
L 395.785282 212.564647 
L 395.923846 214.585428 
L 396.062409 212.881538 
L 396.131691 213.438265 
L 396.408819 224.973939 
L 396.4781 229.813159 
L 396.547382 229.597378 
L 396.685946 209.553651 
L 396.893791 95.17737 
L 397.032355 53.568 
L 397.170918 101.334045 
L 397.378764 197.037394 
L 397.655891 204.351534 
L 398.071582 209.613439 
L 398.140864 209.800735 
L 398.279427 209.300737 
L 398.417991 208.148962 
L 398.487273 209.056471 
L 398.487273 209.056471 
" style="fill:none;stroke:#1f77b4;stroke-linecap:square;stroke-width:1.5;"/>
   </g>
   <g id="patch_3">
    <path d="M 57.6 307.584 
L 57.6 41.472 
" style="fill:none;stroke:#000000;stroke-linecap:square;stroke-linejoin:miter;stroke-width:0.8;"/>
   </g>
   <g id="patch_4">
    <path d="M 414.72 307.584 
L 414.72 41.472 
" style="fill:none;stroke:#000000;stroke-linecap:square;stroke-linejoin:miter;stroke-width:0.8;"/>
   </g>
   <g id="patch_5">
    <path d="M 57.6 307.584 
L 414.72 307.584 
" style="fill:none;stroke:#000000;stroke-linecap:square;stroke-linejoin:miter;stroke-width:0.8;"/>
   </g>
   <g id="patch_6">
    <path d="M 57.6 41.472 
L 414.72 41.472 
" style="fill:none;stroke:#000000;stroke-linecap:square;stroke-linejoin:miter;stroke-width:0.8;"/>
   </g>
  </g>
 </g>
 <defs>
  <clipPath id="pb8f3c28129">
   <rect height="266.112" width="357.12" x="57.6" y="41.472"/>
  </clipPath>
 </defs>
</svg>
