<?xml version="1.0" encoding="utf-8" standalone="no"?>
<!DOCTYPE svg PUBLIC "-//W3C//DTD SVG 1.1//EN"
  "http://www.w3.org/Graphics/SVG/1.1/DTD/svg11.dtd">
<!-- Created with matplotlib (https://matplotlib.org/) -->
<svg height="345.6pt" version="1.1" viewBox="0 0 460.8 345.6" width="460.8pt" xmlns="http://www.w3.org/2000/svg" xmlns:xlink="http://www.w3.org/1999/xlink">
 <metadata>
  <rdf:RDF xmlns:cc="http://creativecommons.org/ns#" xmlns:dc="http://purl.org/dc/elements/1.1/" xmlns:rdf="http://www.w3.org/1999/02/22-rdf-syntax-ns#">
   <cc:Work>
    <dc:type rdf:resource="http://purl.org/dc/dcmitype/StillImage"/>
    <dc:date>2020-11-10T22:26:28.483122</dc:date>
    <dc:format>image/svg+xml</dc:format>
    <dc:creator>
     <cc:Agent>
      <dc:title>Matplotlib v3.3.2, https://matplotlib.org/</dc:title>
     </cc:Agent>
    </dc:creator>
   </cc:Work>
  </rdf:RDF>
 </metadata>
 <defs>
  <style type="text/css">*{stroke-linecap:butt;stroke-linejoin:round;}</style>
 </defs>
 <g id="figure_1">
  <g id="patch_1">
   <path d="M 0 345.6 
L 460.8 345.6 
L 460.8 0 
L 0 0 
z
" style="fill:#ffffff;"/>
  </g>
  <g id="axes_1">
   <g id="patch_2">
    <path d="M 57.6 307.584 
L 414.72 307.584 
L 414.72 41.472 
L 57.6 41.472 
z
" style="fill:#ffffff;"/>
   </g>
   <g id="matplotlib.axis_1">
    <g id="xtick_1">
     <g id="line2d_1">
      <defs>
       <path d="M 0 0 
L 0 3.5 
" id="m5d7b2aaeda" style="stroke:#000000;stroke-width:0.8;"/>
      </defs>
      <g>
       <use style="stroke:#000000;stroke-width:0.8;" x="64.119168" xlink:href="#m5d7b2aaeda" y="307.584"/>
      </g>
     </g>
     <g id="text_1">
      <!-- 0 -->
      <g transform="translate(60.937918 322.182437)scale(0.1 -0.1)">
       <defs>
        <path d="M 31.78125 66.40625 
Q 24.171875 66.40625 20.328125 58.90625 
Q 16.5 51.421875 16.5 36.375 
Q 16.5 21.390625 20.328125 13.890625 
Q 24.171875 6.390625 31.78125 6.390625 
Q 39.453125 6.390625 43.28125 13.890625 
Q 47.125 21.390625 47.125 36.375 
Q 47.125 51.421875 43.28125 58.90625 
Q 39.453125 66.40625 31.78125 66.40625 
z
M 31.78125 74.21875 
Q 44.046875 74.21875 50.515625 64.515625 
Q 56.984375 54.828125 56.984375 36.375 
Q 56.984375 17.96875 50.515625 8.265625 
Q 44.046875 -1.421875 31.78125 -1.421875 
Q 19.53125 -1.421875 13.0625 8.265625 
Q 6.59375 17.96875 6.59375 36.375 
Q 6.59375 54.828125 13.0625 64.515625 
Q 19.53125 74.21875 31.78125 74.21875 
z
" id="DejaVuSans-48"/>
       </defs>
       <use xlink:href="#DejaVuSans-48"/>
      </g>
     </g>
    </g>
    <g id="xtick_2">
     <g id="line2d_2">
      <g>
       <use style="stroke:#000000;stroke-width:0.8;" x="128.918909" xlink:href="#m5d7b2aaeda" y="307.584"/>
      </g>
     </g>
     <g id="text_2">
      <!-- 50 -->
      <g transform="translate(122.556409 322.182437)scale(0.1 -0.1)">
       <defs>
        <path d="M 10.796875 72.90625 
L 49.515625 72.90625 
L 49.515625 64.59375 
L 19.828125 64.59375 
L 19.828125 46.734375 
Q 21.96875 47.46875 24.109375 47.828125 
Q 26.265625 48.1875 28.421875 48.1875 
Q 40.625 48.1875 47.75 41.5 
Q 54.890625 34.8125 54.890625 23.390625 
Q 54.890625 11.625 47.5625 5.09375 
Q 40.234375 -1.421875 26.90625 -1.421875 
Q 22.3125 -1.421875 17.546875 -0.640625 
Q 12.796875 0.140625 7.71875 1.703125 
L 7.71875 11.625 
Q 12.109375 9.234375 16.796875 8.0625 
Q 21.484375 6.890625 26.703125 6.890625 
Q 35.15625 6.890625 40.078125 11.328125 
Q 45.015625 15.765625 45.015625 23.390625 
Q 45.015625 31 40.078125 35.4375 
Q 35.15625 39.890625 26.703125 39.890625 
Q 22.75 39.890625 18.8125 39.015625 
Q 14.890625 38.140625 10.796875 36.28125 
z
" id="DejaVuSans-53"/>
       </defs>
       <use xlink:href="#DejaVuSans-53"/>
       <use x="63.623047" xlink:href="#DejaVuSans-48"/>
      </g>
     </g>
    </g>
    <g id="xtick_3">
     <g id="line2d_3">
      <g>
       <use style="stroke:#000000;stroke-width:0.8;" x="193.718651" xlink:href="#m5d7b2aaeda" y="307.584"/>
      </g>
     </g>
     <g id="text_3">
      <!-- 100 -->
      <g transform="translate(184.174901 322.182437)scale(0.1 -0.1)">
       <defs>
        <path d="M 12.40625 8.296875 
L 28.515625 8.296875 
L 28.515625 63.921875 
L 10.984375 60.40625 
L 10.984375 69.390625 
L 28.421875 72.90625 
L 38.28125 72.90625 
L 38.28125 8.296875 
L 54.390625 8.296875 
L 54.390625 0 
L 12.40625 0 
z
" id="DejaVuSans-49"/>
       </defs>
       <use xlink:href="#DejaVuSans-49"/>
       <use x="63.623047" xlink:href="#DejaVuSans-48"/>
       <use x="127.246094" xlink:href="#DejaVuSans-48"/>
      </g>
     </g>
    </g>
    <g id="xtick_4">
     <g id="line2d_4">
      <g>
       <use style="stroke:#000000;stroke-width:0.8;" x="258.518393" xlink:href="#m5d7b2aaeda" y="307.584"/>
      </g>
     </g>
     <g id="text_4">
      <!-- 150 -->
      <g transform="translate(248.974643 322.182437)scale(0.1 -0.1)">
       <use xlink:href="#DejaVuSans-49"/>
       <use x="63.623047" xlink:href="#DejaVuSans-53"/>
       <use x="127.246094" xlink:href="#DejaVuSans-48"/>
      </g>
     </g>
    </g>
    <g id="xtick_5">
     <g id="line2d_5">
      <g>
       <use style="stroke:#000000;stroke-width:0.8;" x="323.318135" xlink:href="#m5d7b2aaeda" y="307.584"/>
      </g>
     </g>
     <g id="text_5">
      <!-- 200 -->
      <g transform="translate(313.774385 322.182437)scale(0.1 -0.1)">
       <defs>
        <path d="M 19.1875 8.296875 
L 53.609375 8.296875 
L 53.609375 0 
L 7.328125 0 
L 7.328125 8.296875 
Q 12.9375 14.109375 22.625 23.890625 
Q 32.328125 33.6875 34.8125 36.53125 
Q 39.546875 41.84375 41.421875 45.53125 
Q 43.3125 49.21875 43.3125 52.78125 
Q 43.3125 58.59375 39.234375 62.25 
Q 35.15625 65.921875 28.609375 65.921875 
Q 23.96875 65.921875 18.8125 64.3125 
Q 13.671875 62.703125 7.8125 59.421875 
L 7.8125 69.390625 
Q 13.765625 71.78125 18.9375 73 
Q 24.125 74.21875 28.421875 74.21875 
Q 39.75 74.21875 46.484375 68.546875 
Q 53.21875 62.890625 53.21875 53.421875 
Q 53.21875 48.921875 51.53125 44.890625 
Q 49.859375 40.875 45.40625 35.40625 
Q 44.1875 33.984375 37.640625 27.21875 
Q 31.109375 20.453125 19.1875 8.296875 
z
" id="DejaVuSans-50"/>
       </defs>
       <use xlink:href="#DejaVuSans-50"/>
       <use x="63.623047" xlink:href="#DejaVuSans-48"/>
       <use x="127.246094" xlink:href="#DejaVuSans-48"/>
      </g>
     </g>
    </g>
    <g id="xtick_6">
     <g id="line2d_6">
      <g>
       <use style="stroke:#000000;stroke-width:0.8;" x="388.117877" xlink:href="#m5d7b2aaeda" y="307.584"/>
      </g>
     </g>
     <g id="text_6">
      <!-- 250 -->
      <g transform="translate(378.574127 322.182437)scale(0.1 -0.1)">
       <use xlink:href="#DejaVuSans-50"/>
       <use x="63.623047" xlink:href="#DejaVuSans-53"/>
       <use x="127.246094" xlink:href="#DejaVuSans-48"/>
      </g>
     </g>
    </g>
   </g>
   <g id="matplotlib.axis_2">
    <g id="ytick_1">
     <g id="line2d_7">
      <defs>
       <path d="M 0 0 
L -3.5 0 
" id="m328693228d" style="stroke:#000000;stroke-width:0.8;"/>
      </defs>
      <g>
       <use style="stroke:#000000;stroke-width:0.8;" x="57.6" xlink:href="#m328693228d" y="265.780827"/>
      </g>
     </g>
     <g id="text_7">
      <!-- 0.0 -->
      <g transform="translate(34.696875 269.580045)scale(0.1 -0.1)">
       <defs>
        <path d="M 10.6875 12.40625 
L 21 12.40625 
L 21 0 
L 10.6875 0 
z
" id="DejaVuSans-46"/>
       </defs>
       <use xlink:href="#DejaVuSans-48"/>
       <use x="63.623047" xlink:href="#DejaVuSans-46"/>
       <use x="95.410156" xlink:href="#DejaVuSans-48"/>
      </g>
     </g>
    </g>
    <g id="ytick_2">
     <g id="line2d_8">
      <g>
       <use style="stroke:#000000;stroke-width:0.8;" x="57.6" xlink:href="#m328693228d" y="222.944706"/>
      </g>
     </g>
     <g id="text_8">
      <!-- 0.1 -->
      <g transform="translate(34.696875 226.743924)scale(0.1 -0.1)">
       <use xlink:href="#DejaVuSans-48"/>
       <use x="63.623047" xlink:href="#DejaVuSans-46"/>
       <use x="95.410156" xlink:href="#DejaVuSans-49"/>
      </g>
     </g>
    </g>
    <g id="ytick_3">
     <g id="line2d_9">
      <g>
       <use style="stroke:#000000;stroke-width:0.8;" x="57.6" xlink:href="#m328693228d" y="180.108585"/>
      </g>
     </g>
     <g id="text_9">
      <!-- 0.2 -->
      <g transform="translate(34.696875 183.907804)scale(0.1 -0.1)">
       <use xlink:href="#DejaVuSans-48"/>
       <use x="63.623047" xlink:href="#DejaVuSans-46"/>
       <use x="95.410156" xlink:href="#DejaVuSans-50"/>
      </g>
     </g>
    </g>
    <g id="ytick_4">
     <g id="line2d_10">
      <g>
       <use style="stroke:#000000;stroke-width:0.8;" x="57.6" xlink:href="#m328693228d" y="137.272464"/>
      </g>
     </g>
     <g id="text_10">
      <!-- 0.3 -->
      <g transform="translate(34.696875 141.071683)scale(0.1 -0.1)">
       <defs>
        <path d="M 40.578125 39.3125 
Q 47.65625 37.796875 51.625 33 
Q 55.609375 28.21875 55.609375 21.1875 
Q 55.609375 10.40625 48.1875 4.484375 
Q 40.765625 -1.421875 27.09375 -1.421875 
Q 22.515625 -1.421875 17.65625 -0.515625 
Q 12.796875 0.390625 7.625 2.203125 
L 7.625 11.71875 
Q 11.71875 9.328125 16.59375 8.109375 
Q 21.484375 6.890625 26.8125 6.890625 
Q 36.078125 6.890625 40.9375 10.546875 
Q 45.796875 14.203125 45.796875 21.1875 
Q 45.796875 27.640625 41.28125 31.265625 
Q 36.765625 34.90625 28.71875 34.90625 
L 20.21875 34.90625 
L 20.21875 43.015625 
L 29.109375 43.015625 
Q 36.375 43.015625 40.234375 45.921875 
Q 44.09375 48.828125 44.09375 54.296875 
Q 44.09375 59.90625 40.109375 62.90625 
Q 36.140625 65.921875 28.71875 65.921875 
Q 24.65625 65.921875 20.015625 65.03125 
Q 15.375 64.15625 9.8125 62.3125 
L 9.8125 71.09375 
Q 15.4375 72.65625 20.34375 73.4375 
Q 25.25 74.21875 29.59375 74.21875 
Q 40.828125 74.21875 47.359375 69.109375 
Q 53.90625 64.015625 53.90625 55.328125 
Q 53.90625 49.265625 50.4375 45.09375 
Q 46.96875 40.921875 40.578125 39.3125 
z
" id="DejaVuSans-51"/>
       </defs>
       <use xlink:href="#DejaVuSans-48"/>
       <use x="63.623047" xlink:href="#DejaVuSans-46"/>
       <use x="95.410156" xlink:href="#DejaVuSans-51"/>
      </g>
     </g>
    </g>
    <g id="ytick_5">
     <g id="line2d_11">
      <g>
       <use style="stroke:#000000;stroke-width:0.8;" x="57.6" xlink:href="#m328693228d" y="94.436343"/>
      </g>
     </g>
     <g id="text_11">
      <!-- 0.4 -->
      <g transform="translate(34.696875 98.235562)scale(0.1 -0.1)">
       <defs>
        <path d="M 37.796875 64.3125 
L 12.890625 25.390625 
L 37.796875 25.390625 
z
M 35.203125 72.90625 
L 47.609375 72.90625 
L 47.609375 25.390625 
L 58.015625 25.390625 
L 58.015625 17.1875 
L 47.609375 17.1875 
L 47.609375 0 
L 37.796875 0 
L 37.796875 17.1875 
L 4.890625 17.1875 
L 4.890625 26.703125 
z
" id="DejaVuSans-52"/>
       </defs>
       <use xlink:href="#DejaVuSans-48"/>
       <use x="63.623047" xlink:href="#DejaVuSans-46"/>
       <use x="95.410156" xlink:href="#DejaVuSans-52"/>
      </g>
     </g>
    </g>
    <g id="ytick_6">
     <g id="line2d_12">
      <g>
       <use style="stroke:#000000;stroke-width:0.8;" x="57.6" xlink:href="#m328693228d" y="51.600222"/>
      </g>
     </g>
     <g id="text_12">
      <!-- 0.5 -->
      <g transform="translate(34.696875 55.399441)scale(0.1 -0.1)">
       <use xlink:href="#DejaVuSans-48"/>
       <use x="63.623047" xlink:href="#DejaVuSans-46"/>
       <use x="95.410156" xlink:href="#DejaVuSans-53"/>
      </g>
     </g>
    </g>
   </g>
   <g id="line2d_13">
    <path clip-path="url(#pcfc54a6d66)" d="M 64.119168 265.849364 
L 68.007152 265.609346 
L 70.599142 265.82138 
L 74.487126 265.654698 
L 77.079116 265.74601 
L 83.55909 265.647683 
L 87.447075 265.798431 
L 90.039064 265.561912 
L 93.927049 265.841031 
L 96.519039 265.525723 
L 100.407023 265.829169 
L 102.999013 265.563781 
L 106.886997 265.755217 
L 109.478987 265.674367 
L 117.254956 265.741274 
L 118.550951 265.540488 
L 119.846946 265.519562 
L 122.438935 265.946206 
L 123.73493 265.774858 
L 125.030925 265.462698 
L 126.32692 265.457158 
L 127.622915 265.781549 
L 128.918909 265.97996 
L 131.510899 265.477925 
L 132.806894 265.49441 
L 134.102889 265.762019 
L 135.398884 265.884989 
L 137.990873 265.602927 
L 145.766842 265.84992 
L 148.358832 265.430859 
L 149.654827 265.611435 
L 150.950822 266.010908 
L 152.246817 266.043631 
L 153.542811 265.585062 
L 154.838806 265.262354 
L 156.134801 265.578101 
L 157.430796 266.123155 
L 158.726791 266.127454 
L 160.022786 265.58787 
L 161.31878 265.276984 
L 162.614775 265.609236 
L 163.91077 266.073558 
L 165.206765 266.04241 
L 166.50276 265.663513 
L 167.798755 265.517745 
L 170.390744 265.858108 
L 172.982734 265.801659 
L 174.278729 265.929445 
L 175.574724 265.866132 
L 176.870718 265.554953 
L 178.166713 265.495573 
L 180.758703 266.364304 
L 182.054698 266.019215 
L 183.350693 265.304282 
L 184.646687 265.274077 
L 185.942682 266.086687 
L 187.238677 266.634448 
L 188.534672 266.114825 
L 189.830667 265.253363 
L 191.126662 265.276419 
L 192.422656 266.126944 
L 193.718651 266.594966 
L 195.014646 266.114203 
L 196.310641 265.486777 
L 197.606636 265.567141 
L 198.902631 266.066582 
L 200.198626 266.222799 
L 201.49462 266.019797 
L 202.790615 265.973151 
L 204.08661 266.088942 
L 205.382605 265.937513 
L 206.6786 265.652059 
L 207.974595 265.882305 
L 209.270589 266.557546 
L 210.566584 266.666417 
L 211.862579 265.813637 
L 213.158574 265.140361 
L 214.454569 265.785795 
L 215.750564 267.011759 
L 217.046558 267.067184 
L 218.342553 265.783648 
L 219.638548 264.969617 
L 220.934543 265.814034 
L 222.230538 267.128965 
L 223.526533 267.101513 
L 224.822527 265.911714 
L 226.118522 265.316956 
L 228.710512 266.825461 
L 230.006507 266.719787 
L 231.302502 266.20262 
L 232.598496 266.151918 
L 233.894491 266.351622 
L 236.486481 266.061183 
L 239.078471 267.213159 
L 240.374465 266.743336 
L 241.67046 265.531426 
L 242.966455 265.422194 
L 244.26245 266.948218 
L 245.558445 268.089266 
L 246.85444 267.054693 
L 248.150434 265.158105 
L 249.446429 265.146098 
L 250.742424 267.152664 
L 252.038419 268.38356 
L 253.334414 267.170755 
L 254.630409 265.354039 
L 255.926404 265.471543 
L 257.222398 267.124605 
L 258.518393 267.900366 
L 261.110383 266.177937 
L 262.406378 266.403538 
L 263.702373 266.882356 
L 266.294362 266.749942 
L 267.590357 267.410904 
L 268.886352 267.669858 
L 271.478342 265.44742 
L 272.774336 266.429886 
L 274.070331 268.607816 
L 275.366326 268.796806 
L 276.662321 266.309338 
L 277.958316 264.557459 
L 279.254311 266.283081 
L 280.550305 269.260432 
L 281.8463 269.289516 
L 283.142295 266.345545 
L 284.43829 264.643263 
L 285.734285 266.461198 
L 287.03028 269.016976 
L 288.326274 268.85269 
L 289.622269 266.743813 
L 290.918264 265.902967 
L 292.214259 266.996177 
L 293.510254 267.869243 
L 294.806249 267.559897 
L 296.102243 267.442851 
L 297.398238 268.037328 
L 298.694233 267.763477 
L 299.990228 266.219058 
L 301.286223 265.888195 
L 302.582218 268.232436 
L 303.878213 270.290823 
L 305.174207 268.508125 
L 306.470202 264.775267 
L 307.766197 264.580934 
L 309.062192 268.818408 
L 310.358187 271.700392 
L 311.654182 268.932552 
L 312.950176 264.2981 
L 314.246171 264.36983 
L 315.542166 268.93587 
L 316.838161 271.479102 
L 318.134156 268.818749 
L 319.430151 265.274919 
L 320.726145 265.651377 
L 322.02214 268.470546 
L 323.318135 269.394993 
L 324.61413 268.139063 
L 325.910125 267.651785 
L 327.20612 268.24488 
L 328.502114 267.539354 
L 329.798109 265.988184 
L 331.094104 267.108386 
L 332.390099 270.739127 
L 333.686094 271.343018 
L 334.982089 266.491404 
L 336.278083 262.514514 
L 337.574078 266.148125 
L 338.870073 273.354696 
L 340.166068 273.702447 
L 341.462063 265.817652 
L 342.758058 260.599362 
L 344.054052 265.763818 
L 345.350047 274.180522 
L 346.646042 274.032781 
L 347.942037 265.992048 
L 349.238032 261.697123 
L 350.534027 266.372245 
L 351.830021 272.224599 
L 353.126016 271.460665 
L 354.422011 267.295961 
L 355.718006 266.536904 
L 357.014001 268.137018 
L 358.309996 267.226706 
L 359.605991 265.904581 
L 360.901985 269.689178 
L 362.19798 274.757689 
L 363.493975 270.874042 
L 364.78997 259.853922 
L 366.085965 258.214642 
L 367.38196 272.778921 
L 368.677954 284.883171 
L 369.973949 274.067429 
L 371.269944 251.59662 
L 372.565939 250.00675 
L 373.861934 275.906274 
L 375.157929 294.673159 
L 376.453923 276.999042 
L 377.749918 244.378533 
L 379.045913 243.226667 
L 380.341908 278.328153 
L 381.637903 301.75488 
L 382.933898 278.954133 
L 384.229892 239.99793 
L 385.525887 239.578219 
L 386.821882 279.437726 
L 387.7227 -1 
M 388.513055 -1 
L 389.413872 279.43673 
L 390.709867 239.58204 
L 392.005861 240.003571 
L 393.301856 278.95029 
L 394.597851 301.741761 
L 395.893846 278.322661 
L 397.189841 243.238184 
L 398.485836 244.391024 
L 399.78183 276.991675 
L 401.077825 294.652073 
L 402.37382 275.898144 
L 403.669815 250.020569 
L 404.96581 251.610085 
L 406.261805 274.058955 
L 407.557799 284.862238 
L 408.853794 272.770739 
L 410.149789 258.224044 
L 411.445784 259.861723 
L 412.741779 270.866963 
L 414.037774 274.744552 
L 415.333769 269.68317 
L 416.629763 265.904381 
L 417.925758 267.22427 
L 419.221753 268.132874 
L 420.517748 266.535518 
L 421.813743 267.293071 
L 423.109738 271.449409 
L 424.405732 272.21135 
L 425.701727 266.370985 
L 426.997722 261.70613 
L 428.293717 265.991567 
L 429.589712 274.013345 
L 430.885707 274.160107 
L 432.181701 265.763861 
L 433.477696 260.612735 
L 434.773691 265.817555 
L 436.069686 273.680802 
L 437.365681 273.333427 
L 438.661676 266.147065 
L 439.95767 262.524184 
L 441.253665 266.489246 
L 442.54966 271.3257 
L 443.845655 270.723309 
L 445.14165 267.104048 
L 446.437645 265.987491 
L 447.733639 267.533337 
L 449.029634 268.236258 
L 450.325629 267.645093 
L 451.621624 268.130443 
L 452.917619 269.3815 
L 454.213614 268.460294 
L 455.509608 265.65188 
L 456.805603 265.276927 
L 458.101598 268.806449 
L 459.397593 271.455579 
L 460.693588 268.922595 
L 461.8 265.040989 
L 461.8 265.040989 
" style="fill:none;stroke:#1f77b4;stroke-linecap:square;stroke-width:1.5;"/>
   </g>
   <g id="patch_3">
    <path d="M 57.6 307.584 
L 57.6 41.472 
" style="fill:none;stroke:#000000;stroke-linecap:square;stroke-linejoin:miter;stroke-width:0.8;"/>
   </g>
   <g id="patch_4">
    <path d="M 414.72 307.584 
L 414.72 41.472 
" style="fill:none;stroke:#000000;stroke-linecap:square;stroke-linejoin:miter;stroke-width:0.8;"/>
   </g>
   <g id="patch_5">
    <path d="M 57.6 307.584 
L 414.72 307.584 
" style="fill:none;stroke:#000000;stroke-linecap:square;stroke-linejoin:miter;stroke-width:0.8;"/>
   </g>
   <g id="patch_6">
    <path d="M 57.6 41.472 
L 414.72 41.472 
" style="fill:none;stroke:#000000;stroke-linecap:square;stroke-linejoin:miter;stroke-width:0.8;"/>
   </g>
  </g>
 </g>
 <defs>
  <clipPath id="pcfc54a6d66">
   <rect height="266.112" width="357.12" x="57.6" y="41.472"/>
  </clipPath>
 </defs>
</svg>
