<?xml version="1.0" encoding="utf-8" standalone="no"?>
<!DOCTYPE svg PUBLIC "-//W3C//DTD SVG 1.1//EN"
  "http://www.w3.org/Graphics/SVG/1.1/DTD/svg11.dtd">
<!-- Created with matplotlib (https://matplotlib.org/) -->
<svg height="345.6pt" version="1.1" viewBox="0 0 460.8 345.6" width="460.8pt" xmlns="http://www.w3.org/2000/svg" xmlns:xlink="http://www.w3.org/1999/xlink">
 <metadata>
  <rdf:RDF xmlns:cc="http://creativecommons.org/ns#" xmlns:dc="http://purl.org/dc/elements/1.1/" xmlns:rdf="http://www.w3.org/1999/02/22-rdf-syntax-ns#">
   <cc:Work>
    <dc:type rdf:resource="http://purl.org/dc/dcmitype/StillImage"/>
    <dc:date>2020-11-09T01:17:31.308446</dc:date>
    <dc:format>image/svg+xml</dc:format>
    <dc:creator>
     <cc:Agent>
      <dc:title>Matplotlib v3.3.2, https://matplotlib.org/</dc:title>
     </cc:Agent>
    </dc:creator>
   </cc:Work>
  </rdf:RDF>
 </metadata>
 <defs>
  <style type="text/css">*{stroke-linecap:butt;stroke-linejoin:round;}</style>
 </defs>
 <g id="figure_1">
  <g id="patch_1">
   <path d="M 0 345.6 
L 460.8 345.6 
L 460.8 0 
L 0 0 
z
" style="fill:#ffffff;"/>
  </g>
  <g id="axes_1">
   <g id="patch_2">
    <path d="M 57.6 307.584 
L 414.72 307.584 
L 414.72 41.472 
L 57.6 41.472 
z
" style="fill:#ffffff;"/>
   </g>
   <g id="matplotlib.axis_1">
    <g id="xtick_1">
     <g id="line2d_1">
      <defs>
       <path d="M 0 0 
L 0 3.5 
" id="m340926677d" style="stroke:#000000;stroke-width:0.8;"/>
      </defs>
      <g>
       <use style="stroke:#000000;stroke-width:0.8;" x="73.832727" xlink:href="#m340926677d" y="307.584"/>
      </g>
     </g>
     <g id="text_1">
      <!-- 0 -->
      <g transform="translate(70.651477 322.182437)scale(0.1 -0.1)">
       <defs>
        <path d="M 31.78125 66.40625 
Q 24.171875 66.40625 20.328125 58.90625 
Q 16.5 51.421875 16.5 36.375 
Q 16.5 21.390625 20.328125 13.890625 
Q 24.171875 6.390625 31.78125 6.390625 
Q 39.453125 6.390625 43.28125 13.890625 
Q 47.125 21.390625 47.125 36.375 
Q 47.125 51.421875 43.28125 58.90625 
Q 39.453125 66.40625 31.78125 66.40625 
z
M 31.78125 74.21875 
Q 44.046875 74.21875 50.515625 64.515625 
Q 56.984375 54.828125 56.984375 36.375 
Q 56.984375 17.96875 50.515625 8.265625 
Q 44.046875 -1.421875 31.78125 -1.421875 
Q 19.53125 -1.421875 13.0625 8.265625 
Q 6.59375 17.96875 6.59375 36.375 
Q 6.59375 54.828125 13.0625 64.515625 
Q 19.53125 74.21875 31.78125 74.21875 
z
" id="DejaVuSans-48"/>
       </defs>
       <use xlink:href="#DejaVuSans-48"/>
      </g>
     </g>
    </g>
    <g id="xtick_2">
     <g id="line2d_2">
      <g>
       <use style="stroke:#000000;stroke-width:0.8;" x="138.893758" xlink:href="#m340926677d" y="307.584"/>
      </g>
     </g>
     <g id="text_2">
      <!-- 100 -->
      <g transform="translate(129.350008 322.182437)scale(0.1 -0.1)">
       <defs>
        <path d="M 12.40625 8.296875 
L 28.515625 8.296875 
L 28.515625 63.921875 
L 10.984375 60.40625 
L 10.984375 69.390625 
L 28.421875 72.90625 
L 38.28125 72.90625 
L 38.28125 8.296875 
L 54.390625 8.296875 
L 54.390625 0 
L 12.40625 0 
z
" id="DejaVuSans-49"/>
       </defs>
       <use xlink:href="#DejaVuSans-49"/>
       <use x="63.623047" xlink:href="#DejaVuSans-48"/>
       <use x="127.246094" xlink:href="#DejaVuSans-48"/>
      </g>
     </g>
    </g>
    <g id="xtick_3">
     <g id="line2d_3">
      <g>
       <use style="stroke:#000000;stroke-width:0.8;" x="203.95479" xlink:href="#m340926677d" y="307.584"/>
      </g>
     </g>
     <g id="text_3">
      <!-- 200 -->
      <g transform="translate(194.41104 322.182437)scale(0.1 -0.1)">
       <defs>
        <path d="M 19.1875 8.296875 
L 53.609375 8.296875 
L 53.609375 0 
L 7.328125 0 
L 7.328125 8.296875 
Q 12.9375 14.109375 22.625 23.890625 
Q 32.328125 33.6875 34.8125 36.53125 
Q 39.546875 41.84375 41.421875 45.53125 
Q 43.3125 49.21875 43.3125 52.78125 
Q 43.3125 58.59375 39.234375 62.25 
Q 35.15625 65.921875 28.609375 65.921875 
Q 23.96875 65.921875 18.8125 64.3125 
Q 13.671875 62.703125 7.8125 59.421875 
L 7.8125 69.390625 
Q 13.765625 71.78125 18.9375 73 
Q 24.125 74.21875 28.421875 74.21875 
Q 39.75 74.21875 46.484375 68.546875 
Q 53.21875 62.890625 53.21875 53.421875 
Q 53.21875 48.921875 51.53125 44.890625 
Q 49.859375 40.875 45.40625 35.40625 
Q 44.1875 33.984375 37.640625 27.21875 
Q 31.109375 20.453125 19.1875 8.296875 
z
" id="DejaVuSans-50"/>
       </defs>
       <use xlink:href="#DejaVuSans-50"/>
       <use x="63.623047" xlink:href="#DejaVuSans-48"/>
       <use x="127.246094" xlink:href="#DejaVuSans-48"/>
      </g>
     </g>
    </g>
    <g id="xtick_4">
     <g id="line2d_4">
      <g>
       <use style="stroke:#000000;stroke-width:0.8;" x="269.015821" xlink:href="#m340926677d" y="307.584"/>
      </g>
     </g>
     <g id="text_4">
      <!-- 300 -->
      <g transform="translate(259.472071 322.182437)scale(0.1 -0.1)">
       <defs>
        <path d="M 40.578125 39.3125 
Q 47.65625 37.796875 51.625 33 
Q 55.609375 28.21875 55.609375 21.1875 
Q 55.609375 10.40625 48.1875 4.484375 
Q 40.765625 -1.421875 27.09375 -1.421875 
Q 22.515625 -1.421875 17.65625 -0.515625 
Q 12.796875 0.390625 7.625 2.203125 
L 7.625 11.71875 
Q 11.71875 9.328125 16.59375 8.109375 
Q 21.484375 6.890625 26.8125 6.890625 
Q 36.078125 6.890625 40.9375 10.546875 
Q 45.796875 14.203125 45.796875 21.1875 
Q 45.796875 27.640625 41.28125 31.265625 
Q 36.765625 34.90625 28.71875 34.90625 
L 20.21875 34.90625 
L 20.21875 43.015625 
L 29.109375 43.015625 
Q 36.375 43.015625 40.234375 45.921875 
Q 44.09375 48.828125 44.09375 54.296875 
Q 44.09375 59.90625 40.109375 62.90625 
Q 36.140625 65.921875 28.71875 65.921875 
Q 24.65625 65.921875 20.015625 65.03125 
Q 15.375 64.15625 9.8125 62.3125 
L 9.8125 71.09375 
Q 15.4375 72.65625 20.34375 73.4375 
Q 25.25 74.21875 29.59375 74.21875 
Q 40.828125 74.21875 47.359375 69.109375 
Q 53.90625 64.015625 53.90625 55.328125 
Q 53.90625 49.265625 50.4375 45.09375 
Q 46.96875 40.921875 40.578125 39.3125 
z
" id="DejaVuSans-51"/>
       </defs>
       <use xlink:href="#DejaVuSans-51"/>
       <use x="63.623047" xlink:href="#DejaVuSans-48"/>
       <use x="127.246094" xlink:href="#DejaVuSans-48"/>
      </g>
     </g>
    </g>
    <g id="xtick_5">
     <g id="line2d_5">
      <g>
       <use style="stroke:#000000;stroke-width:0.8;" x="334.076852" xlink:href="#m340926677d" y="307.584"/>
      </g>
     </g>
     <g id="text_5">
      <!-- 400 -->
      <g transform="translate(324.533102 322.182437)scale(0.1 -0.1)">
       <defs>
        <path d="M 37.796875 64.3125 
L 12.890625 25.390625 
L 37.796875 25.390625 
z
M 35.203125 72.90625 
L 47.609375 72.90625 
L 47.609375 25.390625 
L 58.015625 25.390625 
L 58.015625 17.1875 
L 47.609375 17.1875 
L 47.609375 0 
L 37.796875 0 
L 37.796875 17.1875 
L 4.890625 17.1875 
L 4.890625 26.703125 
z
" id="DejaVuSans-52"/>
       </defs>
       <use xlink:href="#DejaVuSans-52"/>
       <use x="63.623047" xlink:href="#DejaVuSans-48"/>
       <use x="127.246094" xlink:href="#DejaVuSans-48"/>
      </g>
     </g>
    </g>
    <g id="xtick_6">
     <g id="line2d_6">
      <g>
       <use style="stroke:#000000;stroke-width:0.8;" x="399.137883" xlink:href="#m340926677d" y="307.584"/>
      </g>
     </g>
     <g id="text_6">
      <!-- 500 -->
      <g transform="translate(389.594133 322.182437)scale(0.1 -0.1)">
       <defs>
        <path d="M 10.796875 72.90625 
L 49.515625 72.90625 
L 49.515625 64.59375 
L 19.828125 64.59375 
L 19.828125 46.734375 
Q 21.96875 47.46875 24.109375 47.828125 
Q 26.265625 48.1875 28.421875 48.1875 
Q 40.625 48.1875 47.75 41.5 
Q 54.890625 34.8125 54.890625 23.390625 
Q 54.890625 11.625 47.5625 5.09375 
Q 40.234375 -1.421875 26.90625 -1.421875 
Q 22.3125 -1.421875 17.546875 -0.640625 
Q 12.796875 0.140625 7.71875 1.703125 
L 7.71875 11.625 
Q 12.109375 9.234375 16.796875 8.0625 
Q 21.484375 6.890625 26.703125 6.890625 
Q 35.15625 6.890625 40.078125 11.328125 
Q 45.015625 15.765625 45.015625 23.390625 
Q 45.015625 31 40.078125 35.4375 
Q 35.15625 39.890625 26.703125 39.890625 
Q 22.75 39.890625 18.8125 39.015625 
Q 14.890625 38.140625 10.796875 36.28125 
z
" id="DejaVuSans-53"/>
       </defs>
       <use xlink:href="#DejaVuSans-53"/>
       <use x="63.623047" xlink:href="#DejaVuSans-48"/>
       <use x="127.246094" xlink:href="#DejaVuSans-48"/>
      </g>
     </g>
    </g>
   </g>
   <g id="matplotlib.axis_2">
    <g id="ytick_1">
     <g id="line2d_7">
      <defs>
       <path d="M 0 0 
L -3.5 0 
" id="m3a98ec6994" style="stroke:#000000;stroke-width:0.8;"/>
      </defs>
      <g>
       <use style="stroke:#000000;stroke-width:0.8;" x="57.6" xlink:href="#m3a98ec6994" y="275.048197"/>
      </g>
     </g>
     <g id="text_7">
      <!-- 0.0 -->
      <g transform="translate(34.696875 278.847416)scale(0.1 -0.1)">
       <defs>
        <path d="M 10.6875 12.40625 
L 21 12.40625 
L 21 0 
L 10.6875 0 
z
" id="DejaVuSans-46"/>
       </defs>
       <use xlink:href="#DejaVuSans-48"/>
       <use x="63.623047" xlink:href="#DejaVuSans-46"/>
       <use x="95.410156" xlink:href="#DejaVuSans-48"/>
      </g>
     </g>
    </g>
    <g id="ytick_2">
     <g id="line2d_8">
      <g>
       <use style="stroke:#000000;stroke-width:0.8;" x="57.6" xlink:href="#m3a98ec6994" y="226.370787"/>
      </g>
     </g>
     <g id="text_8">
      <!-- 0.2 -->
      <g transform="translate(34.696875 230.170006)scale(0.1 -0.1)">
       <use xlink:href="#DejaVuSans-48"/>
       <use x="63.623047" xlink:href="#DejaVuSans-46"/>
       <use x="95.410156" xlink:href="#DejaVuSans-50"/>
      </g>
     </g>
    </g>
    <g id="ytick_3">
     <g id="line2d_9">
      <g>
       <use style="stroke:#000000;stroke-width:0.8;" x="57.6" xlink:href="#m3a98ec6994" y="177.693377"/>
      </g>
     </g>
     <g id="text_9">
      <!-- 0.4 -->
      <g transform="translate(34.696875 181.492595)scale(0.1 -0.1)">
       <use xlink:href="#DejaVuSans-48"/>
       <use x="63.623047" xlink:href="#DejaVuSans-46"/>
       <use x="95.410156" xlink:href="#DejaVuSans-52"/>
      </g>
     </g>
    </g>
    <g id="ytick_4">
     <g id="line2d_10">
      <g>
       <use style="stroke:#000000;stroke-width:0.8;" x="57.6" xlink:href="#m3a98ec6994" y="129.015967"/>
      </g>
     </g>
     <g id="text_10">
      <!-- 0.6 -->
      <g transform="translate(34.696875 132.815185)scale(0.1 -0.1)">
       <defs>
        <path d="M 33.015625 40.375 
Q 26.375 40.375 22.484375 35.828125 
Q 18.609375 31.296875 18.609375 23.390625 
Q 18.609375 15.53125 22.484375 10.953125 
Q 26.375 6.390625 33.015625 6.390625 
Q 39.65625 6.390625 43.53125 10.953125 
Q 47.40625 15.53125 47.40625 23.390625 
Q 47.40625 31.296875 43.53125 35.828125 
Q 39.65625 40.375 33.015625 40.375 
z
M 52.59375 71.296875 
L 52.59375 62.3125 
Q 48.875 64.0625 45.09375 64.984375 
Q 41.3125 65.921875 37.59375 65.921875 
Q 27.828125 65.921875 22.671875 59.328125 
Q 17.53125 52.734375 16.796875 39.40625 
Q 19.671875 43.65625 24.015625 45.921875 
Q 28.375 48.1875 33.59375 48.1875 
Q 44.578125 48.1875 50.953125 41.515625 
Q 57.328125 34.859375 57.328125 23.390625 
Q 57.328125 12.15625 50.6875 5.359375 
Q 44.046875 -1.421875 33.015625 -1.421875 
Q 20.359375 -1.421875 13.671875 8.265625 
Q 6.984375 17.96875 6.984375 36.375 
Q 6.984375 53.65625 15.1875 63.9375 
Q 23.390625 74.21875 37.203125 74.21875 
Q 40.921875 74.21875 44.703125 73.484375 
Q 48.484375 72.75 52.59375 71.296875 
z
" id="DejaVuSans-54"/>
       </defs>
       <use xlink:href="#DejaVuSans-48"/>
       <use x="63.623047" xlink:href="#DejaVuSans-46"/>
       <use x="95.410156" xlink:href="#DejaVuSans-54"/>
      </g>
     </g>
    </g>
    <g id="ytick_5">
     <g id="line2d_11">
      <g>
       <use style="stroke:#000000;stroke-width:0.8;" x="57.6" xlink:href="#m3a98ec6994" y="80.338556"/>
      </g>
     </g>
     <g id="text_11">
      <!-- 0.8 -->
      <g transform="translate(34.696875 84.137775)scale(0.1 -0.1)">
       <defs>
        <path d="M 31.78125 34.625 
Q 24.75 34.625 20.71875 30.859375 
Q 16.703125 27.09375 16.703125 20.515625 
Q 16.703125 13.921875 20.71875 10.15625 
Q 24.75 6.390625 31.78125 6.390625 
Q 38.8125 6.390625 42.859375 10.171875 
Q 46.921875 13.96875 46.921875 20.515625 
Q 46.921875 27.09375 42.890625 30.859375 
Q 38.875 34.625 31.78125 34.625 
z
M 21.921875 38.8125 
Q 15.578125 40.375 12.03125 44.71875 
Q 8.5 49.078125 8.5 55.328125 
Q 8.5 64.0625 14.71875 69.140625 
Q 20.953125 74.21875 31.78125 74.21875 
Q 42.671875 74.21875 48.875 69.140625 
Q 55.078125 64.0625 55.078125 55.328125 
Q 55.078125 49.078125 51.53125 44.71875 
Q 48 40.375 41.703125 38.8125 
Q 48.828125 37.15625 52.796875 32.3125 
Q 56.78125 27.484375 56.78125 20.515625 
Q 56.78125 9.90625 50.3125 4.234375 
Q 43.84375 -1.421875 31.78125 -1.421875 
Q 19.734375 -1.421875 13.25 4.234375 
Q 6.78125 9.90625 6.78125 20.515625 
Q 6.78125 27.484375 10.78125 32.3125 
Q 14.796875 37.15625 21.921875 38.8125 
z
M 18.3125 54.390625 
Q 18.3125 48.734375 21.84375 45.5625 
Q 25.390625 42.390625 31.78125 42.390625 
Q 38.140625 42.390625 41.71875 45.5625 
Q 45.3125 48.734375 45.3125 54.390625 
Q 45.3125 60.0625 41.71875 63.234375 
Q 38.140625 66.40625 31.78125 66.40625 
Q 25.390625 66.40625 21.84375 63.234375 
Q 18.3125 60.0625 18.3125 54.390625 
z
" id="DejaVuSans-56"/>
       </defs>
       <use xlink:href="#DejaVuSans-48"/>
       <use x="63.623047" xlink:href="#DejaVuSans-46"/>
       <use x="95.410156" xlink:href="#DejaVuSans-56"/>
      </g>
     </g>
    </g>
   </g>
   <g id="line2d_12">
    <path clip-path="url(#p0aa649d6a4)" d="M 73.832727 275.087139 
L 75.784558 274.950765 
L 77.085779 275.071239 
L 79.03761 274.976533 
L 80.989441 275.010926 
L 99.206529 275.015695 
L 100.50775 275.025724 
L 101.808971 274.899751 
L 103.110191 275.142162 
L 105.062022 274.864295 
L 106.363243 275.161341 
L 108.315074 274.88546 
L 109.616294 275.10738 
L 111.568125 274.967735 
L 114.821177 275.087455 
L 116.122398 274.849352 
L 116.773008 274.951951 
L 117.423618 275.178925 
L 118.074228 275.197518 
L 119.375449 274.75361 
L 120.026059 274.933012 
L 120.67667 275.242702 
L 121.32728 275.245144 
L 121.97789 274.938563 
L 122.628501 274.761923 
L 123.929721 275.214522 
L 124.580332 275.196824 
L 125.230942 274.981541 
L 125.881552 274.898719 
L 127.182773 275.092107 
L 128.483993 275.060033 
L 129.785214 275.096666 
L 130.435824 274.91986 
L 131.086435 274.886121 
L 132.387655 275.379718 
L 133.038266 275.183645 
L 133.688876 274.777433 
L 134.339486 274.760271 
L 134.990097 275.221981 
L 135.640707 275.533209 
L 136.291317 275.237969 
L 136.941927 274.748502 
L 137.592538 274.761602 
L 138.243148 275.244854 
L 138.893758 275.510776 
L 140.194979 274.881123 
L 140.845589 274.926785 
L 141.4962 275.210558 
L 142.14681 275.299318 
L 143.448031 275.157472 
L 144.098641 275.223262 
L 145.399862 274.975034 
L 146.050472 275.105855 
L 146.701082 275.489515 
L 147.351692 275.551373 
L 148.652913 274.684296 
L 149.303523 275.05102 
L 149.954134 275.74759 
L 150.604744 275.779082 
L 151.255354 275.0498 
L 151.905965 274.587282 
L 152.556575 275.067065 
L 153.207185 275.814185 
L 153.857796 275.798587 
L 154.508406 275.122565 
L 155.159016 274.784634 
L 156.460237 275.641739 
L 157.110847 275.581697 
L 157.761457 275.287852 
L 158.412068 275.259045 
L 159.062678 275.372513 
L 160.363899 275.20749 
L 161.665119 275.862022 
L 162.31573 275.595077 
L 162.96634 274.906492 
L 163.61695 274.844429 
L 164.267561 275.711487 
L 164.918171 276.35981 
L 165.568781 275.771984 
L 166.219392 274.694378 
L 166.870002 274.687555 
L 167.520612 275.82765 
L 168.171222 276.527023 
L 168.821833 275.837929 
L 169.472443 274.805704 
L 170.123053 274.872467 
L 170.773664 275.811708 
L 171.424274 276.252481 
L 172.725495 275.273828 
L 173.376105 275.40201 
L 174.026715 275.674066 
L 175.327936 275.59883 
L 175.978546 275.974378 
L 176.629156 276.12151 
L 177.930377 274.858761 
L 178.580987 275.416981 
L 179.231598 276.654441 
L 179.882208 276.761822 
L 180.532818 275.348487 
L 181.183429 274.353102 
L 181.834039 275.333569 
L 182.484649 277.025245 
L 183.13526 277.04177 
L 183.78587 275.36906 
L 184.43648 274.401854 
L 185.087091 275.434772 
L 185.737701 276.886918 
L 186.388311 276.793574 
L 187.038921 275.595348 
L 187.689532 275.117595 
L 188.990752 276.234797 
L 190.291973 275.992529 
L 190.942583 276.3303 
L 191.593194 276.174703 
L 192.243804 275.297192 
L 192.894414 275.109202 
L 194.195635 277.610695 
L 194.846245 276.597799 
L 195.496856 274.476856 
L 196.147466 274.36644 
L 196.798076 276.774095 
L 197.448686 278.411586 
L 198.099297 276.83895 
L 198.749907 274.205739 
L 199.400517 274.246494 
L 200.051128 276.840835 
L 200.701738 278.285853 
L 201.352348 276.774289 
L 202.002959 274.760749 
L 202.653569 274.974646 
L 203.304179 276.576447 
L 203.95479 277.101701 
L 204.6054 276.388104 
L 205.25601 276.111242 
L 205.906621 276.448227 
L 206.557231 276.04736 
L 207.207841 275.166014 
L 207.858451 275.802492 
L 208.509062 277.865413 
L 209.159672 278.208533 
L 209.810282 275.451934 
L 210.460893 273.192337 
L 211.111503 275.256889 
L 211.762113 279.351532 
L 212.412724 279.549117 
L 213.063334 275.069121 
L 213.713944 272.104183 
L 214.364555 275.038533 
L 215.015165 279.820751 
L 215.665775 279.736807 
L 216.316385 275.168209 
L 216.966996 272.727911 
L 217.617606 275.38423 
L 218.268216 278.709431 
L 218.918827 278.275378 
L 219.569437 275.909069 
L 220.220047 275.477786 
L 220.870658 276.386942 
L 221.521268 275.869719 
L 222.171878 275.118512 
L 222.822489 277.268851 
L 223.473099 280.148687 
L 224.123709 277.942069 
L 224.77432 271.680638 
L 225.42493 270.749228 
L 226.72615 285.901802 
L 227.376761 279.756494 
L 228.027371 266.988989 
L 228.677981 266.085653 
L 229.328592 280.801292 
L 229.979202 291.464295 
L 230.629812 281.422183 
L 231.280423 262.887803 
L 231.931033 262.233334 
L 232.581643 282.17736 
L 233.232254 295.488 
L 233.882864 282.53303 
L 234.533474 260.398824 
L 235.184085 260.160351 
L 235.834695 282.807799 
L 236.485305 53.568 
L 237.135915 282.807233 
L 237.786526 260.162523 
L 238.437136 260.402029 
L 239.087746 282.530847 
L 239.738357 295.480546 
L 240.388967 282.174239 
L 241.039577 262.239877 
L 241.690188 262.8949 
L 242.340798 281.417997 
L 242.991408 291.452314 
L 243.642019 280.796673 
L 244.292629 266.093505 
L 244.943239 266.996639 
L 245.59385 279.751679 
L 246.24446 285.889908 
L 246.89507 279.019738 
L 247.54568 270.754571 
L 248.196291 271.68507 
L 248.846901 277.938047 
L 249.497511 280.141223 
L 250.148122 277.265437 
L 250.798732 275.118398 
L 251.449342 275.868335 
L 252.099953 276.384587 
L 252.750563 275.476999 
L 253.401173 275.907427 
L 254.051784 278.268983 
L 254.702394 278.701903 
L 255.353004 275.383514 
L 256.003615 272.733028 
L 256.654225 275.167936 
L 257.304835 279.725764 
L 257.955445 279.809152 
L 258.606056 275.038557 
L 259.256666 272.111781 
L 259.907276 275.069065 
L 260.557887 279.536819 
L 261.208497 279.339447 
L 261.859107 275.256287 
L 262.509718 273.197832 
L 263.160328 275.450708 
L 263.810938 278.198693 
L 264.461549 277.856425 
L 265.112159 275.800027 
L 265.762769 275.16562 
L 266.413379 276.043941 
L 267.06399 276.443328 
L 267.7146 276.107439 
L 268.36521 276.383206 
L 269.015821 277.094034 
L 269.666431 276.570621 
L 270.317041 274.974932 
L 270.967652 274.76189 
L 271.618262 276.767301 
L 272.268872 278.272488 
L 272.919483 276.833292 
L 273.570093 274.249932 
L 274.220703 274.209418 
L 274.871314 276.830984 
L 275.521924 278.396353 
L 276.172534 276.766139 
L 276.823144 274.369638 
L 277.473755 274.479583 
L 278.124365 276.590275 
L 278.774975 277.598043 
L 280.076196 275.10889 
L 280.726806 275.295901 
L 281.377417 276.168766 
L 282.028027 276.323436 
L 282.678637 275.987394 
L 283.979858 276.228143 
L 285.281079 275.117194 
L 285.931689 275.592139 
L 286.582299 276.783187 
L 287.232909 276.875816 
L 287.88352 275.432404 
L 288.53413 274.40587 
L 289.18474 275.367038 
L 289.835351 277.029032 
L 290.485961 277.012437 
L 291.136571 275.331695 
L 291.787182 274.35773 
L 292.437792 275.346461 
L 293.088402 276.750103 
L 293.739013 276.64331 
L 294.389623 275.414391 
L 295.040233 274.860109 
L 296.341454 276.113676 
L 296.992064 275.967531 
L 297.642674 275.594708 
L 298.943895 275.669261 
L 299.594505 275.399261 
L 300.245116 275.272053 
L 301.546336 276.242771 
L 302.196947 275.805477 
L 302.847557 274.873919 
L 303.498167 274.807731 
L 304.148778 275.83125 
L 304.799388 276.514368 
L 305.449998 275.820901 
L 306.100608 274.690714 
L 306.751219 274.697514 
L 307.401829 275.765496 
L 308.052439 276.347917 
L 308.70305 275.705404 
L 309.35366 274.846319 
L 310.00427 274.907822 
L 310.654881 275.589889 
L 311.305491 275.854214 
L 312.606712 275.205928 
L 313.907932 275.369261 
L 314.558543 275.256907 
L 315.209153 275.285396 
L 315.859763 275.576171 
L 316.510373 275.635524 
L 317.811594 274.787453 
L 318.462204 275.121761 
L 319.112815 275.790387 
L 319.763425 275.805726 
L 320.414035 275.066854 
L 321.064646 274.59248 
L 321.715256 275.049782 
L 322.365866 275.770666 
L 323.016477 275.739453 
L 323.667087 275.050986 
L 324.317697 274.688617 
L 325.618918 275.545274 
L 326.269528 275.484111 
L 326.920138 275.105142 
L 327.570749 274.975948 
L 328.871969 275.221031 
L 330.17319 275.18221 
L 330.8238 275.29602 
L 331.474411 275.208404 
L 332.125021 274.928411 
L 332.775631 274.883383 
L 334.076852 275.504397 
L 334.727462 275.242116 
L 335.378073 274.765631 
L 336.028683 274.752756 
L 336.679293 275.235249 
L 337.329903 275.526193 
L 337.980514 275.219443 
L 338.631124 274.764516 
L 339.281734 274.781462 
L 339.932345 275.181611 
L 340.582955 275.374693 
L 341.884176 274.888623 
L 342.534786 274.921859 
L 343.185396 275.095904 
L 344.486617 275.059844 
L 346.438448 275.01026 
L 347.089058 274.901196 
L 347.739668 274.982656 
L 348.390279 275.194319 
L 349.040889 275.211695 
L 350.34211 274.766869 
L 350.99272 274.940472 
L 351.64333 275.241686 
L 352.293941 275.23926 
L 352.944551 274.935066 
L 353.595161 274.758904 
L 354.896382 275.194794 
L 355.546992 275.176523 
L 356.197602 274.953732 
L 356.848213 274.853056 
L 358.149433 275.086713 
L 362.053095 274.949093 
L 363.354316 275.106212 
L 365.306147 274.879532 
L 366.607367 275.159067 
L 368.559198 274.871098 
L 369.860419 275.140258 
L 371.81225 274.914404 
L 373.113471 275.071336 
L 375.065302 274.98243 
L 378.318353 275.044672 
L 379.619574 274.927181 
L 381.571405 275.079323 
L 382.872625 274.905736 
L 384.824456 275.079185 
L 386.125677 274.925666 
L 388.077508 275.050759 
L 389.378728 274.973449 
L 392.63178 275.028579 
L 398.487273 275.03312 
L 398.487273 275.03312 
" style="fill:none;stroke:#1f77b4;stroke-linecap:square;stroke-width:1.5;"/>
   </g>
   <g id="patch_3">
    <path d="M 57.6 307.584 
L 57.6 41.472 
" style="fill:none;stroke:#000000;stroke-linecap:square;stroke-linejoin:miter;stroke-width:0.8;"/>
   </g>
   <g id="patch_4">
    <path d="M 414.72 307.584 
L 414.72 41.472 
" style="fill:none;stroke:#000000;stroke-linecap:square;stroke-linejoin:miter;stroke-width:0.8;"/>
   </g>
   <g id="patch_5">
    <path d="M 57.6 307.584 
L 414.72 307.584 
" style="fill:none;stroke:#000000;stroke-linecap:square;stroke-linejoin:miter;stroke-width:0.8;"/>
   </g>
   <g id="patch_6">
    <path d="M 57.6 41.472 
L 414.72 41.472 
" style="fill:none;stroke:#000000;stroke-linecap:square;stroke-linejoin:miter;stroke-width:0.8;"/>
   </g>
  </g>
 </g>
 <defs>
  <clipPath id="p0aa649d6a4">
   <rect height="266.112" width="357.12" x="57.6" y="41.472"/>
  </clipPath>
 </defs>
</svg>
