<?xml version="1.0" encoding="utf-8" standalone="no"?>
<!DOCTYPE svg PUBLIC "-//W3C//DTD SVG 1.1//EN"
  "http://www.w3.org/Graphics/SVG/1.1/DTD/svg11.dtd">
<!-- Created with matplotlib (https://matplotlib.org/) -->
<svg height="345.6pt" version="1.1" viewBox="0 0 460.8 345.6" width="460.8pt" xmlns="http://www.w3.org/2000/svg" xmlns:xlink="http://www.w3.org/1999/xlink">
 <metadata>
  <rdf:RDF xmlns:cc="http://creativecommons.org/ns#" xmlns:dc="http://purl.org/dc/elements/1.1/" xmlns:rdf="http://www.w3.org/1999/02/22-rdf-syntax-ns#">
   <cc:Work>
    <dc:type rdf:resource="http://purl.org/dc/dcmitype/StillImage"/>
    <dc:date>2020-11-10T22:25:27.724557</dc:date>
    <dc:format>image/svg+xml</dc:format>
    <dc:creator>
     <cc:Agent>
      <dc:title>Matplotlib v3.3.2, https://matplotlib.org/</dc:title>
     </cc:Agent>
    </dc:creator>
   </cc:Work>
  </rdf:RDF>
 </metadata>
 <defs>
  <style type="text/css">*{stroke-linecap:butt;stroke-linejoin:round;}</style>
 </defs>
 <g id="figure_1">
  <g id="patch_1">
   <path d="M 0 345.6 
L 460.8 345.6 
L 460.8 0 
L 0 0 
z
" style="fill:#ffffff;"/>
  </g>
  <g id="axes_1">
   <g id="patch_2">
    <path d="M 57.6 307.584 
L 414.72 307.584 
L 414.72 41.472 
L 57.6 41.472 
z
" style="fill:#ffffff;"/>
   </g>
   <g id="matplotlib.axis_1">
    <g id="xtick_1">
     <g id="line2d_1">
      <defs>
       <path d="M 0 0 
L 0 3.5 
" id="mc061e4bbbe" style="stroke:#000000;stroke-width:0.8;"/>
      </defs>
      <g>
       <use style="stroke:#000000;stroke-width:0.8;" x="74.765643" xlink:href="#mc061e4bbbe" y="307.584"/>
      </g>
     </g>
     <g id="text_1">
      <!-- 0 -->
      <g transform="translate(71.584393 322.182437)scale(0.1 -0.1)">
       <defs>
        <path d="M 31.78125 66.40625 
Q 24.171875 66.40625 20.328125 58.90625 
Q 16.5 51.421875 16.5 36.375 
Q 16.5 21.390625 20.328125 13.890625 
Q 24.171875 6.390625 31.78125 6.390625 
Q 39.453125 6.390625 43.28125 13.890625 
Q 47.125 21.390625 47.125 36.375 
Q 47.125 51.421875 43.28125 58.90625 
Q 39.453125 66.40625 31.78125 66.40625 
z
M 31.78125 74.21875 
Q 44.046875 74.21875 50.515625 64.515625 
Q 56.984375 54.828125 56.984375 36.375 
Q 56.984375 17.96875 50.515625 8.265625 
Q 44.046875 -1.421875 31.78125 -1.421875 
Q 19.53125 -1.421875 13.0625 8.265625 
Q 6.59375 17.96875 6.59375 36.375 
Q 6.59375 54.828125 13.0625 64.515625 
Q 19.53125 74.21875 31.78125 74.21875 
z
" id="DejaVuSans-48"/>
       </defs>
       <use xlink:href="#DejaVuSans-48"/>
      </g>
     </g>
    </g>
    <g id="xtick_2">
     <g id="line2d_2">
      <g>
       <use style="stroke:#000000;stroke-width:0.8;" x="136.586086" xlink:href="#mc061e4bbbe" y="307.584"/>
      </g>
     </g>
     <g id="text_2">
      <!-- 50 -->
      <g transform="translate(130.223586 322.182437)scale(0.1 -0.1)">
       <defs>
        <path d="M 10.796875 72.90625 
L 49.515625 72.90625 
L 49.515625 64.59375 
L 19.828125 64.59375 
L 19.828125 46.734375 
Q 21.96875 47.46875 24.109375 47.828125 
Q 26.265625 48.1875 28.421875 48.1875 
Q 40.625 48.1875 47.75 41.5 
Q 54.890625 34.8125 54.890625 23.390625 
Q 54.890625 11.625 47.5625 5.09375 
Q 40.234375 -1.421875 26.90625 -1.421875 
Q 22.3125 -1.421875 17.546875 -0.640625 
Q 12.796875 0.140625 7.71875 1.703125 
L 7.71875 11.625 
Q 12.109375 9.234375 16.796875 8.0625 
Q 21.484375 6.890625 26.703125 6.890625 
Q 35.15625 6.890625 40.078125 11.328125 
Q 45.015625 15.765625 45.015625 23.390625 
Q 45.015625 31 40.078125 35.4375 
Q 35.15625 39.890625 26.703125 39.890625 
Q 22.75 39.890625 18.8125 39.015625 
Q 14.890625 38.140625 10.796875 36.28125 
z
" id="DejaVuSans-53"/>
       </defs>
       <use xlink:href="#DejaVuSans-53"/>
       <use x="63.623047" xlink:href="#DejaVuSans-48"/>
      </g>
     </g>
    </g>
    <g id="xtick_3">
     <g id="line2d_3">
      <g>
       <use style="stroke:#000000;stroke-width:0.8;" x="198.406529" xlink:href="#mc061e4bbbe" y="307.584"/>
      </g>
     </g>
     <g id="text_3">
      <!-- 100 -->
      <g transform="translate(188.862779 322.182437)scale(0.1 -0.1)">
       <defs>
        <path d="M 12.40625 8.296875 
L 28.515625 8.296875 
L 28.515625 63.921875 
L 10.984375 60.40625 
L 10.984375 69.390625 
L 28.421875 72.90625 
L 38.28125 72.90625 
L 38.28125 8.296875 
L 54.390625 8.296875 
L 54.390625 0 
L 12.40625 0 
z
" id="DejaVuSans-49"/>
       </defs>
       <use xlink:href="#DejaVuSans-49"/>
       <use x="63.623047" xlink:href="#DejaVuSans-48"/>
       <use x="127.246094" xlink:href="#DejaVuSans-48"/>
      </g>
     </g>
    </g>
    <g id="xtick_4">
     <g id="line2d_4">
      <g>
       <use style="stroke:#000000;stroke-width:0.8;" x="260.226973" xlink:href="#mc061e4bbbe" y="307.584"/>
      </g>
     </g>
     <g id="text_4">
      <!-- 150 -->
      <g transform="translate(250.683223 322.182437)scale(0.1 -0.1)">
       <use xlink:href="#DejaVuSans-49"/>
       <use x="63.623047" xlink:href="#DejaVuSans-53"/>
       <use x="127.246094" xlink:href="#DejaVuSans-48"/>
      </g>
     </g>
    </g>
    <g id="xtick_5">
     <g id="line2d_5">
      <g>
       <use style="stroke:#000000;stroke-width:0.8;" x="322.047416" xlink:href="#mc061e4bbbe" y="307.584"/>
      </g>
     </g>
     <g id="text_5">
      <!-- 200 -->
      <g transform="translate(312.503666 322.182437)scale(0.1 -0.1)">
       <defs>
        <path d="M 19.1875 8.296875 
L 53.609375 8.296875 
L 53.609375 0 
L 7.328125 0 
L 7.328125 8.296875 
Q 12.9375 14.109375 22.625 23.890625 
Q 32.328125 33.6875 34.8125 36.53125 
Q 39.546875 41.84375 41.421875 45.53125 
Q 43.3125 49.21875 43.3125 52.78125 
Q 43.3125 58.59375 39.234375 62.25 
Q 35.15625 65.921875 28.609375 65.921875 
Q 23.96875 65.921875 18.8125 64.3125 
Q 13.671875 62.703125 7.8125 59.421875 
L 7.8125 69.390625 
Q 13.765625 71.78125 18.9375 73 
Q 24.125 74.21875 28.421875 74.21875 
Q 39.75 74.21875 46.484375 68.546875 
Q 53.21875 62.890625 53.21875 53.421875 
Q 53.21875 48.921875 51.53125 44.890625 
Q 49.859375 40.875 45.40625 35.40625 
Q 44.1875 33.984375 37.640625 27.21875 
Q 31.109375 20.453125 19.1875 8.296875 
z
" id="DejaVuSans-50"/>
       </defs>
       <use xlink:href="#DejaVuSans-50"/>
       <use x="63.623047" xlink:href="#DejaVuSans-48"/>
       <use x="127.246094" xlink:href="#DejaVuSans-48"/>
      </g>
     </g>
    </g>
    <g id="xtick_6">
     <g id="line2d_6">
      <g>
       <use style="stroke:#000000;stroke-width:0.8;" x="383.86786" xlink:href="#mc061e4bbbe" y="307.584"/>
      </g>
     </g>
     <g id="text_6">
      <!-- 250 -->
      <g transform="translate(374.32411 322.182437)scale(0.1 -0.1)">
       <use xlink:href="#DejaVuSans-50"/>
       <use x="63.623047" xlink:href="#DejaVuSans-53"/>
       <use x="127.246094" xlink:href="#DejaVuSans-48"/>
      </g>
     </g>
    </g>
   </g>
   <g id="matplotlib.axis_2">
    <g id="ytick_1">
     <g id="line2d_7">
      <defs>
       <path d="M 0 0 
L -3.5 0 
" id="mf2d48c794f" style="stroke:#000000;stroke-width:0.8;"/>
      </defs>
      <g>
       <use style="stroke:#000000;stroke-width:0.8;" x="57.6" xlink:href="#mf2d48c794f" y="306.235312"/>
      </g>
     </g>
     <g id="text_7">
      <!-- −0.1 -->
      <g transform="translate(26.317187 310.034531)scale(0.1 -0.1)">
       <defs>
        <path d="M 10.59375 35.5 
L 73.1875 35.5 
L 73.1875 27.203125 
L 10.59375 27.203125 
z
" id="DejaVuSans-8722"/>
        <path d="M 10.6875 12.40625 
L 21 12.40625 
L 21 0 
L 10.6875 0 
z
" id="DejaVuSans-46"/>
       </defs>
       <use xlink:href="#DejaVuSans-8722"/>
       <use x="83.789062" xlink:href="#DejaVuSans-48"/>
       <use x="147.412109" xlink:href="#DejaVuSans-46"/>
       <use x="179.199219" xlink:href="#DejaVuSans-49"/>
      </g>
     </g>
    </g>
    <g id="ytick_2">
     <g id="line2d_8">
      <g>
       <use style="stroke:#000000;stroke-width:0.8;" x="57.6" xlink:href="#mf2d48c794f" y="268.441409"/>
      </g>
     </g>
     <g id="text_8">
      <!-- 0.0 -->
      <g transform="translate(34.696875 272.240628)scale(0.1 -0.1)">
       <use xlink:href="#DejaVuSans-48"/>
       <use x="63.623047" xlink:href="#DejaVuSans-46"/>
       <use x="95.410156" xlink:href="#DejaVuSans-48"/>
      </g>
     </g>
    </g>
    <g id="ytick_3">
     <g id="line2d_9">
      <g>
       <use style="stroke:#000000;stroke-width:0.8;" x="57.6" xlink:href="#mf2d48c794f" y="230.647506"/>
      </g>
     </g>
     <g id="text_9">
      <!-- 0.1 -->
      <g transform="translate(34.696875 234.446725)scale(0.1 -0.1)">
       <use xlink:href="#DejaVuSans-48"/>
       <use x="63.623047" xlink:href="#DejaVuSans-46"/>
       <use x="95.410156" xlink:href="#DejaVuSans-49"/>
      </g>
     </g>
    </g>
    <g id="ytick_4">
     <g id="line2d_10">
      <g>
       <use style="stroke:#000000;stroke-width:0.8;" x="57.6" xlink:href="#mf2d48c794f" y="192.853604"/>
      </g>
     </g>
     <g id="text_10">
      <!-- 0.2 -->
      <g transform="translate(34.696875 196.652822)scale(0.1 -0.1)">
       <use xlink:href="#DejaVuSans-48"/>
       <use x="63.623047" xlink:href="#DejaVuSans-46"/>
       <use x="95.410156" xlink:href="#DejaVuSans-50"/>
      </g>
     </g>
    </g>
    <g id="ytick_5">
     <g id="line2d_11">
      <g>
       <use style="stroke:#000000;stroke-width:0.8;" x="57.6" xlink:href="#mf2d48c794f" y="155.059701"/>
      </g>
     </g>
     <g id="text_11">
      <!-- 0.3 -->
      <g transform="translate(34.696875 158.85892)scale(0.1 -0.1)">
       <defs>
        <path d="M 40.578125 39.3125 
Q 47.65625 37.796875 51.625 33 
Q 55.609375 28.21875 55.609375 21.1875 
Q 55.609375 10.40625 48.1875 4.484375 
Q 40.765625 -1.421875 27.09375 -1.421875 
Q 22.515625 -1.421875 17.65625 -0.515625 
Q 12.796875 0.390625 7.625 2.203125 
L 7.625 11.71875 
Q 11.71875 9.328125 16.59375 8.109375 
Q 21.484375 6.890625 26.8125 6.890625 
Q 36.078125 6.890625 40.9375 10.546875 
Q 45.796875 14.203125 45.796875 21.1875 
Q 45.796875 27.640625 41.28125 31.265625 
Q 36.765625 34.90625 28.71875 34.90625 
L 20.21875 34.90625 
L 20.21875 43.015625 
L 29.109375 43.015625 
Q 36.375 43.015625 40.234375 45.921875 
Q 44.09375 48.828125 44.09375 54.296875 
Q 44.09375 59.90625 40.109375 62.90625 
Q 36.140625 65.921875 28.71875 65.921875 
Q 24.65625 65.921875 20.015625 65.03125 
Q 15.375 64.15625 9.8125 62.3125 
L 9.8125 71.09375 
Q 15.4375 72.65625 20.34375 73.4375 
Q 25.25 74.21875 29.59375 74.21875 
Q 40.828125 74.21875 47.359375 69.109375 
Q 53.90625 64.015625 53.90625 55.328125 
Q 53.90625 49.265625 50.4375 45.09375 
Q 46.96875 40.921875 40.578125 39.3125 
z
" id="DejaVuSans-51"/>
       </defs>
       <use xlink:href="#DejaVuSans-48"/>
       <use x="63.623047" xlink:href="#DejaVuSans-46"/>
       <use x="95.410156" xlink:href="#DejaVuSans-51"/>
      </g>
     </g>
    </g>
    <g id="ytick_6">
     <g id="line2d_12">
      <g>
       <use style="stroke:#000000;stroke-width:0.8;" x="57.6" xlink:href="#mf2d48c794f" y="117.265798"/>
      </g>
     </g>
     <g id="text_12">
      <!-- 0.4 -->
      <g transform="translate(34.696875 121.065017)scale(0.1 -0.1)">
       <defs>
        <path d="M 37.796875 64.3125 
L 12.890625 25.390625 
L 37.796875 25.390625 
z
M 35.203125 72.90625 
L 47.609375 72.90625 
L 47.609375 25.390625 
L 58.015625 25.390625 
L 58.015625 17.1875 
L 47.609375 17.1875 
L 47.609375 0 
L 37.796875 0 
L 37.796875 17.1875 
L 4.890625 17.1875 
L 4.890625 26.703125 
z
" id="DejaVuSans-52"/>
       </defs>
       <use xlink:href="#DejaVuSans-48"/>
       <use x="63.623047" xlink:href="#DejaVuSans-46"/>
       <use x="95.410156" xlink:href="#DejaVuSans-52"/>
      </g>
     </g>
    </g>
    <g id="ytick_7">
     <g id="line2d_13">
      <g>
       <use style="stroke:#000000;stroke-width:0.8;" x="57.6" xlink:href="#mf2d48c794f" y="79.471895"/>
      </g>
     </g>
     <g id="text_13">
      <!-- 0.5 -->
      <g transform="translate(34.696875 83.271114)scale(0.1 -0.1)">
       <use xlink:href="#DejaVuSans-48"/>
       <use x="63.623047" xlink:href="#DejaVuSans-46"/>
       <use x="95.410156" xlink:href="#DejaVuSans-53"/>
      </g>
     </g>
    </g>
    <g id="ytick_8">
     <g id="line2d_14">
      <g>
       <use style="stroke:#000000;stroke-width:0.8;" x="57.6" xlink:href="#mf2d48c794f" y="41.677993"/>
      </g>
     </g>
     <g id="text_14">
      <!-- 0.6 -->
      <g transform="translate(34.696875 45.477211)scale(0.1 -0.1)">
       <defs>
        <path d="M 33.015625 40.375 
Q 26.375 40.375 22.484375 35.828125 
Q 18.609375 31.296875 18.609375 23.390625 
Q 18.609375 15.53125 22.484375 10.953125 
Q 26.375 6.390625 33.015625 6.390625 
Q 39.65625 6.390625 43.53125 10.953125 
Q 47.40625 15.53125 47.40625 23.390625 
Q 47.40625 31.296875 43.53125 35.828125 
Q 39.65625 40.375 33.015625 40.375 
z
M 52.59375 71.296875 
L 52.59375 62.3125 
Q 48.875 64.0625 45.09375 64.984375 
Q 41.3125 65.921875 37.59375 65.921875 
Q 27.828125 65.921875 22.671875 59.328125 
Q 17.53125 52.734375 16.796875 39.40625 
Q 19.671875 43.65625 24.015625 45.921875 
Q 28.375 48.1875 33.59375 48.1875 
Q 44.578125 48.1875 50.953125 41.515625 
Q 57.328125 34.859375 57.328125 23.390625 
Q 57.328125 12.15625 50.6875 5.359375 
Q 44.046875 -1.421875 33.015625 -1.421875 
Q 20.359375 -1.421875 13.671875 8.265625 
Q 6.984375 17.96875 6.984375 36.375 
Q 6.984375 53.65625 15.1875 63.9375 
Q 23.390625 74.21875 37.203125 74.21875 
Q 40.921875 74.21875 44.703125 73.484375 
Q 48.484375 72.75 52.59375 71.296875 
z
" id="DejaVuSans-54"/>
       </defs>
       <use xlink:href="#DejaVuSans-48"/>
       <use x="63.623047" xlink:href="#DejaVuSans-46"/>
       <use x="95.410156" xlink:href="#DejaVuSans-54"/>
      </g>
     </g>
    </g>
   </g>
   <g id="line2d_15">
    <path clip-path="url(#p42cc3c5a67)" d="M 74.765643 269.197287 
L 76.002052 268.148757 
L 77.23846 266.505218 
L 78.474869 266.557942 
L 79.711278 268.091157 
L 80.947687 268.883626 
L 82.184096 268.018308 
L 83.420505 266.953258 
L 84.656914 267.089778 
L 85.893322 267.870167 
L 87.129731 268.074154 
L 88.36614 267.755721 
L 89.602549 267.718099 
L 90.838958 267.882378 
L 92.075367 267.580859 
L 93.311776 267.109241 
L 94.548185 267.474441 
L 95.784593 268.485954 
L 97.021002 268.610669 
L 98.257411 267.349514 
L 99.49382 266.397735 
L 100.730229 267.298623 
L 101.966638 268.942721 
L 103.203047 268.977112 
L 104.439455 267.281394 
L 105.675864 266.247766 
L 106.912273 267.311682 
L 108.148682 268.904228 
L 109.385091 268.835265 
L 110.6215 267.416904 
L 111.857909 266.738163 
L 114.330726 268.393645 
L 115.567135 268.251766 
L 116.803544 267.714222 
L 118.039953 267.68363 
L 119.276362 267.855673 
L 121.74918 267.480742 
L 124.221997 268.708839 
L 125.458406 268.192054 
L 126.694815 266.956895 
L 127.931224 266.860336 
L 129.167633 268.342068 
L 130.404042 269.402064 
L 131.640451 268.407444 
L 132.876859 266.667516 
L 134.113268 266.673076 
L 135.349677 268.445274 
L 136.586086 269.486007 
L 137.822495 268.429556 
L 139.058904 266.915425 
L 140.295313 267.02719 
L 141.531721 268.350385 
L 142.76813 268.935584 
L 145.240948 267.630161 
L 146.477357 267.808186 
L 147.713766 268.11696 
L 148.950175 267.993171 
L 150.186584 268.010864 
L 151.422992 268.545936 
L 152.659401 268.721944 
L 155.132219 267.073084 
L 156.368628 267.791363 
L 157.605037 269.308132 
L 158.841446 269.413346 
L 160.077855 267.730517 
L 161.314263 266.592483 
L 162.550672 267.731362 
L 163.787081 269.619199 
L 165.02349 269.613049 
L 166.259899 267.800555 
L 167.496308 266.796943 
L 168.732717 267.890961 
L 169.969125 269.364506 
L 171.205534 269.252379 
L 172.441943 268.083788 
L 173.678352 267.652717 
L 174.914761 268.24124 
L 176.15117 268.665574 
L 177.387579 268.49795 
L 178.623988 268.499908 
L 179.860396 268.852127 
L 181.096805 268.67345 
L 182.333214 267.836576 
L 183.569623 267.689362 
L 184.806032 268.9112 
L 186.042441 269.933205 
L 187.27885 269.041751 
L 188.515258 267.25917 
L 189.751667 267.202768 
L 190.988076 269.178103 
L 192.224485 270.467693 
L 193.460894 269.222877 
L 194.697303 267.224802 
L 195.933712 267.294337 
L 197.170121 269.217553 
L 198.406529 270.241885 
L 199.642938 269.168603 
L 200.879347 267.808672 
L 202.115756 267.987759 
L 203.352165 269.040016 
L 204.588574 269.355106 
L 205.824983 268.929012 
L 207.061391 268.828781 
L 208.2978 269.054092 
L 209.534209 268.749045 
L 210.770618 268.191748 
L 212.007027 268.635728 
L 213.243436 269.910521 
L 214.479845 270.096138 
L 215.716254 268.501981 
L 216.952662 267.273095 
L 218.189071 268.450365 
L 219.42548 270.634621 
L 220.661889 270.706984 
L 221.898298 268.446322 
L 223.134707 267.044887 
L 224.371116 268.497938 
L 225.607525 270.711028 
L 226.843933 270.640516 
L 228.080342 268.656996 
L 229.316751 267.685531 
L 230.55316 268.8121 
L 231.789569 270.107991 
L 233.025978 269.923885 
L 234.262387 269.100532 
L 235.498795 269.015425 
L 236.735204 269.31548 
L 239.208022 268.862297 
L 241.68084 270.550427 
L 242.917249 269.845197 
L 244.153658 268.081079 
L 245.390066 267.928069 
L 246.626475 270.097068 
L 247.862884 271.68568 
L 249.099293 270.215647 
L 250.335702 267.581771 
L 251.572111 267.57287 
L 252.80852 270.302327 
L 254.044928 271.941843 
L 255.281337 270.294924 
L 256.517746 267.877031 
L 257.754155 268.035794 
L 258.990564 270.189348 
L 260.226973 271.176202 
L 262.699791 268.945711 
L 263.936199 269.226062 
L 265.172608 269.818745 
L 266.409017 269.669321 
L 267.645426 269.634986 
L 268.881835 270.434196 
L 270.118244 270.733912 
L 272.591061 268.042564 
L 273.82747 269.212409 
L 275.063879 271.776239 
L 276.300288 271.974849 
L 277.536697 269.05642 
L 278.773106 267.027294 
L 280.009515 269.018162 
L 281.245924 272.411252 
L 282.482332 272.418857 
L 283.718741 269.07754 
L 284.95515 267.167955 
L 286.191559 269.198391 
L 287.427968 272.020212 
L 288.664377 271.818314 
L 289.900786 269.493813 
L 291.137195 268.574119 
L 292.373603 269.754418 
L 293.610012 270.684986 
L 294.846421 270.342102 
L 296.08283 270.207399 
L 297.319239 270.826226 
L 298.555648 270.52576 
L 299.792057 268.89973 
L 301.028465 268.553127 
L 302.264874 270.979518 
L 303.501283 273.087477 
L 304.737692 271.237352 
L 305.974101 267.415461 
L 307.21051 267.222931 
L 308.446919 271.511819 
L 309.683328 274.397849 
L 310.919736 271.59866 
L 312.156145 266.962571 
L 313.392554 267.040147 
L 314.628963 271.561503 
L 315.865372 274.0533 
L 317.101781 271.421164 
L 318.33819 267.947158 
L 319.574598 268.315434 
L 320.811007 271.048956 
L 322.047416 271.93208 
L 323.283825 270.710739 
L 324.520234 270.235392 
L 325.756643 270.795818 
L 326.993052 270.115937 
L 328.229461 268.638202 
L 329.465869 269.697211 
L 330.702278 273.116739 
L 331.938687 273.669836 
L 333.175096 269.107319 
L 334.411505 265.389481 
L 335.647914 268.78361 
L 336.884323 275.477942 
L 338.120731 275.780912 
L 339.35714 268.475438 
L 340.593549 263.665814 
L 341.829958 268.425772 
L 343.066367 276.144982 
L 344.302776 275.99166 
L 345.539185 268.634229 
L 346.775594 264.721705 
L 348.012002 268.978964 
L 349.248411 274.28627 
L 350.48482 273.58313 
L 351.721229 269.810381 
L 352.957638 269.123297 
L 354.194047 270.562662 
L 355.430456 269.740925 
L 356.666865 268.552457 
L 357.903273 271.943075 
L 359.139682 276.47241 
L 360.376091 272.991637 
L 361.6125 263.153341 
L 362.848909 261.699141 
L 364.085318 274.670158 
L 365.321727 285.425078 
L 366.558135 275.801396 
L 367.794544 255.855253 
L 369.030953 254.456766 
L 370.267362 277.411003 
L 371.503771 294.016909 
L 372.74018 278.365255 
L 373.976589 249.519585 
L 375.212998 248.5114 
L 376.449406 279.524016 
L 377.685815 300.204424 
L 378.922224 280.069286 
L 380.158633 245.688219 
L 381.395042 245.3212 
L 382.631451 280.490872 
L 383.609157 -1 
M 384.126563 -1 
L 385.104268 280.490872 
L 386.340677 245.3212 
L 387.577086 245.688219 
L 388.813495 280.069286 
L 390.049904 300.204424 
L 391.286313 279.524016 
L 392.522722 248.5114 
L 393.759131 249.519585 
L 394.995539 278.365255 
L 396.231948 294.016909 
L 397.468357 277.411003 
L 398.704766 254.456766 
L 399.941175 255.855253 
L 401.177584 275.801396 
L 402.413993 285.425078 
L 403.650401 274.670158 
L 404.88681 261.699141 
L 406.123219 263.153341 
L 407.359628 272.991637 
L 408.596037 276.47241 
L 409.832446 271.943075 
L 411.068855 268.552457 
L 412.305264 269.740925 
L 413.541672 270.562662 
L 414.778081 269.123297 
L 416.01449 269.810381 
L 417.250899 273.58313 
L 418.487308 274.28627 
L 419.723717 268.978964 
L 420.960126 264.721705 
L 422.196535 268.634229 
L 423.432943 275.99166 
L 424.669352 276.144982 
L 425.905761 268.425772 
L 427.14217 263.665814 
L 428.378579 268.475438 
L 429.614988 275.780912 
L 430.851397 275.477942 
L 432.087805 268.78361 
L 433.324214 265.389481 
L 434.560623 269.107319 
L 435.797032 273.669836 
L 437.033441 273.116739 
L 438.26985 269.697211 
L 439.506259 268.638202 
L 440.742668 270.115937 
L 441.979076 270.795818 
L 443.215485 270.235392 
L 444.451894 270.710739 
L 445.688303 271.93208 
L 446.924712 271.048956 
L 448.161121 268.315434 
L 449.39753 267.947158 
L 450.633938 271.421164 
L 451.870347 274.0533 
L 453.106756 271.561503 
L 454.343165 267.040147 
L 455.579574 266.962571 
L 456.815983 271.59866 
L 458.052392 274.397849 
L 459.288801 271.511819 
L 460.525209 267.222931 
L 461.761618 267.415461 
L 461.8 267.534104 
L 461.8 267.534104 
" style="fill:none;stroke:#1f77b4;stroke-linecap:square;stroke-width:1.5;"/>
   </g>
   <g id="patch_3">
    <path d="M 57.6 307.584 
L 57.6 41.472 
" style="fill:none;stroke:#000000;stroke-linecap:square;stroke-linejoin:miter;stroke-width:0.8;"/>
   </g>
   <g id="patch_4">
    <path d="M 414.72 307.584 
L 414.72 41.472 
" style="fill:none;stroke:#000000;stroke-linecap:square;stroke-linejoin:miter;stroke-width:0.8;"/>
   </g>
   <g id="patch_5">
    <path d="M 57.6 307.584 
L 414.72 307.584 
" style="fill:none;stroke:#000000;stroke-linecap:square;stroke-linejoin:miter;stroke-width:0.8;"/>
   </g>
   <g id="patch_6">
    <path d="M 57.6 41.472 
L 414.72 41.472 
" style="fill:none;stroke:#000000;stroke-linecap:square;stroke-linejoin:miter;stroke-width:0.8;"/>
   </g>
  </g>
 </g>
 <defs>
  <clipPath id="p42cc3c5a67">
   <rect height="266.112" width="357.12" x="57.6" y="41.472"/>
  </clipPath>
 </defs>
</svg>
