<?xml version="1.0" encoding="utf-8" standalone="no"?>
<!DOCTYPE svg PUBLIC "-//W3C//DTD SVG 1.1//EN"
  "http://www.w3.org/Graphics/SVG/1.1/DTD/svg11.dtd">
<!-- Created with matplotlib (https://matplotlib.org/) -->
<svg height="345.6pt" version="1.1" viewBox="0 0 460.8 345.6" width="460.8pt" xmlns="http://www.w3.org/2000/svg" xmlns:xlink="http://www.w3.org/1999/xlink">
 <metadata>
  <rdf:RDF xmlns:cc="http://creativecommons.org/ns#" xmlns:dc="http://purl.org/dc/elements/1.1/" xmlns:rdf="http://www.w3.org/1999/02/22-rdf-syntax-ns#">
   <cc:Work>
    <dc:type rdf:resource="http://purl.org/dc/dcmitype/StillImage"/>
    <dc:date>2020-11-09T00:57:52.124862</dc:date>
    <dc:format>image/svg+xml</dc:format>
    <dc:creator>
     <cc:Agent>
      <dc:title>Matplotlib v3.3.2, https://matplotlib.org/</dc:title>
     </cc:Agent>
    </dc:creator>
   </cc:Work>
  </rdf:RDF>
 </metadata>
 <defs>
  <style type="text/css">*{stroke-linecap:butt;stroke-linejoin:round;}</style>
 </defs>
 <g id="figure_1">
  <g id="patch_1">
   <path d="M 0 345.6 
L 460.8 345.6 
L 460.8 0 
L 0 0 
z
" style="fill:#ffffff;"/>
  </g>
  <g id="axes_1">
   <g id="patch_2">
    <path d="M 57.6 307.584 
L 414.72 307.584 
L 414.72 41.472 
L 57.6 41.472 
z
" style="fill:#ffffff;"/>
   </g>
   <g id="matplotlib.axis_1">
    <g id="xtick_1">
     <g id="line2d_1">
      <defs>
       <path d="M 0 0 
L 0 3.5 
" id="mb3ae7cad3e" style="stroke:#000000;stroke-width:0.8;"/>
      </defs>
      <g>
       <use style="stroke:#000000;stroke-width:0.8;" x="73.832727" xlink:href="#mb3ae7cad3e" y="307.584"/>
      </g>
     </g>
     <g id="text_1">
      <!-- 0.0 -->
      <g transform="translate(65.881165 322.182437)scale(0.1 -0.1)">
       <defs>
        <path d="M 31.78125 66.40625 
Q 24.171875 66.40625 20.328125 58.90625 
Q 16.5 51.421875 16.5 36.375 
Q 16.5 21.390625 20.328125 13.890625 
Q 24.171875 6.390625 31.78125 6.390625 
Q 39.453125 6.390625 43.28125 13.890625 
Q 47.125 21.390625 47.125 36.375 
Q 47.125 51.421875 43.28125 58.90625 
Q 39.453125 66.40625 31.78125 66.40625 
z
M 31.78125 74.21875 
Q 44.046875 74.21875 50.515625 64.515625 
Q 56.984375 54.828125 56.984375 36.375 
Q 56.984375 17.96875 50.515625 8.265625 
Q 44.046875 -1.421875 31.78125 -1.421875 
Q 19.53125 -1.421875 13.0625 8.265625 
Q 6.59375 17.96875 6.59375 36.375 
Q 6.59375 54.828125 13.0625 64.515625 
Q 19.53125 74.21875 31.78125 74.21875 
z
" id="DejaVuSans-48"/>
        <path d="M 10.6875 12.40625 
L 21 12.40625 
L 21 0 
L 10.6875 0 
z
" id="DejaVuSans-46"/>
       </defs>
       <use xlink:href="#DejaVuSans-48"/>
       <use x="63.623047" xlink:href="#DejaVuSans-46"/>
       <use x="95.410156" xlink:href="#DejaVuSans-48"/>
      </g>
     </g>
    </g>
    <g id="xtick_2">
     <g id="line2d_2">
      <g>
       <use style="stroke:#000000;stroke-width:0.8;" x="117.124618" xlink:href="#mb3ae7cad3e" y="307.584"/>
      </g>
     </g>
     <g id="text_2">
      <!-- 2.5 -->
      <g transform="translate(109.173055 322.182437)scale(0.1 -0.1)">
       <defs>
        <path d="M 19.1875 8.296875 
L 53.609375 8.296875 
L 53.609375 0 
L 7.328125 0 
L 7.328125 8.296875 
Q 12.9375 14.109375 22.625 23.890625 
Q 32.328125 33.6875 34.8125 36.53125 
Q 39.546875 41.84375 41.421875 45.53125 
Q 43.3125 49.21875 43.3125 52.78125 
Q 43.3125 58.59375 39.234375 62.25 
Q 35.15625 65.921875 28.609375 65.921875 
Q 23.96875 65.921875 18.8125 64.3125 
Q 13.671875 62.703125 7.8125 59.421875 
L 7.8125 69.390625 
Q 13.765625 71.78125 18.9375 73 
Q 24.125 74.21875 28.421875 74.21875 
Q 39.75 74.21875 46.484375 68.546875 
Q 53.21875 62.890625 53.21875 53.421875 
Q 53.21875 48.921875 51.53125 44.890625 
Q 49.859375 40.875 45.40625 35.40625 
Q 44.1875 33.984375 37.640625 27.21875 
Q 31.109375 20.453125 19.1875 8.296875 
z
" id="DejaVuSans-50"/>
        <path d="M 10.796875 72.90625 
L 49.515625 72.90625 
L 49.515625 64.59375 
L 19.828125 64.59375 
L 19.828125 46.734375 
Q 21.96875 47.46875 24.109375 47.828125 
Q 26.265625 48.1875 28.421875 48.1875 
Q 40.625 48.1875 47.75 41.5 
Q 54.890625 34.8125 54.890625 23.390625 
Q 54.890625 11.625 47.5625 5.09375 
Q 40.234375 -1.421875 26.90625 -1.421875 
Q 22.3125 -1.421875 17.546875 -0.640625 
Q 12.796875 0.140625 7.71875 1.703125 
L 7.71875 11.625 
Q 12.109375 9.234375 16.796875 8.0625 
Q 21.484375 6.890625 26.703125 6.890625 
Q 35.15625 6.890625 40.078125 11.328125 
Q 45.015625 15.765625 45.015625 23.390625 
Q 45.015625 31 40.078125 35.4375 
Q 35.15625 39.890625 26.703125 39.890625 
Q 22.75 39.890625 18.8125 39.015625 
Q 14.890625 38.140625 10.796875 36.28125 
z
" id="DejaVuSans-53"/>
       </defs>
       <use xlink:href="#DejaVuSans-50"/>
       <use x="63.623047" xlink:href="#DejaVuSans-46"/>
       <use x="95.410156" xlink:href="#DejaVuSans-53"/>
      </g>
     </g>
    </g>
    <g id="xtick_3">
     <g id="line2d_3">
      <g>
       <use style="stroke:#000000;stroke-width:0.8;" x="160.416508" xlink:href="#mb3ae7cad3e" y="307.584"/>
      </g>
     </g>
     <g id="text_3">
      <!-- 5.0 -->
      <g transform="translate(152.464946 322.182437)scale(0.1 -0.1)">
       <use xlink:href="#DejaVuSans-53"/>
       <use x="63.623047" xlink:href="#DejaVuSans-46"/>
       <use x="95.410156" xlink:href="#DejaVuSans-48"/>
      </g>
     </g>
    </g>
    <g id="xtick_4">
     <g id="line2d_4">
      <g>
       <use style="stroke:#000000;stroke-width:0.8;" x="203.708399" xlink:href="#mb3ae7cad3e" y="307.584"/>
      </g>
     </g>
     <g id="text_4">
      <!-- 7.5 -->
      <g transform="translate(195.756836 322.182437)scale(0.1 -0.1)">
       <defs>
        <path d="M 8.203125 72.90625 
L 55.078125 72.90625 
L 55.078125 68.703125 
L 28.609375 0 
L 18.3125 0 
L 43.21875 64.59375 
L 8.203125 64.59375 
z
" id="DejaVuSans-55"/>
       </defs>
       <use xlink:href="#DejaVuSans-55"/>
       <use x="63.623047" xlink:href="#DejaVuSans-46"/>
       <use x="95.410156" xlink:href="#DejaVuSans-53"/>
      </g>
     </g>
    </g>
    <g id="xtick_5">
     <g id="line2d_5">
      <g>
       <use style="stroke:#000000;stroke-width:0.8;" x="247.000289" xlink:href="#mb3ae7cad3e" y="307.584"/>
      </g>
     </g>
     <g id="text_5">
      <!-- 10.0 -->
      <g transform="translate(235.867477 322.182437)scale(0.1 -0.1)">
       <defs>
        <path d="M 12.40625 8.296875 
L 28.515625 8.296875 
L 28.515625 63.921875 
L 10.984375 60.40625 
L 10.984375 69.390625 
L 28.421875 72.90625 
L 38.28125 72.90625 
L 38.28125 8.296875 
L 54.390625 8.296875 
L 54.390625 0 
L 12.40625 0 
z
" id="DejaVuSans-49"/>
       </defs>
       <use xlink:href="#DejaVuSans-49"/>
       <use x="63.623047" xlink:href="#DejaVuSans-48"/>
       <use x="127.246094" xlink:href="#DejaVuSans-46"/>
       <use x="159.033203" xlink:href="#DejaVuSans-48"/>
      </g>
     </g>
    </g>
    <g id="xtick_6">
     <g id="line2d_6">
      <g>
       <use style="stroke:#000000;stroke-width:0.8;" x="290.29218" xlink:href="#mb3ae7cad3e" y="307.584"/>
      </g>
     </g>
     <g id="text_6">
      <!-- 12.5 -->
      <g transform="translate(279.159367 322.182437)scale(0.1 -0.1)">
       <use xlink:href="#DejaVuSans-49"/>
       <use x="63.623047" xlink:href="#DejaVuSans-50"/>
       <use x="127.246094" xlink:href="#DejaVuSans-46"/>
       <use x="159.033203" xlink:href="#DejaVuSans-53"/>
      </g>
     </g>
    </g>
    <g id="xtick_7">
     <g id="line2d_7">
      <g>
       <use style="stroke:#000000;stroke-width:0.8;" x="333.58407" xlink:href="#mb3ae7cad3e" y="307.584"/>
      </g>
     </g>
     <g id="text_7">
      <!-- 15.0 -->
      <g transform="translate(322.451258 322.182437)scale(0.1 -0.1)">
       <use xlink:href="#DejaVuSans-49"/>
       <use x="63.623047" xlink:href="#DejaVuSans-53"/>
       <use x="127.246094" xlink:href="#DejaVuSans-46"/>
       <use x="159.033203" xlink:href="#DejaVuSans-48"/>
      </g>
     </g>
    </g>
    <g id="xtick_8">
     <g id="line2d_8">
      <g>
       <use style="stroke:#000000;stroke-width:0.8;" x="376.875961" xlink:href="#mb3ae7cad3e" y="307.584"/>
      </g>
     </g>
     <g id="text_8">
      <!-- 17.5 -->
      <g transform="translate(365.743148 322.182437)scale(0.1 -0.1)">
       <use xlink:href="#DejaVuSans-49"/>
       <use x="63.623047" xlink:href="#DejaVuSans-55"/>
       <use x="127.246094" xlink:href="#DejaVuSans-46"/>
       <use x="159.033203" xlink:href="#DejaVuSans-53"/>
      </g>
     </g>
    </g>
    <g id="text_9">
     <!-- Time (s) -->
     <g transform="translate(215.831094 335.860562)scale(0.1 -0.1)">
      <defs>
       <path d="M -0.296875 72.90625 
L 61.375 72.90625 
L 61.375 64.59375 
L 35.5 64.59375 
L 35.5 0 
L 25.59375 0 
L 25.59375 64.59375 
L -0.296875 64.59375 
z
" id="DejaVuSans-84"/>
       <path d="M 9.421875 54.6875 
L 18.40625 54.6875 
L 18.40625 0 
L 9.421875 0 
z
M 9.421875 75.984375 
L 18.40625 75.984375 
L 18.40625 64.59375 
L 9.421875 64.59375 
z
" id="DejaVuSans-105"/>
       <path d="M 52 44.1875 
Q 55.375 50.25 60.0625 53.125 
Q 64.75 56 71.09375 56 
Q 79.640625 56 84.28125 50.015625 
Q 88.921875 44.046875 88.921875 33.015625 
L 88.921875 0 
L 79.890625 0 
L 79.890625 32.71875 
Q 79.890625 40.578125 77.09375 44.375 
Q 74.3125 48.1875 68.609375 48.1875 
Q 61.625 48.1875 57.5625 43.546875 
Q 53.515625 38.921875 53.515625 30.90625 
L 53.515625 0 
L 44.484375 0 
L 44.484375 32.71875 
Q 44.484375 40.625 41.703125 44.40625 
Q 38.921875 48.1875 33.109375 48.1875 
Q 26.21875 48.1875 22.15625 43.53125 
Q 18.109375 38.875 18.109375 30.90625 
L 18.109375 0 
L 9.078125 0 
L 9.078125 54.6875 
L 18.109375 54.6875 
L 18.109375 46.1875 
Q 21.1875 51.21875 25.484375 53.609375 
Q 29.78125 56 35.6875 56 
Q 41.65625 56 45.828125 52.96875 
Q 50 49.953125 52 44.1875 
z
" id="DejaVuSans-109"/>
       <path d="M 56.203125 29.59375 
L 56.203125 25.203125 
L 14.890625 25.203125 
Q 15.484375 15.921875 20.484375 11.0625 
Q 25.484375 6.203125 34.421875 6.203125 
Q 39.59375 6.203125 44.453125 7.46875 
Q 49.3125 8.734375 54.109375 11.28125 
L 54.109375 2.78125 
Q 49.265625 0.734375 44.1875 -0.34375 
Q 39.109375 -1.421875 33.890625 -1.421875 
Q 20.796875 -1.421875 13.15625 6.1875 
Q 5.515625 13.8125 5.515625 26.8125 
Q 5.515625 40.234375 12.765625 48.109375 
Q 20.015625 56 32.328125 56 
Q 43.359375 56 49.78125 48.890625 
Q 56.203125 41.796875 56.203125 29.59375 
z
M 47.21875 32.234375 
Q 47.125 39.59375 43.09375 43.984375 
Q 39.0625 48.390625 32.421875 48.390625 
Q 24.90625 48.390625 20.390625 44.140625 
Q 15.875 39.890625 15.1875 32.171875 
z
" id="DejaVuSans-101"/>
       <path id="DejaVuSans-32"/>
       <path d="M 31 75.875 
Q 24.46875 64.65625 21.28125 53.65625 
Q 18.109375 42.671875 18.109375 31.390625 
Q 18.109375 20.125 21.3125 9.0625 
Q 24.515625 -2 31 -13.1875 
L 23.1875 -13.1875 
Q 15.875 -1.703125 12.234375 9.375 
Q 8.59375 20.453125 8.59375 31.390625 
Q 8.59375 42.28125 12.203125 53.3125 
Q 15.828125 64.359375 23.1875 75.875 
z
" id="DejaVuSans-40"/>
       <path d="M 44.28125 53.078125 
L 44.28125 44.578125 
Q 40.484375 46.53125 36.375 47.5 
Q 32.28125 48.484375 27.875 48.484375 
Q 21.1875 48.484375 17.84375 46.4375 
Q 14.5 44.390625 14.5 40.28125 
Q 14.5 37.15625 16.890625 35.375 
Q 19.28125 33.59375 26.515625 31.984375 
L 29.59375 31.296875 
Q 39.15625 29.25 43.1875 25.515625 
Q 47.21875 21.78125 47.21875 15.09375 
Q 47.21875 7.46875 41.1875 3.015625 
Q 35.15625 -1.421875 24.609375 -1.421875 
Q 20.21875 -1.421875 15.453125 -0.5625 
Q 10.6875 0.296875 5.421875 2 
L 5.421875 11.28125 
Q 10.40625 8.6875 15.234375 7.390625 
Q 20.0625 6.109375 24.8125 6.109375 
Q 31.15625 6.109375 34.5625 8.28125 
Q 37.984375 10.453125 37.984375 14.40625 
Q 37.984375 18.0625 35.515625 20.015625 
Q 33.0625 21.96875 24.703125 23.78125 
L 21.578125 24.515625 
Q 13.234375 26.265625 9.515625 29.90625 
Q 5.8125 33.546875 5.8125 39.890625 
Q 5.8125 47.609375 11.28125 51.796875 
Q 16.75 56 26.8125 56 
Q 31.78125 56 36.171875 55.265625 
Q 40.578125 54.546875 44.28125 53.078125 
z
" id="DejaVuSans-115"/>
       <path d="M 8.015625 75.875 
L 15.828125 75.875 
Q 23.140625 64.359375 26.78125 53.3125 
Q 30.421875 42.28125 30.421875 31.390625 
Q 30.421875 20.453125 26.78125 9.375 
Q 23.140625 -1.703125 15.828125 -13.1875 
L 8.015625 -13.1875 
Q 14.5 -2 17.703125 9.0625 
Q 20.90625 20.125 20.90625 31.390625 
Q 20.90625 42.671875 17.703125 53.65625 
Q 14.5 64.65625 8.015625 75.875 
z
" id="DejaVuSans-41"/>
      </defs>
      <use xlink:href="#DejaVuSans-84"/>
      <use x="57.958984" xlink:href="#DejaVuSans-105"/>
      <use x="85.742188" xlink:href="#DejaVuSans-109"/>
      <use x="183.154297" xlink:href="#DejaVuSans-101"/>
      <use x="244.677734" xlink:href="#DejaVuSans-32"/>
      <use x="276.464844" xlink:href="#DejaVuSans-40"/>
      <use x="315.478516" xlink:href="#DejaVuSans-115"/>
      <use x="367.578125" xlink:href="#DejaVuSans-41"/>
     </g>
    </g>
   </g>
   <g id="matplotlib.axis_2">
    <g id="ytick_1">
     <g id="line2d_9">
      <defs>
       <path d="M 0 0 
L -3.5 0 
" id="me1d57858ff" style="stroke:#000000;stroke-width:0.8;"/>
      </defs>
      <g>
       <use style="stroke:#000000;stroke-width:0.8;" x="57.6" xlink:href="#me1d57858ff" y="296.638435"/>
      </g>
     </g>
     <g id="text_10">
      <!-- −0.0016 -->
      <g transform="translate(7.229687 300.437654)scale(0.1 -0.1)">
       <defs>
        <path d="M 10.59375 35.5 
L 73.1875 35.5 
L 73.1875 27.203125 
L 10.59375 27.203125 
z
" id="DejaVuSans-8722"/>
        <path d="M 33.015625 40.375 
Q 26.375 40.375 22.484375 35.828125 
Q 18.609375 31.296875 18.609375 23.390625 
Q 18.609375 15.53125 22.484375 10.953125 
Q 26.375 6.390625 33.015625 6.390625 
Q 39.65625 6.390625 43.53125 10.953125 
Q 47.40625 15.53125 47.40625 23.390625 
Q 47.40625 31.296875 43.53125 35.828125 
Q 39.65625 40.375 33.015625 40.375 
z
M 52.59375 71.296875 
L 52.59375 62.3125 
Q 48.875 64.0625 45.09375 64.984375 
Q 41.3125 65.921875 37.59375 65.921875 
Q 27.828125 65.921875 22.671875 59.328125 
Q 17.53125 52.734375 16.796875 39.40625 
Q 19.671875 43.65625 24.015625 45.921875 
Q 28.375 48.1875 33.59375 48.1875 
Q 44.578125 48.1875 50.953125 41.515625 
Q 57.328125 34.859375 57.328125 23.390625 
Q 57.328125 12.15625 50.6875 5.359375 
Q 44.046875 -1.421875 33.015625 -1.421875 
Q 20.359375 -1.421875 13.671875 8.265625 
Q 6.984375 17.96875 6.984375 36.375 
Q 6.984375 53.65625 15.1875 63.9375 
Q 23.390625 74.21875 37.203125 74.21875 
Q 40.921875 74.21875 44.703125 73.484375 
Q 48.484375 72.75 52.59375 71.296875 
z
" id="DejaVuSans-54"/>
       </defs>
       <use xlink:href="#DejaVuSans-8722"/>
       <use x="83.789062" xlink:href="#DejaVuSans-48"/>
       <use x="147.412109" xlink:href="#DejaVuSans-46"/>
       <use x="179.199219" xlink:href="#DejaVuSans-48"/>
       <use x="242.822266" xlink:href="#DejaVuSans-48"/>
       <use x="306.445312" xlink:href="#DejaVuSans-49"/>
       <use x="370.068359" xlink:href="#DejaVuSans-54"/>
      </g>
     </g>
    </g>
    <g id="ytick_2">
     <g id="line2d_10">
      <g>
       <use style="stroke:#000000;stroke-width:0.8;" x="57.6" xlink:href="#me1d57858ff" y="263.76887"/>
      </g>
     </g>
     <g id="text_11">
      <!-- −0.0014 -->
      <g transform="translate(7.229687 267.568088)scale(0.1 -0.1)">
       <defs>
        <path d="M 37.796875 64.3125 
L 12.890625 25.390625 
L 37.796875 25.390625 
z
M 35.203125 72.90625 
L 47.609375 72.90625 
L 47.609375 25.390625 
L 58.015625 25.390625 
L 58.015625 17.1875 
L 47.609375 17.1875 
L 47.609375 0 
L 37.796875 0 
L 37.796875 17.1875 
L 4.890625 17.1875 
L 4.890625 26.703125 
z
" id="DejaVuSans-52"/>
       </defs>
       <use xlink:href="#DejaVuSans-8722"/>
       <use x="83.789062" xlink:href="#DejaVuSans-48"/>
       <use x="147.412109" xlink:href="#DejaVuSans-46"/>
       <use x="179.199219" xlink:href="#DejaVuSans-48"/>
       <use x="242.822266" xlink:href="#DejaVuSans-48"/>
       <use x="306.445312" xlink:href="#DejaVuSans-49"/>
       <use x="370.068359" xlink:href="#DejaVuSans-52"/>
      </g>
     </g>
    </g>
    <g id="ytick_3">
     <g id="line2d_11">
      <g>
       <use style="stroke:#000000;stroke-width:0.8;" x="57.6" xlink:href="#me1d57858ff" y="230.899304"/>
      </g>
     </g>
     <g id="text_12">
      <!-- −0.0012 -->
      <g transform="translate(7.229687 234.698523)scale(0.1 -0.1)">
       <use xlink:href="#DejaVuSans-8722"/>
       <use x="83.789062" xlink:href="#DejaVuSans-48"/>
       <use x="147.412109" xlink:href="#DejaVuSans-46"/>
       <use x="179.199219" xlink:href="#DejaVuSans-48"/>
       <use x="242.822266" xlink:href="#DejaVuSans-48"/>
       <use x="306.445312" xlink:href="#DejaVuSans-49"/>
       <use x="370.068359" xlink:href="#DejaVuSans-50"/>
      </g>
     </g>
    </g>
    <g id="ytick_4">
     <g id="line2d_12">
      <g>
       <use style="stroke:#000000;stroke-width:0.8;" x="57.6" xlink:href="#me1d57858ff" y="198.029739"/>
      </g>
     </g>
     <g id="text_13">
      <!-- −0.0010 -->
      <g transform="translate(7.229687 201.828958)scale(0.1 -0.1)">
       <use xlink:href="#DejaVuSans-8722"/>
       <use x="83.789062" xlink:href="#DejaVuSans-48"/>
       <use x="147.412109" xlink:href="#DejaVuSans-46"/>
       <use x="179.199219" xlink:href="#DejaVuSans-48"/>
       <use x="242.822266" xlink:href="#DejaVuSans-48"/>
       <use x="306.445312" xlink:href="#DejaVuSans-49"/>
       <use x="370.068359" xlink:href="#DejaVuSans-48"/>
      </g>
     </g>
    </g>
    <g id="ytick_5">
     <g id="line2d_13">
      <g>
       <use style="stroke:#000000;stroke-width:0.8;" x="57.6" xlink:href="#me1d57858ff" y="165.160174"/>
      </g>
     </g>
     <g id="text_14">
      <!-- −0.0008 -->
      <g transform="translate(7.229687 168.959393)scale(0.1 -0.1)">
       <defs>
        <path d="M 31.78125 34.625 
Q 24.75 34.625 20.71875 30.859375 
Q 16.703125 27.09375 16.703125 20.515625 
Q 16.703125 13.921875 20.71875 10.15625 
Q 24.75 6.390625 31.78125 6.390625 
Q 38.8125 6.390625 42.859375 10.171875 
Q 46.921875 13.96875 46.921875 20.515625 
Q 46.921875 27.09375 42.890625 30.859375 
Q 38.875 34.625 31.78125 34.625 
z
M 21.921875 38.8125 
Q 15.578125 40.375 12.03125 44.71875 
Q 8.5 49.078125 8.5 55.328125 
Q 8.5 64.0625 14.71875 69.140625 
Q 20.953125 74.21875 31.78125 74.21875 
Q 42.671875 74.21875 48.875 69.140625 
Q 55.078125 64.0625 55.078125 55.328125 
Q 55.078125 49.078125 51.53125 44.71875 
Q 48 40.375 41.703125 38.8125 
Q 48.828125 37.15625 52.796875 32.3125 
Q 56.78125 27.484375 56.78125 20.515625 
Q 56.78125 9.90625 50.3125 4.234375 
Q 43.84375 -1.421875 31.78125 -1.421875 
Q 19.734375 -1.421875 13.25 4.234375 
Q 6.78125 9.90625 6.78125 20.515625 
Q 6.78125 27.484375 10.78125 32.3125 
Q 14.796875 37.15625 21.921875 38.8125 
z
M 18.3125 54.390625 
Q 18.3125 48.734375 21.84375 45.5625 
Q 25.390625 42.390625 31.78125 42.390625 
Q 38.140625 42.390625 41.71875 45.5625 
Q 45.3125 48.734375 45.3125 54.390625 
Q 45.3125 60.0625 41.71875 63.234375 
Q 38.140625 66.40625 31.78125 66.40625 
Q 25.390625 66.40625 21.84375 63.234375 
Q 18.3125 60.0625 18.3125 54.390625 
z
" id="DejaVuSans-56"/>
       </defs>
       <use xlink:href="#DejaVuSans-8722"/>
       <use x="83.789062" xlink:href="#DejaVuSans-48"/>
       <use x="147.412109" xlink:href="#DejaVuSans-46"/>
       <use x="179.199219" xlink:href="#DejaVuSans-48"/>
       <use x="242.822266" xlink:href="#DejaVuSans-48"/>
       <use x="306.445312" xlink:href="#DejaVuSans-48"/>
       <use x="370.068359" xlink:href="#DejaVuSans-56"/>
      </g>
     </g>
    </g>
    <g id="ytick_6">
     <g id="line2d_14">
      <g>
       <use style="stroke:#000000;stroke-width:0.8;" x="57.6" xlink:href="#me1d57858ff" y="132.290609"/>
      </g>
     </g>
     <g id="text_15">
      <!-- −0.0006 -->
      <g transform="translate(7.229687 136.089827)scale(0.1 -0.1)">
       <use xlink:href="#DejaVuSans-8722"/>
       <use x="83.789062" xlink:href="#DejaVuSans-48"/>
       <use x="147.412109" xlink:href="#DejaVuSans-46"/>
       <use x="179.199219" xlink:href="#DejaVuSans-48"/>
       <use x="242.822266" xlink:href="#DejaVuSans-48"/>
       <use x="306.445312" xlink:href="#DejaVuSans-48"/>
       <use x="370.068359" xlink:href="#DejaVuSans-54"/>
      </g>
     </g>
    </g>
    <g id="ytick_7">
     <g id="line2d_15">
      <g>
       <use style="stroke:#000000;stroke-width:0.8;" x="57.6" xlink:href="#me1d57858ff" y="99.421043"/>
      </g>
     </g>
     <g id="text_16">
      <!-- −0.0004 -->
      <g transform="translate(7.229687 103.220262)scale(0.1 -0.1)">
       <use xlink:href="#DejaVuSans-8722"/>
       <use x="83.789062" xlink:href="#DejaVuSans-48"/>
       <use x="147.412109" xlink:href="#DejaVuSans-46"/>
       <use x="179.199219" xlink:href="#DejaVuSans-48"/>
       <use x="242.822266" xlink:href="#DejaVuSans-48"/>
       <use x="306.445312" xlink:href="#DejaVuSans-48"/>
       <use x="370.068359" xlink:href="#DejaVuSans-52"/>
      </g>
     </g>
    </g>
    <g id="ytick_8">
     <g id="line2d_16">
      <g>
       <use style="stroke:#000000;stroke-width:0.8;" x="57.6" xlink:href="#me1d57858ff" y="66.551478"/>
      </g>
     </g>
     <g id="text_17">
      <!-- −0.0002 -->
      <g transform="translate(7.229687 70.350697)scale(0.1 -0.1)">
       <use xlink:href="#DejaVuSans-8722"/>
       <use x="83.789062" xlink:href="#DejaVuSans-48"/>
       <use x="147.412109" xlink:href="#DejaVuSans-46"/>
       <use x="179.199219" xlink:href="#DejaVuSans-48"/>
       <use x="242.822266" xlink:href="#DejaVuSans-48"/>
       <use x="306.445312" xlink:href="#DejaVuSans-48"/>
       <use x="370.068359" xlink:href="#DejaVuSans-50"/>
      </g>
     </g>
    </g>
    <g id="text_18">
     <!-- Volts (V) -->
     <g transform="translate(1.15 195.485031)rotate(-90)scale(0.1 -0.1)">
      <defs>
       <path d="M 28.609375 0 
L 0.78125 72.90625 
L 11.078125 72.90625 
L 34.1875 11.53125 
L 57.328125 72.90625 
L 67.578125 72.90625 
L 39.796875 0 
z
" id="DejaVuSans-86"/>
       <path d="M 30.609375 48.390625 
Q 23.390625 48.390625 19.1875 42.75 
Q 14.984375 37.109375 14.984375 27.296875 
Q 14.984375 17.484375 19.15625 11.84375 
Q 23.34375 6.203125 30.609375 6.203125 
Q 37.796875 6.203125 41.984375 11.859375 
Q 46.1875 17.53125 46.1875 27.296875 
Q 46.1875 37.015625 41.984375 42.703125 
Q 37.796875 48.390625 30.609375 48.390625 
z
M 30.609375 56 
Q 42.328125 56 49.015625 48.375 
Q 55.71875 40.765625 55.71875 27.296875 
Q 55.71875 13.875 49.015625 6.21875 
Q 42.328125 -1.421875 30.609375 -1.421875 
Q 18.84375 -1.421875 12.171875 6.21875 
Q 5.515625 13.875 5.515625 27.296875 
Q 5.515625 40.765625 12.171875 48.375 
Q 18.84375 56 30.609375 56 
z
" id="DejaVuSans-111"/>
       <path d="M 9.421875 75.984375 
L 18.40625 75.984375 
L 18.40625 0 
L 9.421875 0 
z
" id="DejaVuSans-108"/>
       <path d="M 18.3125 70.21875 
L 18.3125 54.6875 
L 36.8125 54.6875 
L 36.8125 47.703125 
L 18.3125 47.703125 
L 18.3125 18.015625 
Q 18.3125 11.328125 20.140625 9.421875 
Q 21.96875 7.515625 27.59375 7.515625 
L 36.8125 7.515625 
L 36.8125 0 
L 27.59375 0 
Q 17.1875 0 13.234375 3.875 
Q 9.28125 7.765625 9.28125 18.015625 
L 9.28125 47.703125 
L 2.6875 47.703125 
L 2.6875 54.6875 
L 9.28125 54.6875 
L 9.28125 70.21875 
z
" id="DejaVuSans-116"/>
      </defs>
      <use xlink:href="#DejaVuSans-86"/>
      <use x="60.658203" xlink:href="#DejaVuSans-111"/>
      <use x="121.839844" xlink:href="#DejaVuSans-108"/>
      <use x="149.623047" xlink:href="#DejaVuSans-116"/>
      <use x="188.832031" xlink:href="#DejaVuSans-115"/>
      <use x="240.931641" xlink:href="#DejaVuSans-32"/>
      <use x="272.71875" xlink:href="#DejaVuSans-40"/>
      <use x="311.732422" xlink:href="#DejaVuSans-86"/>
      <use x="380.140625" xlink:href="#DejaVuSans-41"/>
     </g>
    </g>
   </g>
   <g id="line2d_17">
    <path clip-path="url(#p559074df2c)" d="M 73.832727 248.813217 
L 73.902009 253.908 
L 73.971291 251.60713 
L 74.109854 244.211478 
L 74.248418 254.401043 
L 74.3177 252.42887 
L 74.456264 244.86887 
L 74.594827 254.729739 
L 74.664109 252.593217 
L 74.802673 246.348 
L 74.941236 254.729739 
L 75.010518 253.086261 
L 75.149082 245.526261 
L 75.287645 255.715826 
L 75.356927 253.743652 
L 75.495491 246.512348 
L 75.634054 255.058435 
L 75.703336 253.086261 
L 75.8419 243.718435 
L 75.980463 251.60713 
L 76.188309 241.253217 
L 76.257591 243.554087 
L 76.326872 245.690609 
L 76.534718 231.721043 
L 76.673281 244.211478 
L 76.742563 242.403652 
L 76.881127 237.30887 
L 77.01969 248.320174 
L 77.088972 247.169739 
L 77.158254 244.375826 
L 77.227536 245.526261 
L 77.366099 258.345391 
L 77.573945 249.799304 
L 77.712508 259.495826 
L 77.78179 257.852348 
L 77.920354 249.963652 
L 78.058917 258.838435 
L 78.128199 256.866261 
L 78.266763 251.442783 
L 78.682454 274.780174 
L 78.751736 271.493217 
L 78.890299 229.420174 
L 79.167426 83.972348 
L 79.236708 90.710609 
L 79.721681 244.04713 
L 79.790963 250.128 
L 79.860244 249.470609 
L 79.929526 245.526261 
L 79.998808 245.854957 
L 80.137372 256.20887 
L 80.345217 247.005391 
L 80.483781 256.373217 
L 80.691626 247.005391 
L 80.83019 255.058435 
L 80.968753 245.526261 
L 81.038035 245.690609 
L 81.176599 253.250609 
L 81.384444 242.732348 
L 81.523008 249.799304 
L 81.730853 239.445391 
L 81.869417 247.169739 
L 82.077262 235.501043 
L 82.215826 243.061043 
L 82.423671 230.734957 
L 82.562235 238.130609 
L 82.77008 224.982783 
L 82.839362 228.598435 
L 82.908644 232.214087 
L 83.116489 219.723652 
L 83.255053 227.283652 
L 83.462898 215.450609 
L 83.601462 226.297565 
L 83.670744 225.311478 
L 83.740026 221.860174 
L 83.809307 223.339304 
L 84.017153 237.801913 
L 84.086435 234.350609 
L 84.155716 235.829739 
L 84.29428 248.977565 
L 84.432844 242.239304 
L 84.502125 242.732348 
L 84.640689 253.086261 
L 84.848535 244.704522 
L 84.987098 254.236696 
L 85.194944 245.526261 
L 85.333507 253.250609 
L 85.472071 245.033217 
L 85.541353 245.526261 
L 85.679916 254.894087 
L 85.887762 242.896696 
L 86.026325 252.264522 
L 86.095607 250.292348 
L 86.234171 244.540174 
L 86.372734 253.250609 
L 86.58058 244.04713 
L 86.719143 253.414957 
L 86.926989 241.910609 
L 87.065552 254.072348 
L 87.204116 244.04713 
L 87.273398 244.211478 
L 87.411961 253.086261 
L 87.550525 244.540174 
L 87.619807 245.361913 
L 87.75837 253.743652 
L 87.966216 244.211478 
L 88.104779 254.072348 
L 88.243343 244.86887 
L 88.312625 245.361913 
L 88.451188 254.401043 
L 88.589752 244.704522 
L 88.659034 244.86887 
L 88.797597 253.086261 
L 89.005443 244.04713 
L 89.144007 254.236696 
L 89.351852 244.540174 
L 89.490416 249.963652 
L 89.698261 238.294957 
L 89.836825 245.033217 
L 90.04467 229.091478 
L 90.183234 239.281043 
L 90.252515 236.815826 
L 90.321797 232.378435 
L 90.391079 233.035826 
L 90.529643 241.910609 
L 90.668206 235.665391 
L 90.737488 237.966261 
L 90.876052 254.236696 
L 91.014615 244.375826 
L 91.083897 244.540174 
L 91.222461 255.551478 
L 91.361024 245.690609 
L 91.430306 246.183652 
L 91.56887 254.729739 
L 91.776715 247.005391 
L 91.915279 256.373217 
L 91.984561 254.401043 
L 92.053842 255.715826 
L 92.192406 270.178435 
L 92.261688 268.041913 
L 92.400251 228.598435 
L 92.677379 59.484522 
L 92.74666 64.414957 
L 93.162351 234.514957 
L 93.300915 244.704522 
L 93.439479 237.144522 
L 93.50876 238.788 
L 93.647324 247.991478 
L 93.785888 239.281043 
L 93.855169 239.774087 
L 93.993733 248.484522 
L 94.132297 238.459304 
L 94.201578 239.609739 
L 94.340142 246.512348 
L 94.478706 235.501043 
L 94.547987 235.665391 
L 94.686551 244.704522 
L 94.894396 233.364522 
L 95.03296 242.074957 
L 95.240805 229.913217 
L 95.379369 236.48713 
L 95.587215 224.982783 
L 95.725778 232.214087 
L 95.933624 219.559304 
L 96.072187 224.982783 
L 96.280033 211.834957 
L 96.418596 216.436696 
L 96.55716 205.261043 
L 96.626442 205.425391 
L 96.765005 211.506261 
L 96.903569 199.673217 
L 96.972851 200.001913 
L 97.111414 209.862783 
L 97.249978 203.946261 
L 97.804232 239.281043 
L 97.942796 232.542783 
L 98.012078 233.693217 
L 98.150641 244.375826 
L 98.289205 235.829739 
L 98.358487 237.801913 
L 98.49705 246.019304 
L 98.635614 236.980174 
L 98.704896 238.130609 
L 98.843459 246.348 
L 98.982023 236.815826 
L 99.051305 237.637565 
L 99.189868 245.033217 
L 99.397714 236.322783 
L 99.536277 245.854957 
L 99.674841 237.473217 
L 99.744123 238.623652 
L 99.882687 245.854957 
L 100.02125 235.665391 
L 100.090532 238.130609 
L 100.229096 246.348 
L 100.367659 235.665391 
L 100.436941 237.473217 
L 100.575505 246.019304 
L 100.714068 236.158435 
L 100.78335 236.651478 
L 100.921914 246.019304 
L 101.060477 236.158435 
L 101.129759 238.294957 
L 101.268323 245.526261 
L 101.406886 236.815826 
L 101.476168 238.294957 
L 101.614732 246.348 
L 101.753295 236.322783 
L 101.822577 238.294957 
L 101.961141 246.348 
L 102.099704 236.651478 
L 102.168986 237.801913 
L 102.30755 245.526261 
L 102.446113 236.980174 
L 102.515395 237.801913 
L 102.653959 243.554087 
L 102.861804 232.378435 
L 103.000368 239.938435 
L 103.208213 224.654087 
L 103.346777 231.556696 
L 103.48534 226.133217 
L 103.554622 227.941043 
L 103.693186 236.651478 
L 103.83175 230.406261 
L 103.970313 242.239304 
L 104.039595 247.662783 
L 104.178159 238.952348 
L 104.24744 241.08887 
L 104.386004 248.977565 
L 104.524568 240.431478 
L 104.593849 242.239304 
L 104.732413 249.634957 
L 104.870977 241.253217 
L 104.940258 243.061043 
L 105.078822 250.456696 
L 105.217386 246.841043 
L 105.355949 266.398435 
L 105.425231 264.590609 
L 105.633076 207.726261 
L 105.910204 89.395826 
L 106.325895 234.350609 
L 106.464458 242.239304 
L 106.603022 234.843652 
L 106.810867 246.183652 
L 106.949431 237.144522 
L 107.018713 239.116696 
L 107.157276 245.690609 
L 107.29584 236.48713 
L 107.365122 238.623652 
L 107.503685 245.361913 
L 107.642249 235.665391 
L 107.711531 237.144522 
L 107.850094 243.389739 
L 107.988658 233.52887 
L 108.05794 235.501043 
L 108.196503 241.08887 
L 108.335067 230.734957 
L 108.404349 232.542783 
L 108.542912 238.294957 
L 108.681476 227.283652 
L 108.750758 228.762783 
L 108.82004 234.514957 
L 108.889321 233.693217 
L 109.027885 222.353217 
L 109.097167 223.996696 
L 109.166449 229.091478 
L 109.23573 228.762783 
L 109.374294 216.765391 
L 109.443576 218.080174 
L 109.512858 223.339304 
L 109.582139 223.010609 
L 109.720703 211.013217 
L 109.789985 212.821043 
L 109.859267 218.573217 
L 109.928548 217.422783 
L 110.067112 206.740174 
L 110.274958 216.765391 
L 110.344239 213.642783 
L 110.413521 211.341913 
L 110.621367 229.913217 
L 110.690648 227.941043 
L 110.75993 226.626261 
L 110.967776 243.718435 
L 111.037057 239.774087 
L 111.106339 237.144522 
L 111.314185 248.64887 
L 111.452748 240.760174 
L 111.660594 250.621043 
L 111.799157 240.760174 
L 112.007003 250.621043 
L 112.145566 241.581913 
L 112.353412 249.963652 
L 112.491975 241.581913 
L 112.699821 250.621043 
L 112.838384 242.239304 
L 112.907666 244.375826 
L 113.04623 250.292348 
L 113.184793 241.910609 
L 113.392639 250.621043 
L 113.531202 241.253217 
L 113.739048 251.60713 
L 113.877611 242.239304 
L 114.085457 252.100174 
L 114.22402 243.389739 
L 114.362584 253.250609 
L 114.431866 252.264522 
L 114.57043 243.225391 
L 114.778275 253.086261 
L 114.916839 244.04713 
L 115.124684 253.743652 
L 115.263248 243.882783 
L 115.471093 254.072348 
L 115.609657 243.718435 
L 115.74822 253.579304 
L 115.817502 253.414957 
L 115.956066 245.690609 
L 116.094629 254.236696 
L 116.163911 253.908 
L 116.302475 245.854957 
L 116.441038 254.565391 
L 116.51032 253.414957 
L 116.648884 242.239304 
L 116.787447 250.128 
L 116.856729 248.813217 
L 117.064575 237.473217 
L 117.133856 240.760174 
L 117.203138 239.281043 
L 117.341702 233.52887 
L 117.549547 243.882783 
L 117.688111 237.144522 
L 117.895956 247.498435 
L 117.965238 244.86887 
L 118.03452 246.183652 
L 118.173083 257.688 
L 118.242365 257.523652 
L 118.380929 250.128 
L 118.588774 259.002783 
L 118.727338 250.128 
L 118.865902 259.495826 
L 118.935183 259.002783 
L 119.073747 250.785391 
L 119.281592 278.06713 
L 119.350874 272.972348 
L 119.55872 243.718435 
L 119.835847 62.935826 
L 119.905129 72.632348 
L 120.112974 180.60887 
L 120.320819 241.746261 
L 120.459383 237.801913 
L 120.667228 251.60713 
L 120.805792 244.86887 
L 120.944356 254.729739 
L 121.013638 254.565391 
L 121.152201 245.690609 
L 121.290765 253.908 
L 121.360047 253.414957 
L 121.49861 243.718435 
L 121.637174 251.935826 
L 121.706456 250.292348 
L 121.845019 241.253217 
L 121.983583 248.484522 
L 122.052865 248.320174 
L 122.191428 238.623652 
L 122.329992 246.019304 
L 122.399274 244.86887 
L 122.537837 234.186261 
L 122.676401 242.732348 
L 122.745683 240.760174 
L 122.884246 230.899304 
L 123.02281 237.144522 
L 123.092092 235.501043 
L 123.230655 224.818435 
L 123.369219 230.899304 
L 123.438501 229.255826 
L 123.577064 218.080174 
L 123.715628 224.982783 
L 123.78491 223.010609 
L 123.923473 211.506261 
L 124.062037 219.230609 
L 124.131319 218.40887 
L 124.269882 210.84887 
L 124.477728 226.133217 
L 124.54701 223.996696 
L 124.616291 224.489739 
L 124.824137 240.431478 
L 124.962701 237.30887 
L 125.101264 251.114087 
L 125.170546 250.785391 
L 125.30911 242.896696 
L 125.447673 253.086261 
L 125.516955 251.935826 
L 125.655519 243.718435 
L 125.794082 253.250609 
L 125.863364 251.935826 
L 126.001928 244.540174 
L 126.140491 253.579304 
L 126.209773 251.935826 
L 126.348337 243.882783 
L 126.4869 253.414957 
L 126.556182 252.264522 
L 126.694746 243.882783 
L 126.833309 252.593217 
L 126.902591 250.949739 
L 127.041155 243.389739 
L 127.179718 253.086261 
L 127.249 251.771478 
L 127.387564 243.882783 
L 127.526127 253.908 
L 127.595409 251.771478 
L 127.733973 243.554087 
L 127.872536 253.743652 
L 127.941818 251.60713 
L 128.080382 243.061043 
L 128.218945 253.743652 
L 128.288227 252.757565 
L 128.426791 244.211478 
L 128.565354 254.236696 
L 128.634636 252.593217 
L 128.7732 243.882783 
L 128.911763 253.908 
L 128.981045 252.921913 
L 129.119609 244.86887 
L 129.258173 254.729739 
L 129.327454 253.250609 
L 129.466018 244.86887 
L 129.604582 254.401043 
L 129.673863 253.086261 
L 129.812427 244.86887 
L 129.950991 254.401043 
L 130.020272 252.593217 
L 130.158836 246.019304 
L 130.2974 254.072348 
L 130.366681 252.42887 
L 130.505245 243.718435 
L 130.643809 251.278435 
L 130.71309 248.813217 
L 130.851654 238.294957 
L 130.990218 244.04713 
L 131.198063 230.570609 
L 131.336627 242.732348 
L 131.405909 241.253217 
L 131.544472 234.843652 
L 131.752318 245.854957 
L 131.821599 241.253217 
L 131.890881 242.403652 
L 132.029445 256.866261 
L 132.098727 254.729739 
L 132.23729 246.676696 
L 132.375854 256.20887 
L 132.445136 255.38713 
L 132.583699 247.662783 
L 132.722263 257.194957 
L 132.791545 255.715826 
L 132.930108 248.484522 
L 133.207235 266.069739 
L 133.345799 264.097565 
L 133.415081 256.373217 
L 133.553645 192.606261 
L 133.76149 78.220174 
L 133.900054 117.006261 
L 134.177181 245.033217 
L 134.315744 237.637565 
L 134.454308 248.813217 
L 134.52359 246.676696 
L 134.662153 241.581913 
L 134.800717 251.771478 
L 135.008562 242.239304 
L 135.147126 251.278435 
L 135.216408 248.813217 
L 135.354971 240.26713 
L 135.493535 249.306261 
L 135.701381 238.459304 
L 135.839944 247.005391 
L 135.909226 245.033217 
L 136.04779 235.665391 
L 136.186353 243.061043 
L 136.394199 231.556696 
L 136.46348 235.336696 
L 136.532762 239.938435 
L 136.740608 226.626261 
L 136.879171 233.857565 
L 137.087017 220.874087 
L 137.156298 224.654087 
L 137.22558 227.119304 
L 137.433426 212.821043 
L 137.502707 216.765391 
L 137.571989 219.723652 
L 137.779835 206.575826 
L 137.918398 215.286261 
L 138.126244 203.781913 
L 138.334089 216.929739 
L 138.403371 213.971478 
L 138.472653 216.108 
L 138.680498 234.350609 
L 138.74978 231.556696 
L 138.819062 233.364522 
L 138.957625 246.676696 
L 139.026907 245.854957 
L 139.165471 240.924522 
L 139.304034 251.114087 
L 139.373316 248.977565 
L 139.51188 242.568 
L 139.650443 252.42887 
L 139.858289 243.061043 
L 139.996853 253.086261 
L 140.204698 243.061043 
L 140.343262 251.935826 
L 140.551107 243.389739 
L 140.689671 252.593217 
L 140.897516 242.732348 
L 141.03608 251.442783 
L 141.105361 249.470609 
L 141.243925 243.389739 
L 141.382489 253.414957 
L 141.590334 243.882783 
L 141.728898 253.414957 
L 141.936743 244.540174 
L 142.075307 254.401043 
L 142.283152 245.526261 
L 142.421716 254.729739 
L 142.629561 245.526261 
L 142.768125 254.401043 
L 142.97597 245.690609 
L 143.114534 255.551478 
L 143.322379 245.690609 
L 143.460943 256.537565 
L 143.668788 247.498435 
L 143.807352 255.715826 
L 144.015197 243.061043 
L 144.153761 250.949739 
L 144.361606 238.294957 
L 144.50017 241.581913 
L 144.638734 233.693217 
L 144.708015 235.665391 
L 144.846579 246.019304 
L 145.054424 238.459304 
L 145.192988 250.128 
L 145.26227 249.470609 
L 145.331552 247.662783 
L 145.400833 249.306261 
L 145.539397 258.509739 
L 145.747242 250.456696 
L 145.885806 259.824522 
L 146.093651 249.963652 
L 146.232215 260.481913 
L 146.440061 251.935826 
L 146.647906 275.766261 
L 146.855751 254.565391 
L 146.994315 187.840174 
L 147.20216 84.794087 
L 147.410006 167.132348 
L 147.617851 246.019304 
L 147.756415 240.26713 
L 147.825697 241.746261 
L 147.96426 253.743652 
L 148.102824 247.334087 
L 148.172106 247.498435 
L 148.310669 257.030609 
L 148.518515 247.169739 
L 148.657078 254.565391 
L 148.864924 245.197565 
L 149.003487 253.908 
L 149.211333 243.061043 
L 149.349896 251.60713 
L 149.557742 240.760174 
L 149.696305 249.141913 
L 149.904151 236.48713 
L 150.042714 244.04713 
L 150.25056 232.871478 
L 150.389124 240.26713 
L 150.596969 227.941043 
L 150.735533 233.857565 
L 150.943378 221.36713 
L 151.081942 228.434087 
L 151.220505 215.943652 
L 151.289787 216.272348 
L 151.428351 224.654087 
L 151.566914 215.614957 
L 151.636196 216.929739 
L 151.77476 230.241913 
L 151.844041 229.584522 
L 151.913323 228.269739 
L 152.051887 241.08887 
L 152.121169 245.033217 
L 152.19045 244.375826 
L 152.259732 241.417565 
L 152.329014 243.389739 
L 152.467578 254.401043 
L 152.606141 247.005391 
L 152.675423 247.991478 
L 152.813987 257.194957 
L 152.95255 249.470609 
L 153.021832 249.634957 
L 153.160396 257.852348 
L 153.368241 248.977565 
L 153.506805 258.016696 
L 153.71465 248.484522 
L 153.853214 257.523652 
L 153.991777 248.320174 
L 154.061059 249.634957 
L 154.199623 256.701913 
L 154.338186 247.991478 
L 154.407468 248.320174 
L 154.546032 257.359304 
L 154.684596 247.991478 
L 154.753877 248.484522 
L 154.892441 258.345391 
L 155.031005 247.334087 
L 155.100286 248.813217 
L 155.23885 257.194957 
L 155.377414 247.991478 
L 155.446695 249.141913 
L 155.585259 258.016696 
L 155.723823 248.977565 
L 155.793104 249.799304 
L 155.931668 258.838435 
L 156.070232 248.155826 
L 156.139513 249.963652 
L 156.278077 258.838435 
L 156.416641 249.470609 
L 156.485922 250.621043 
L 156.624486 258.509739 
L 156.76305 249.470609 
L 156.832332 250.785391 
L 156.970895 259.16713 
L 157.109459 249.470609 
L 157.178741 250.456696 
L 157.317304 257.852348 
L 157.455868 249.141913 
L 157.52515 250.456696 
L 157.663713 259.002783 
L 157.802277 249.799304 
L 157.871559 250.292348 
L 158.010122 258.509739 
L 158.148686 248.977565 
L 158.217968 249.634957 
L 158.356531 255.058435 
L 158.495095 244.704522 
L 158.564377 244.86887 
L 158.70294 251.278435 
L 158.910786 235.008 
L 159.049349 241.910609 
L 159.187913 236.651478 
L 159.257195 238.623652 
L 159.395758 247.334087 
L 159.534322 239.774087 
L 159.603604 242.074957 
L 159.742167 256.537565 
L 159.811449 254.729739 
L 159.880731 250.456696 
L 159.950013 251.935826 
L 160.088576 259.824522 
L 160.22714 250.785391 
L 160.296422 251.771478 
L 160.434985 260.646261 
L 160.573549 251.114087 
L 160.642831 252.593217 
L 160.781394 260.153217 
L 160.919958 254.894087 
L 161.127804 280.039304 
L 161.335649 230.077565 
L 161.612776 54.554087 
L 161.682058 70.98887 
L 162.097749 245.526261 
L 162.167031 248.320174 
L 162.305594 241.08887 
L 162.51344 253.579304 
L 162.582721 249.306261 
L 162.652003 245.526261 
L 162.721285 246.841043 
L 162.859849 253.743652 
L 162.998412 245.526261 
L 163.067694 246.676696 
L 163.206258 253.250609 
L 163.344821 242.732348 
L 163.414103 244.04713 
L 163.552667 250.292348 
L 163.69123 240.26713 
L 163.760512 241.581913 
L 163.899076 247.82713 
L 164.037639 237.30887 
L 164.106921 237.966261 
L 164.245485 244.86887 
L 164.384048 232.70713 
L 164.45333 233.857565 
L 164.591894 239.445391 
L 164.730457 228.105391 
L 164.799739 228.762783 
L 164.869021 233.693217 
L 164.938303 233.52887 
L 165.076866 220.874087 
L 165.146148 222.024522 
L 165.21543 225.804522 
L 165.284712 225.640174 
L 165.423276 213.642783 
L 165.492557 214.135826 
L 165.631121 218.080174 
L 165.769685 206.24713 
L 165.838966 207.726261 
L 165.97753 215.614957 
L 166.116094 207.06887 
L 166.323939 227.283652 
L 166.393221 225.804522 
L 166.462503 224.818435 
L 166.670348 243.061043 
L 166.73963 240.102783 
L 166.808912 238.130609 
L 167.016757 251.278435 
L 167.086039 246.183652 
L 167.155321 243.225391 
L 167.224602 245.526261 
L 167.363166 253.579304 
L 167.50173 243.225391 
L 167.571012 245.197565 
L 167.709575 252.757565 
L 167.848139 243.882783 
L 167.917421 245.197565 
L 168.055984 252.757565 
L 168.194548 244.211478 
L 168.26383 245.690609 
L 168.402393 252.264522 
L 168.540957 243.225391 
L 168.748802 252.264522 
L 168.887366 244.211478 
L 168.956648 245.526261 
L 169.095211 253.250609 
L 169.233775 243.554087 
L 169.303057 245.033217 
L 169.44162 253.250609 
L 169.580184 244.540174 
L 169.788029 253.414957 
L 169.926593 244.704522 
L 169.995875 246.512348 
L 170.134438 252.593217 
L 170.273002 245.033217 
L 170.342284 246.676696 
L 170.480847 253.743652 
L 170.619411 244.04713 
L 170.827256 253.579304 
L 170.96582 244.704522 
L 171.173665 253.086261 
L 171.312229 244.540174 
L 171.520074 253.414957 
L 171.658638 244.540174 
L 171.866484 253.250609 
L 172.005047 242.074957 
L 172.074329 244.04713 
L 172.143611 249.141913 
L 172.212893 248.484522 
L 172.351456 236.815826 
L 172.420738 237.801913 
L 172.49002 240.26713 
L 172.559302 239.609739 
L 172.697865 229.74887 
L 172.905711 242.732348 
L 173.044274 233.857565 
L 173.113556 236.651478 
L 173.25212 247.005391 
L 173.321401 244.540174 
L 173.390683 245.033217 
L 173.598529 255.551478 
L 173.737092 246.676696 
L 173.944938 256.537565 
L 174.083501 247.005391 
L 174.291347 257.523652 
L 174.42991 247.82713 
L 174.568474 262.125391 
L 174.637756 269.685391 
L 174.707038 268.534957 
L 174.914883 246.183652 
L 175.053447 172.391478 
L 175.19201 89.724522 
L 175.261292 96.462783 
L 175.676983 248.484522 
L 175.815547 238.623652 
L 176.023392 249.634957 
L 176.161956 242.239304 
L 176.369801 251.442783 
L 176.508365 241.910609 
L 176.71621 251.442783 
L 176.854774 240.760174 
L 176.993337 248.977565 
L 177.062619 248.64887 
L 177.201183 239.281043 
L 177.270464 241.253217 
L 177.409028 247.169739 
L 177.547592 236.651478 
L 177.686155 244.704522 
L 177.755437 243.389739 
L 177.894001 232.214087 
L 178.032564 239.281043 
L 178.101846 238.623652 
L 178.24041 228.105391 
L 178.378973 234.514957 
L 178.448255 232.871478 
L 178.586819 222.18887 
L 178.656101 224.161043 
L 178.725382 228.598435 
L 178.794664 226.790609 
L 178.933228 216.436696 
L 179.071791 222.846261 
L 179.141073 221.038435 
L 179.279637 210.191478 
L 179.348919 212.492348 
L 179.487482 217.751478 
L 179.626046 209.534087 
L 179.833891 225.640174 
L 179.903173 223.668 
L 179.972455 223.996696 
L 180.1803 242.074957 
L 180.318864 237.966261 
L 180.526709 251.114087 
L 180.665273 244.04713 
L 180.873118 254.729739 
L 181.011682 245.361913 
L 181.150246 255.058435 
L 181.219527 254.894087 
L 181.358091 246.512348 
L 181.496655 255.058435 
L 181.565936 254.565391 
L 181.7045 246.019304 
L 181.843064 254.894087 
L 181.912345 254.401043 
L 182.050909 245.197565 
L 182.189473 254.565391 
L 182.258755 253.579304 
L 182.397318 245.361913 
L 182.535882 255.058435 
L 182.605164 253.579304 
L 182.743727 245.690609 
L 182.882291 254.401043 
L 182.951573 253.579304 
L 183.090136 244.704522 
L 183.297982 255.38713 
L 183.436545 246.512348 
L 183.644391 255.551478 
L 183.782954 247.662783 
L 183.921518 256.866261 
L 183.9908 256.044522 
L 184.129363 248.155826 
L 184.267927 257.523652 
L 184.337209 257.194957 
L 184.475772 247.498435 
L 184.614336 258.016696 
L 184.683618 257.359304 
L 184.822181 248.320174 
L 184.960745 257.523652 
L 185.030027 257.194957 
L 185.16859 249.306261 
L 185.307154 258.016696 
L 185.376436 257.359304 
L 185.514999 249.470609 
L 185.653563 258.016696 
L 185.722845 256.866261 
L 185.861408 247.662783 
L 185.999972 254.236696 
L 186.069254 252.100174 
L 186.207817 242.239304 
L 186.346381 250.292348 
L 186.554227 233.364522 
L 186.623508 237.473217 
L 186.762072 246.183652 
L 186.900636 238.459304 
L 187.039199 248.64887 
L 187.108481 248.320174 
L 187.247045 242.403652 
L 187.45489 259.824522 
L 187.593454 252.42887 
L 187.732017 261.796696 
L 187.801299 260.153217 
L 187.939863 251.442783 
L 188.147708 261.796696 
L 188.286272 253.414957 
L 188.771244 280.861043 
L 188.909808 249.470609 
L 189.256217 55.540174 
L 189.325499 74.111478 
L 189.671908 235.665391 
L 189.810471 249.141913 
L 189.879753 248.813217 
L 190.018317 244.540174 
L 190.15688 255.715826 
L 190.226162 255.058435 
L 190.364726 246.183652 
L 190.503289 257.030609 
L 190.572571 254.401043 
L 190.711135 245.361913 
L 190.849699 255.058435 
L 190.91898 253.086261 
L 191.057544 245.361913 
L 191.196108 253.250609 
L 191.265389 250.785391 
L 191.403953 241.581913 
L 191.542517 249.799304 
L 191.611798 247.662783 
L 191.750362 238.623652 
L 191.888926 246.183652 
L 191.958207 243.882783 
L 192.096771 234.186261 
L 192.235335 241.417565 
L 192.304616 239.281043 
L 192.44318 228.105391 
L 192.581744 234.679304 
L 192.651025 232.214087 
L 192.789589 222.353217 
L 192.928153 229.420174 
L 193.135998 215.614957 
L 193.20528 218.901913 
L 193.274562 222.353217 
L 193.482407 210.520174 
L 193.551689 215.286261 
L 193.620971 220.709739 
L 193.690253 220.216696 
L 193.759534 216.108 
L 193.828816 217.422783 
L 194.036662 234.679304 
L 194.105943 232.214087 
L 194.175225 234.021913 
L 194.383071 248.155826 
L 194.521634 242.732348 
L 194.660198 254.072348 
L 194.72948 253.086261 
L 194.868043 246.676696 
L 195.006607 256.20887 
L 195.075889 254.236696 
L 195.214452 244.86887 
L 195.353016 254.565391 
L 195.422298 253.086261 
L 195.560861 246.019304 
L 195.699425 254.729739 
L 195.768707 252.593217 
L 195.90727 245.197565 
L 196.045834 254.894087 
L 196.253679 245.854957 
L 196.392243 254.729739 
L 196.461525 252.757565 
L 196.600088 245.526261 
L 196.738652 254.729739 
L 196.807934 253.250609 
L 196.946497 245.526261 
L 197.085061 254.894087 
L 197.292907 245.690609 
L 197.43147 255.715826 
L 197.500752 252.921913 
L 197.639316 247.005391 
L 197.777879 256.044522 
L 197.847161 253.908 
L 197.985725 246.512348 
L 198.124288 256.044522 
L 198.19357 253.579304 
L 198.332134 245.854957 
L 198.470697 255.551478 
L 198.539979 253.579304 
L 198.678543 245.854957 
L 198.817106 256.044522 
L 198.886388 254.072348 
L 199.024952 246.676696 
L 199.163515 256.373217 
L 199.371361 243.225391 
L 199.509924 252.264522 
L 199.71777 239.116696 
L 199.787052 241.910609 
L 199.856333 242.896696 
L 200.064179 231.721043 
L 200.202742 243.882783 
L 200.272024 242.403652 
L 200.410588 235.829739 
L 200.618433 248.64887 
L 200.687715 245.854957 
L 200.826279 253.908 
L 200.89556 258.016696 
L 200.964842 255.551478 
L 201.103406 249.306261 
L 201.24197 259.331478 
L 201.449815 249.634957 
L 201.588379 259.331478 
L 201.65766 257.030609 
L 201.796224 250.128 
L 202.004069 271.986261 
L 202.073351 268.041913 
L 202.281197 244.540174 
L 202.558324 74.275826 
L 202.627606 86.930609 
L 202.974015 249.141913 
L 203.043296 247.169739 
L 203.18186 240.26713 
L 203.320424 251.114087 
L 203.389706 249.306261 
L 203.528269 244.04713 
L 203.666833 253.579304 
L 203.874678 243.718435 
L 204.013242 253.086261 
L 204.221087 242.568 
L 204.359651 251.278435 
L 204.567496 239.774087 
L 204.70606 248.320174 
L 204.913905 236.815826 
L 205.052469 244.704522 
L 205.260314 232.542783 
L 205.398878 240.431478 
L 205.606723 228.269739 
L 205.745287 235.336696 
L 205.953132 222.353217 
L 206.091696 228.598435 
L 206.299541 215.450609 
L 206.438105 222.18887 
L 206.64595 210.02713 
L 206.784514 217.915826 
L 206.923078 209.041043 
L 206.992359 209.698435 
L 207.200205 224.325391 
L 207.269487 222.353217 
L 207.338768 225.14713 
L 207.477332 241.417565 
L 207.546614 240.595826 
L 207.615896 237.801913 
L 207.685178 238.952348 
L 207.823741 251.771478 
L 207.962305 244.211478 
L 208.031587 244.540174 
L 208.17015 254.729739 
L 208.377996 245.854957 
L 208.516559 254.236696 
L 208.724405 246.019304 
L 208.862968 255.551478 
L 209.070814 245.361913 
L 209.209377 254.565391 
L 209.417223 245.854957 
L 209.555786 255.058435 
L 209.763632 246.183652 
L 209.902195 255.880174 
L 210.110041 246.512348 
L 210.248604 256.20887 
L 210.45645 247.334087 
L 210.595013 256.866261 
L 210.733577 247.662783 
L 210.802859 247.82713 
L 210.941422 257.523652 
L 211.079986 248.484522 
L 211.149268 249.141913 
L 211.287831 258.016696 
L 211.495677 249.634957 
L 211.63424 257.688 
L 211.772804 249.799304 
L 211.842086 250.128 
L 211.98065 258.838435 
L 212.188495 249.799304 
L 212.327059 258.016696 
L 212.465622 249.141913 
L 212.534904 249.634957 
L 212.673468 256.866261 
L 212.812031 246.019304 
L 212.881313 246.183652 
L 213.019877 252.100174 
L 213.227722 238.294957 
L 213.297004 241.746261 
L 213.366286 244.04713 
L 213.504849 237.144522 
L 213.574131 239.609739 
L 213.712695 249.141913 
L 213.851258 240.26713 
L 213.92054 241.581913 
L 214.128386 253.579304 
L 214.197667 251.771478 
L 214.266949 252.593217 
L 214.405513 261.796696 
L 214.544076 253.086261 
L 214.613358 253.743652 
L 214.751922 263.275826 
L 214.890485 254.729739 
L 214.959767 255.058435 
L 215.098331 264.261913 
L 215.236894 255.715826 
L 215.306176 258.345391 
L 215.44474 281.682783 
L 215.514022 280.368 
L 215.721867 250.456696 
L 215.998994 74.111478 
L 216.068276 85.451478 
L 216.483967 250.292348 
L 216.553249 247.662783 
L 216.622531 244.704522 
L 216.691812 247.334087 
L 216.830376 259.824522 
L 216.96894 251.278435 
L 217.038221 253.579304 
L 217.176785 261.961043 
L 217.315349 252.593217 
L 217.38463 253.579304 
L 217.523194 260.810609 
L 217.661758 250.785391 
L 217.731039 251.935826 
L 217.869603 258.838435 
L 218.008167 248.320174 
L 218.077448 248.813217 
L 218.216012 256.537565 
L 218.354576 245.526261 
L 218.423858 245.690609 
L 218.562421 252.757565 
L 218.700985 241.581913 
L 218.770267 242.074957 
L 218.90883 248.155826 
L 219.047394 236.48713 
L 219.116676 236.980174 
L 219.255239 242.732348 
L 219.393803 231.392348 
L 219.463085 231.885391 
L 219.601648 236.322783 
L 219.740212 224.654087 
L 219.809494 225.311478 
L 219.948057 230.406261 
L 220.086621 219.066261 
L 220.155903 219.394957 
L 220.294466 225.96887 
L 220.43303 219.066261 
L 220.987284 251.278435 
L 221.056566 248.813217 
L 221.125848 245.854957 
L 221.333693 259.660174 
L 221.402975 255.551478 
L 221.472257 250.785391 
L 221.541539 252.593217 
L 221.680102 261.303652 
L 221.818666 251.60713 
L 221.887948 253.086261 
L 222.026511 261.468 
L 222.165075 252.757565 
L 222.234357 253.743652 
L 222.37292 261.468 
L 222.511484 251.935826 
L 222.580766 252.757565 
L 222.71933 260.974957 
L 222.857893 251.114087 
L 222.927175 252.42887 
L 223.065739 260.974957 
L 223.204302 250.621043 
L 223.273584 252.264522 
L 223.412148 259.98887 
L 223.550711 250.785391 
L 223.619993 252.100174 
L 223.758557 260.317565 
L 223.89712 250.128 
L 223.966402 251.60713 
L 224.104966 259.495826 
L 224.243529 250.456696 
L 224.312811 251.935826 
L 224.451375 260.317565 
L 224.589938 251.278435 
L 224.65922 252.757565 
L 224.797784 261.303652 
L 224.936347 250.621043 
L 225.005629 252.921913 
L 225.144193 260.153217 
L 225.282756 250.456696 
L 225.352038 252.593217 
L 225.490602 260.646261 
L 225.629165 251.442783 
L 225.698447 252.42887 
L 225.837011 259.660174 
L 225.975574 250.292348 
L 226.044856 252.757565 
L 226.18342 260.153217 
L 226.321983 249.470609 
L 226.391265 249.963652 
L 226.529829 256.537565 
L 226.668393 245.197565 
L 226.737674 246.019304 
L 226.806956 250.128 
L 226.876238 248.484522 
L 227.014802 235.501043 
L 227.084083 237.966261 
L 227.222647 247.498435 
L 227.361211 238.459304 
L 227.569056 248.977565 
L 227.638338 246.676696 
L 227.70762 244.86887 
L 227.915465 260.810609 
L 228.054029 251.114087 
L 228.261874 261.796696 
L 228.400438 251.935826 
L 228.608283 262.289739 
L 228.746847 253.579304 
L 228.816129 255.715826 
L 229.093256 270.178435 
L 229.162538 274.28713 
L 229.231819 273.794087 
L 229.370383 239.445391 
L 229.64751 69.674087 
L 229.716792 77.069739 
L 229.855356 153.984522 
L 230.063201 243.061043 
L 230.132483 239.938435 
L 230.340328 252.264522 
L 230.40961 248.64887 
L 230.478892 245.690609 
L 230.686737 255.715826 
L 230.825301 245.854957 
L 231.033146 255.058435 
L 231.17171 245.526261 
L 231.310274 253.743652 
L 231.379555 253.579304 
L 231.518119 243.554087 
L 231.587401 245.033217 
L 231.725964 250.949739 
L 231.864528 239.609739 
L 231.93381 241.581913 
L 232.072373 246.841043 
L 232.210937 235.501043 
L 232.280219 238.294957 
L 232.349501 242.896696 
L 232.418782 242.239304 
L 232.557346 231.556696 
L 232.626628 233.52887 
L 232.69591 238.623652 
L 232.765191 237.637565 
L 232.903755 224.982783 
L 232.973037 226.954957 
L 233.042319 231.721043 
L 233.111601 230.406261 
L 233.250164 217.094087 
L 233.319446 219.066261 
L 233.388728 223.996696 
L 233.45801 222.517565 
L 233.596573 210.684522 
L 233.665855 212.328 
L 233.735137 217.751478 
L 233.804419 217.094087 
L 233.942982 206.24713 
L 234.150828 218.573217 
L 234.220109 216.601043 
L 234.289391 216.436696 
L 234.497237 236.980174 
L 234.566518 234.350609 
L 234.6358 233.857565 
L 234.843646 249.799304 
L 234.982209 241.581913 
L 235.190055 254.236696 
L 235.328618 245.033217 
L 235.467182 254.072348 
L 235.536464 253.743652 
L 235.675027 245.033217 
L 235.813591 254.236696 
L 235.882873 253.908 
L 236.021436 244.04713 
L 236.229282 253.743652 
L 236.367845 244.540174 
L 236.575691 253.250609 
L 236.714254 244.375826 
L 236.9221 253.908 
L 237.060663 243.882783 
L 237.129945 246.183652 
L 237.199227 253.250609 
L 237.268509 253.086261 
L 237.407073 244.704522 
L 237.545636 253.908 
L 237.614918 253.743652 
L 237.753482 244.211478 
L 237.961327 253.908 
L 238.099891 245.033217 
L 238.238454 254.072348 
L 238.307736 253.579304 
L 238.4463 245.033217 
L 238.584863 253.579304 
L 238.654145 253.250609 
L 238.792709 244.211478 
L 238.931272 254.401043 
L 239.000554 254.236696 
L 239.139118 245.197565 
L 239.277681 254.401043 
L 239.346963 253.743652 
L 239.485527 244.211478 
L 239.62409 251.771478 
L 239.693372 251.442783 
L 239.831936 239.938435 
L 239.970499 247.169739 
L 240.039781 244.704522 
L 240.178345 230.734957 
L 240.38619 240.595826 
L 240.524754 233.364522 
L 240.732599 244.704522 
L 240.871163 238.952348 
L 241.079008 255.880174 
L 241.217572 247.662783 
L 241.356135 256.373217 
L 241.425417 255.715826 
L 241.563981 247.334087 
L 241.702545 258.016696 
L 241.771826 256.866261 
L 241.91039 247.82713 
L 242.048954 257.359304 
L 242.118235 256.866261 
L 242.187517 256.373217 
L 242.395363 273.465391 
L 242.533926 242.074957 
L 242.880335 91.532348 
L 242.949617 114.376696 
L 243.226744 240.924522 
L 243.296026 238.788 
L 243.43459 248.155826 
L 243.503871 247.662783 
L 243.642435 241.910609 
L 243.780999 253.086261 
L 243.850281 252.264522 
L 243.988844 243.389739 
L 244.127408 251.278435 
L 244.19669 250.621043 
L 244.335253 241.746261 
L 244.473817 251.60713 
L 244.543099 249.306261 
L 244.681662 240.595826 
L 244.820226 247.991478 
L 244.889508 246.019304 
L 245.028071 236.815826 
L 245.166635 245.033217 
L 245.235917 243.554087 
L 245.37448 234.021913 
L 245.513044 241.581913 
L 245.582326 239.609739 
L 245.720889 228.92713 
L 245.859453 236.815826 
L 245.928735 234.679304 
L 246.067298 224.325391 
L 246.205862 231.556696 
L 246.275144 229.255826 
L 246.413707 217.422783 
L 246.552271 225.804522 
L 246.621553 223.174957 
L 246.760116 211.999304 
L 246.89868 220.381043 
L 246.967962 217.751478 
L 247.106525 208.712348 
L 247.314371 220.052348 
L 247.383653 216.601043 
L 247.452934 217.422783 
L 247.66078 236.158435 
L 247.730062 233.52887 
L 247.799343 234.021913 
L 248.007189 248.320174 
L 248.145753 242.403652 
L 248.284316 253.579304 
L 248.353598 252.42887 
L 248.492162 245.033217 
L 248.630725 255.058435 
L 248.700007 252.921913 
L 248.838571 245.690609 
L 248.977134 255.058435 
L 249.046416 253.908 
L 249.18498 246.348 
L 249.323543 255.38713 
L 249.392825 253.743652 
L 249.531389 246.183652 
L 249.669952 255.551478 
L 249.739234 253.414957 
L 249.877798 244.704522 
L 250.016361 254.072348 
L 250.085643 251.935826 
L 250.224207 245.033217 
L 250.36277 254.565391 
L 250.432052 252.264522 
L 250.570616 244.375826 
L 250.709179 254.565391 
L 250.778461 252.757565 
L 250.917025 245.033217 
L 251.055588 255.551478 
L 251.12487 254.729739 
L 251.263434 246.019304 
L 251.401997 257.688 
L 251.471279 256.044522 
L 251.609843 247.498435 
L 251.748406 258.509739 
L 251.817688 256.373217 
L 251.956252 247.991478 
L 252.094816 257.688 
L 252.164097 255.38713 
L 252.302661 246.348 
L 252.441225 258.838435 
L 252.64907 247.662783 
L 252.787634 257.359304 
L 252.856915 256.373217 
L 252.995479 248.64887 
L 253.134043 257.688 
L 253.341888 247.662783 
L 253.480452 256.537565 
L 253.688297 243.718435 
L 253.757579 247.334087 
L 253.826861 251.60713 
L 253.896142 248.977565 
L 254.034706 235.008 
L 254.17327 242.896696 
L 254.242552 241.417565 
L 254.381115 236.980174 
L 254.519679 247.005391 
L 254.588961 246.019304 
L 254.727524 240.102783 
L 254.93537 255.222783 
L 255.073933 251.442783 
L 255.212497 261.139304 
L 255.420342 251.60713 
L 255.558906 261.796696 
L 255.628188 260.153217 
L 255.766751 252.264522 
L 255.905315 262.618435 
L 256.043878 255.551478 
L 256.11316 258.674087 
L 256.251724 282.175826 
L 256.321006 280.039304 
L 256.528851 234.021913 
L 256.805978 53.568 
L 256.87526 72.139304 
L 257.290951 247.005391 
L 257.360233 246.841043 
L 257.498796 242.568 
L 257.63736 254.401043 
L 257.706642 253.250609 
L 257.845205 248.320174 
L 257.983769 257.688 
L 258.053051 255.222783 
L 258.191614 248.155826 
L 258.330178 256.20887 
L 258.538024 246.348 
L 258.676587 254.894087 
L 258.884433 243.554087 
L 259.022996 251.935826 
L 259.230842 240.26713 
L 259.369405 247.82713 
L 259.577251 236.322783 
L 259.715814 244.375826 
L 259.92366 231.392348 
L 260.062223 238.130609 
L 260.270069 224.325391 
L 260.408632 231.556696 
L 260.616478 218.573217 
L 260.755041 225.311478 
L 260.962887 212.656696 
L 261.10145 221.695826 
L 261.240014 214.957565 
L 261.309296 215.779304 
L 261.517141 231.721043 
L 261.586423 229.913217 
L 261.655705 232.378435 
L 261.794268 248.813217 
L 261.86355 247.662783 
L 261.932832 243.718435 
L 262.002114 244.211478 
L 262.140677 255.551478 
L 262.209959 253.414957 
L 262.348523 247.662783 
L 262.487086 258.509739 
L 262.694932 248.320174 
L 262.833496 257.359304 
L 262.972059 248.977565 
L 263.041341 249.141913 
L 263.179905 257.688 
L 263.38775 249.306261 
L 263.526314 258.345391 
L 263.734159 249.141913 
L 263.872723 258.345391 
L 264.080568 248.155826 
L 264.219132 258.181043 
L 264.426977 247.82713 
L 264.565541 257.688 
L 264.704104 248.813217 
L 264.773386 248.977565 
L 264.91195 258.674087 
L 265.119795 248.977565 
L 265.258359 258.509739 
L 265.466204 249.306261 
L 265.604768 258.838435 
L 265.812613 248.977565 
L 265.951177 259.16713 
L 266.08974 249.141913 
L 266.159022 249.306261 
L 266.297586 258.838435 
L 266.505431 248.977565 
L 266.643995 259.331478 
L 266.85184 249.470609 
L 266.990404 258.674087 
L 267.198249 248.64887 
L 267.336813 255.880174 
L 267.544658 242.732348 
L 267.683222 248.320174 
L 267.821786 234.843652 
L 267.891067 235.665391 
L 268.029631 245.690609 
L 268.168195 238.623652 
L 268.237476 239.281043 
L 268.37604 250.456696 
L 268.445322 248.813217 
L 268.514604 244.86887 
L 268.583885 247.662783 
L 268.722449 259.824522 
L 268.861013 252.100174 
L 268.930294 252.42887 
L 269.068858 261.139304 
L 269.207422 252.264522 
L 269.276704 252.593217 
L 269.415267 262.782783 
L 269.553831 253.579304 
L 269.623113 253.743652 
L 269.90024 267.54887 
L 270.038803 270.671478 
L 270.177367 239.774087 
L 270.454494 84.465391 
L 270.523776 93.997565 
L 270.731621 218.573217 
L 270.800903 248.813217 
L 270.870185 248.320174 
L 271.008749 243.882783 
L 271.147312 254.072348 
L 271.285876 245.690609 
L 271.355158 247.169739 
L 271.493721 256.866261 
L 271.632285 247.005391 
L 271.701567 247.498435 
L 271.84013 257.359304 
L 271.978694 246.348 
L 272.047976 246.676696 
L 272.186539 254.894087 
L 272.394385 244.540174 
L 272.532948 252.593217 
L 272.740794 241.581913 
L 272.879357 249.470609 
L 273.087203 238.459304 
L 273.225766 245.361913 
L 273.433612 233.857565 
L 273.572176 240.924522 
L 273.780021 228.105391 
L 273.918585 235.501043 
L 274.057148 222.353217 
L 274.12643 222.681913 
L 274.264994 229.091478 
L 274.472839 216.765391 
L 274.611403 224.161043 
L 274.749966 214.135826 
L 274.819248 215.943652 
L 274.957812 227.612348 
L 275.027093 226.297565 
L 275.096375 224.325391 
L 275.234939 238.294957 
L 275.304221 244.375826 
L 275.373503 242.896696 
L 275.442784 240.102783 
L 275.581348 251.60713 
L 275.65063 255.880174 
L 275.789193 248.484522 
L 275.858475 249.634957 
L 275.997039 259.660174 
L 276.135602 250.949739 
L 276.204884 251.442783 
L 276.343448 260.317565 
L 276.482011 251.114087 
L 276.551293 252.264522 
L 276.689857 261.303652 
L 276.82842 251.114087 
L 276.897702 251.935826 
L 277.036266 260.646261 
L 277.174829 250.949739 
L 277.244111 252.593217 
L 277.382675 261.303652 
L 277.521239 251.278435 
L 277.59052 252.100174 
L 277.729084 261.139304 
L 277.867648 251.278435 
L 277.936929 252.593217 
L 278.075493 261.961043 
L 278.214057 251.60713 
L 278.283338 253.579304 
L 278.421902 262.782783 
L 278.560466 253.250609 
L 278.629747 255.058435 
L 278.768311 263.111478 
L 278.906875 254.072348 
L 278.976156 256.044522 
L 279.11472 265.083652 
L 279.253284 255.38713 
L 279.322565 256.866261 
L 279.461129 265.412348 
L 279.599693 256.044522 
L 279.668975 257.852348 
L 279.807538 265.741043 
L 279.946102 255.880174 
L 280.015384 257.523652 
L 280.153947 265.576696 
L 280.292511 255.551478 
L 280.361793 256.701913 
L 280.500356 265.248 
L 280.63892 256.373217 
L 280.708202 257.688 
L 280.846765 265.248 
L 280.985329 255.715826 
L 281.054611 257.194957 
L 281.193174 262.94713 
L 281.331738 252.100174 
L 281.40102 252.757565 
L 281.539583 258.838435 
L 281.747429 244.86887 
L 281.885992 250.128 
L 282.024556 242.239304 
L 282.232401 253.908 
L 282.370965 244.704522 
L 282.57881 258.016696 
L 282.648092 256.537565 
L 282.717374 255.058435 
L 282.925219 266.069739 
L 283.063783 256.373217 
L 283.133065 258.181043 
L 283.271628 265.248 
L 283.410192 257.852348 
L 283.479474 258.016696 
L 283.618037 264.426261 
L 283.756601 255.222783 
L 283.964447 282.66887 
L 284.033728 278.231478 
L 284.241574 240.760174 
L 284.518701 69.016696 
L 284.587983 86.766261 
L 285.003674 245.690609 
L 285.142237 239.774087 
L 285.350083 255.880174 
L 285.419364 252.100174 
L 285.488646 248.484522 
L 285.696492 258.016696 
L 285.835055 249.306261 
L 286.042901 258.674087 
L 286.181464 249.634957 
L 286.250746 251.771478 
L 286.38931 258.838435 
L 286.527873 249.470609 
L 286.597155 251.114087 
L 286.735719 259.495826 
L 286.874282 249.799304 
L 287.082128 258.345391 
L 287.220691 248.320174 
L 287.428537 256.866261 
L 287.5671 246.676696 
L 287.636382 248.155826 
L 287.774946 252.921913 
L 287.913509 242.403652 
L 287.982791 243.718435 
L 288.121355 248.155826 
L 288.259919 237.637565 
L 288.3292 238.952348 
L 288.467764 243.389739 
L 288.606328 232.70713 
L 288.675609 234.514957 
L 288.814173 240.102783 
L 288.952737 232.871478 
L 289.160582 250.785391 
L 289.229864 249.963652 
L 289.299146 249.470609 
L 289.506991 266.562783 
L 289.576273 264.261913 
L 289.645555 262.125391 
L 289.8534 274.780174 
L 289.991964 267.877565 
L 290.199809 277.409739 
L 290.338373 269.192348 
L 290.407655 271.164522 
L 290.546218 278.724522 
L 290.684782 269.028 
L 290.892627 277.409739 
L 291.031191 268.534957 
L 291.239036 277.738435 
L 291.3776 268.699304 
L 291.585445 277.409739 
L 291.724009 268.534957 
L 291.793291 270.671478 
L 291.931854 277.574087 
L 292.070418 267.713217 
L 292.278263 276.259304 
L 292.416827 267.384522 
L 292.486109 269.521043 
L 292.624672 276.916696 
L 292.763236 266.562783 
L 292.971081 274.451478 
L 293.109645 266.72713 
L 293.178927 269.028 
L 293.31749 275.273217 
L 293.456054 266.72713 
L 293.525336 268.699304 
L 293.663899 274.944522 
L 293.802463 266.562783 
L 293.941027 274.780174 
L 294.010308 273.629739 
L 294.148872 265.741043 
L 294.356717 275.437565 
L 294.495281 266.891478 
L 294.703127 274.122783 
L 294.84169 266.069739 
L 294.980254 273.629739 
L 295.049536 273.136696 
L 295.188099 263.275826 
L 295.257381 265.248 
L 295.395945 269.849739 
L 295.534508 258.509739 
L 295.60379 259.660174 
L 295.673072 262.94713 
L 295.811635 254.072348 
L 295.880917 250.292348 
L 296.088763 260.153217 
L 296.227326 253.250609 
L 296.435172 265.083652 
L 296.504453 263.604522 
L 296.573735 262.94713 
L 296.781581 275.273217 
L 296.920144 265.412348 
L 297.12799 274.615826 
L 297.266553 266.891478 
L 297.474399 276.259304 
L 297.612962 267.54887 
L 297.682244 270.014087 
L 297.89009 284.641043 
L 298.097935 275.437565 
L 298.236499 218.40887 
L 298.444344 91.039304 
L 298.582908 131.140174 
L 298.860035 263.76887 
L 298.998599 256.373217 
L 299.206444 266.562783 
L 299.345008 260.153217 
L 299.552853 269.192348 
L 299.691417 260.481913 
L 299.82998 268.863652 
L 299.899262 267.384522 
L 300.037826 259.002783 
L 300.176389 266.398435 
L 300.245671 265.412348 
L 300.384235 256.866261 
L 300.522798 263.440174 
L 300.59208 263.111478 
L 300.730644 253.414957 
L 300.869207 260.646261 
L 300.938489 259.002783 
L 301.077053 249.799304 
L 301.215616 255.880174 
L 301.284898 254.729739 
L 301.423462 244.86887 
L 301.562025 251.278435 
L 301.631307 249.306261 
L 301.769871 238.294957 
L 301.908434 244.540174 
L 301.977716 242.568 
L 302.11628 232.542783 
L 302.254843 238.952348 
L 302.324125 237.473217 
L 302.462689 226.297565 
L 302.601252 233.364522 
L 302.670534 232.542783 
L 302.809098 224.325391 
L 303.016943 238.623652 
L 303.086225 237.144522 
L 303.155507 237.637565 
L 303.363352 255.551478 
L 303.501916 253.086261 
L 303.709761 266.069739 
L 303.848325 260.153217 
L 303.986889 269.685391 
L 304.05617 269.521043 
L 304.194734 261.632348 
L 304.333298 270.835826 
L 304.402579 269.849739 
L 304.541143 261.632348 
L 304.679707 269.521043 
L 304.748988 268.863652 
L 304.887552 261.468 
L 305.026116 270.014087 
L 305.095398 269.028 
L 305.233961 260.974957 
L 305.372525 269.849739 
L 305.441807 268.699304 
L 305.58037 261.303652 
L 305.718934 270.671478 
L 305.788216 269.849739 
L 305.926779 262.454087 
L 306.065343 271.164522 
L 306.134625 270.342783 
L 306.273188 263.275826 
L 306.411752 272.972348 
L 306.481034 271.32887 
L 306.619597 264.590609 
L 306.758161 273.465391 
L 306.827443 272.643652 
L 306.966006 265.741043 
L 307.10457 273.301043 
L 307.173852 271.986261 
L 307.312415 264.754957 
L 307.450979 273.794087 
L 307.520261 272.479304 
L 307.658824 265.741043 
L 307.797388 274.451478 
L 307.86667 272.314957 
L 308.005233 265.576696 
L 308.143797 274.28713 
L 308.213079 272.972348 
L 308.351642 265.576696 
L 308.490206 274.615826 
L 308.559488 273.794087 
L 308.698051 265.905391 
L 308.836615 273.794087 
L 308.905897 271.986261 
L 309.04446 262.289739 
L 309.183024 270.014087 
L 309.39087 258.181043 
L 309.460151 260.153217 
L 309.529433 261.468 
L 309.737279 251.278435 
L 309.875842 263.440174 
L 309.945124 261.796696 
L 310.083688 255.880174 
L 310.222251 265.741043 
L 310.291533 265.248 
L 310.360815 262.454087 
L 310.430097 264.754957 
L 310.56866 277.574087 
L 310.637942 275.601913 
L 310.776506 268.534957 
L 310.915069 278.231478 
L 311.122915 269.521043 
L 311.261478 278.395826 
L 311.33076 276.752348 
L 311.469324 269.356696 
L 311.677169 292.694087 
L 311.746451 292.036696 
L 311.954296 273.958435 
L 312.162142 130.64713 
L 312.300705 96.134087 
L 312.439269 144.288 
L 312.716396 260.646261 
L 312.785678 257.030609 
L 312.85496 257.523652 
L 312.993523 270.50713 
L 313.062805 270.178435 
L 313.201369 265.412348 
L 313.339932 274.944522 
L 313.409214 272.314957 
L 313.547778 265.083652 
L 313.686342 274.122783 
L 313.894187 264.590609 
L 314.032751 272.808 
L 314.240596 261.796696 
L 314.37916 270.014087 
L 314.587005 258.674087 
L 314.725569 266.398435 
L 314.933414 255.222783 
L 315.071978 262.454087 
L 315.279823 250.456696 
L 315.418387 257.194957 
L 315.626232 244.540174 
L 315.764796 250.785391 
L 315.972641 237.801913 
L 316.111205 243.882783 
L 316.31905 231.556696 
L 316.457614 238.459304 
L 316.665459 230.077565 
L 316.873305 242.896696 
L 316.942586 241.253217 
L 317.011868 243.718435 
L 317.150432 259.495826 
L 317.219714 259.16713 
L 317.288995 256.537565 
L 317.358277 257.688 
L 317.496841 269.028 
L 317.566123 267.220174 
L 317.704686 262.94713 
L 317.84325 273.136696 
L 317.912532 271.32887 
L 318.051095 264.261913 
L 318.189659 273.465391 
L 318.397504 264.590609 
L 318.536068 272.643652 
L 318.743913 264.426261 
L 318.882477 273.629739 
L 319.090322 263.111478 
L 319.228886 272.479304 
L 319.436731 263.275826 
L 319.575295 272.479304 
L 319.78314 262.94713 
L 319.921704 272.150609 
L 320.12955 263.604522 
L 320.268113 271.986261 
L 320.475959 263.933217 
L 320.614522 272.150609 
L 320.822368 264.261913 
L 320.960931 272.808 
L 321.168777 263.76887 
L 321.30734 271.986261 
L 321.515186 262.94713 
L 321.653749 272.314957 
L 321.861595 263.76887 
L 322.000158 272.479304 
L 322.208004 262.94713 
L 322.346567 271.986261 
L 322.554413 263.933217 
L 322.692976 269.685391 
L 322.900822 259.16713 
L 323.039385 264.754957 
L 323.247231 250.128 
L 323.385794 257.359304 
L 323.59364 251.771478 
L 323.732203 261.303652 
L 323.870767 253.908 
L 323.940049 255.551478 
L 324.078613 270.835826 
L 324.147894 270.671478 
L 324.217176 265.905391 
L 324.286458 266.069739 
L 324.425022 273.136696 
L 324.632867 265.412348 
L 324.771431 274.28713 
L 324.909994 265.905391 
L 324.979276 266.398435 
L 325.11784 275.437565 
L 325.256403 268.699304 
L 325.464249 291.050609 
L 325.602812 265.412348 
L 325.741376 211.177565 
L 325.949221 80.685391 
L 326.087785 137.714087 
L 326.364912 254.729739 
L 326.503476 263.933217 
L 326.642039 257.030609 
L 326.711321 258.016696 
L 326.849885 268.699304 
L 327.05773 260.317565 
L 327.196294 268.041913 
L 327.334857 259.331478 
L 327.404139 259.660174 
L 327.542703 267.54887 
L 327.750548 257.523652 
L 327.889112 265.412348 
L 328.096957 254.894087 
L 328.235521 261.303652 
L 328.443366 251.935826 
L 328.58193 258.345391 
L 328.789775 247.662783 
L 328.928339 253.579304 
L 329.136184 240.595826 
L 329.274748 246.183652 
L 329.482593 233.693217 
L 329.621157 238.623652 
L 329.829002 226.297565 
L 329.967566 231.721043 
L 330.175411 221.038435 
L 330.313975 228.269739 
L 330.452539 224.325391 
L 330.521821 227.776696 
L 330.660384 243.225391 
L 330.729666 243.061043 
L 330.798948 242.074957 
L 331.006793 259.98887 
L 331.076075 257.688 
L 331.145357 254.401043 
L 331.214639 256.537565 
L 331.353202 267.384522 
L 331.491766 258.509739 
L 331.561048 260.153217 
L 331.699611 268.041913 
L 331.838175 259.660174 
L 331.907457 260.974957 
L 332.04602 268.206261 
L 332.184584 259.660174 
L 332.253866 260.317565 
L 332.392429 268.041913 
L 332.530993 259.16713 
L 332.600275 259.98887 
L 332.738838 267.54887 
L 332.877402 259.331478 
L 332.946684 259.98887 
L 333.085247 268.041913 
L 333.223811 259.002783 
L 333.293093 259.824522 
L 333.431656 267.384522 
L 333.57022 258.838435 
L 333.639502 260.317565 
L 333.778065 268.041913 
L 333.916629 259.331478 
L 333.985911 261.632348 
L 334.124474 269.028 
L 334.263038 261.303652 
L 334.33232 261.961043 
L 334.470883 270.342783 
L 334.609447 261.468 
L 334.678729 263.440174 
L 334.817293 271.000174 
L 334.955856 262.289739 
L 335.025138 263.76887 
L 335.163702 271.32887 
L 335.302265 261.961043 
L 335.371547 263.111478 
L 335.510111 271.164522 
L 335.717956 260.646261 
L 335.85652 267.54887 
L 335.995083 257.688 
L 336.064365 258.838435 
L 336.133647 262.94713 
L 336.202929 260.974957 
L 336.341492 246.512348 
L 336.410774 248.484522 
L 336.549338 259.824522 
L 336.687901 252.100174 
L 336.757183 255.058435 
L 336.895747 263.933217 
L 337.03431 259.824522 
L 337.242156 274.615826 
L 337.311438 269.849739 
L 337.380719 265.248 
L 337.450001 267.384522 
L 337.588565 275.273217 
L 337.727128 266.562783 
L 337.79641 268.370609 
L 337.934974 275.930609 
L 338.073537 268.206261 
L 338.142819 269.685391 
L 338.350665 278.231478 
L 338.55851 292.529739 
L 338.627792 285.791478 
L 338.766355 238.788 
L 339.043483 99.749739 
L 339.182046 153.491478 
L 339.389892 257.359304 
L 339.459174 255.222783 
L 339.528455 257.523652 
L 339.667019 266.891478 
L 339.805583 261.632348 
L 340.013428 272.808 
L 340.08271 268.534957 
L 340.151992 264.590609 
L 340.221273 265.905391 
L 340.359837 272.150609 
L 340.498401 261.961043 
L 340.567682 264.261913 
L 340.706246 270.835826 
L 340.84481 261.139304 
L 340.914091 263.275826 
L 341.052655 268.206261 
L 341.191219 259.002783 
L 341.260501 260.481913 
L 341.399064 266.069739 
L 341.537628 255.38713 
L 341.60691 256.537565 
L 341.745473 262.289739 
L 341.884037 251.935826 
L 341.953319 252.264522 
L 342.091882 257.359304 
L 342.230446 246.183652 
L 342.299728 247.334087 
L 342.369009 252.100174 
L 342.438291 251.771478 
L 342.576855 240.26713 
L 342.646137 241.581913 
L 342.7847 246.512348 
L 342.923264 234.186261 
L 342.992546 235.829739 
L 343.131109 240.760174 
L 343.269673 231.063652 
L 343.477518 242.568 
L 343.5468 240.431478 
L 343.616082 239.938435 
L 343.823927 257.852348 
L 343.893209 256.20887 
L 343.962491 255.058435 
L 344.170336 270.014087 
L 344.3089 263.440174 
L 344.516745 273.958435 
L 344.655309 265.905391 
L 344.863154 274.615826 
L 345.001718 265.576696 
L 345.209563 274.28713 
L 345.348127 266.234087 
L 345.555973 274.615826 
L 345.694536 265.576696 
L 345.902382 274.615826 
L 346.040945 265.741043 
L 346.179509 273.465391 
L 346.248791 272.972348 
L 346.387354 265.083652 
L 346.456636 266.891478 
L 346.5952 273.629739 
L 346.733763 264.754957 
L 346.941609 273.794087 
L 347.080172 265.083652 
L 347.288018 274.615826 
L 347.426581 267.54887 
L 347.495863 269.028 
L 347.634427 274.451478 
L 347.77299 266.234087 
L 347.911554 275.601913 
L 347.980836 275.437565 
L 348.119399 267.384522 
L 348.327245 276.094957 
L 348.465808 267.713217 
L 348.53509 269.192348 
L 348.604372 274.780174 
L 348.673654 274.451478 
L 348.812217 265.412348 
L 349.020063 274.944522 
L 349.158626 266.398435 
L 349.366472 274.780174 
L 349.505036 263.111478 
L 349.574317 264.919304 
L 349.643599 269.685391 
L 349.712881 269.192348 
L 349.851445 258.509739 
L 349.920726 259.660174 
L 349.990008 261.796696 
L 350.197854 249.306261 
L 350.405699 261.961043 
L 350.544263 253.743652 
L 350.752108 265.905391 
L 350.82139 262.94713 
L 350.890672 263.111478 
L 351.098517 276.259304 
L 351.237081 268.041913 
L 351.375644 276.752348 
L 351.444926 276.094957 
L 351.58349 268.206261 
L 351.722053 277.574087 
L 351.791335 276.259304 
L 351.929899 268.370609 
L 352.068462 280.532348 
L 352.207026 290.886261 
L 352.414871 276.259304 
L 352.553435 204.603652 
L 352.76128 81.178435 
L 352.899844 126.045391 
L 353.176971 260.317565 
L 353.315535 255.551478 
L 353.52338 266.72713 
L 353.661944 260.317565 
L 353.800508 270.671478 
L 353.869789 269.356696 
L 354.008353 262.618435 
L 354.146917 270.014087 
L 354.216198 268.863652 
L 354.354762 260.153217 
L 354.562607 267.055826 
L 354.701171 257.688 
L 354.839735 264.754957 
L 354.909016 263.604522 
L 355.04758 253.908 
L 355.186144 262.782783 
L 355.255425 260.810609 
L 355.393989 251.442783 
L 355.532553 258.016696 
L 355.601834 255.880174 
L 355.740398 245.526261 
L 355.878962 252.100174 
L 355.948244 250.785391 
L 356.086807 240.760174 
L 356.225371 245.361913 
L 356.294653 242.732348 
L 356.433216 232.542783 
L 356.57178 237.966261 
L 356.779625 226.133217 
L 356.848907 228.762783 
L 356.918189 232.542783 
L 357.126034 223.832348 
L 357.33388 237.801913 
L 357.403161 235.994087 
L 357.472443 237.30887 
L 357.680289 255.38713 
L 357.818852 251.771478 
L 358.026698 264.754957 
L 358.165261 258.509739 
L 358.303825 268.699304 
L 358.373107 268.206261 
L 358.51167 259.495826 
L 358.650234 268.041913 
L 358.719516 267.220174 
L 358.858079 259.16713 
L 358.996643 268.206261 
L 359.065925 266.72713 
L 359.204488 258.838435 
L 359.343052 267.384522 
L 359.412334 266.562783 
L 359.550897 259.002783 
L 359.689461 267.54887 
L 359.758743 267.055826 
L 359.897306 259.002783 
L 360.03587 267.384522 
L 360.105152 266.069739 
L 360.243716 259.002783 
L 360.382279 267.877565 
L 360.451561 266.891478 
L 360.590125 259.331478 
L 360.728688 267.220174 
L 360.79797 266.234087 
L 360.936534 258.674087 
L 361.075097 268.534957 
L 361.144379 267.055826 
L 361.282943 259.495826 
L 361.421506 268.206261 
L 361.490788 267.220174 
L 361.629352 259.824522 
L 361.767915 269.356696 
L 361.837197 268.370609 
L 361.975761 259.331478 
L 362.114324 269.028 
L 362.183606 267.220174 
L 362.32217 259.495826 
L 362.460733 268.041913 
L 362.668579 256.044522 
L 362.737861 260.317565 
L 362.807142 263.440174 
L 363.014988 251.442783 
L 363.153551 253.908 
L 363.361397 246.676696 
L 363.49996 256.866261 
L 363.569242 255.880174 
L 363.707806 250.621043 
L 363.915651 265.576696 
L 364.054215 261.303652 
L 364.192778 270.671478 
L 364.26206 269.356696 
L 364.400624 262.618435 
L 364.539188 271.493217 
L 364.608469 270.342783 
L 364.747033 263.604522 
L 364.885597 272.643652 
L 364.954878 270.671478 
L 365.093442 263.933217 
L 365.301287 287.599304 
L 365.370569 282.66887 
L 365.578415 251.278435 
L 365.855542 99.749739 
L 366.063387 191.784522 
L 366.271233 264.754957 
L 366.479078 256.20887 
L 366.617642 266.069739 
L 366.686924 265.741043 
L 366.825487 260.153217 
L 366.964051 268.534957 
L 367.033333 266.891478 
L 367.171896 260.317565 
L 367.31046 268.534957 
L 367.518305 258.181043 
L 367.656869 266.562783 
L 367.726151 264.261913 
L 367.864714 256.044522 
L 368.003278 264.754957 
L 368.211123 253.908 
L 368.349687 260.646261 
L 368.557532 249.470609 
L 368.696096 256.701913 
L 368.903941 244.540174 
L 369.042505 251.442783 
L 369.25035 237.966261 
L 369.319632 241.746261 
L 369.388914 244.704522 
L 369.458196 242.239304 
L 369.596759 232.378435 
L 369.735323 239.281043 
L 369.943168 227.941043 
L 370.081732 235.501043 
L 370.151014 233.200174 
L 370.220296 228.92713 
L 370.289577 229.913217 
L 370.497423 244.540174 
L 370.566705 242.732348 
L 370.635986 244.86887 
L 370.77455 260.153217 
L 370.843832 259.824522 
L 370.913114 256.866261 
L 370.982396 257.359304 
L 371.120959 269.685391 
L 371.190241 267.713217 
L 371.328805 262.618435 
L 371.467368 272.643652 
L 371.675214 262.94713 
L 371.813777 271.32887 
L 371.883059 270.342783 
L 372.021623 262.782783 
L 372.160186 272.150609 
L 372.368032 263.76887 
L 372.506595 272.150609 
L 372.714441 263.440174 
L 372.853004 272.643652 
L 373.06085 263.111478 
L 373.199413 272.314957 
L 373.407259 262.94713 
L 373.545822 272.314957 
L 373.753668 263.275826 
L 373.892231 272.643652 
L 374.100077 263.933217 
L 374.23864 273.136696 
L 374.446486 265.248 
L 374.585049 274.451478 
L 374.792895 265.576696 
L 374.931459 274.451478 
L 375.139304 265.412348 
L 375.277868 275.10887 
L 375.485713 266.398435 
L 375.624277 274.780174 
L 375.832122 266.234087 
L 375.970686 275.437565 
L 376.178531 265.083652 
L 376.317095 273.958435 
L 376.52494 263.111478 
L 376.663504 268.534957 
L 376.871349 255.880174 
L 376.940631 258.181043 
L 377.009913 259.660174 
L 377.148476 251.60713 
L 377.217758 254.236696 
L 377.356322 263.604522 
L 377.564167 256.701913 
L 377.702731 267.54887 
L 377.772013 267.055826 
L 377.841294 265.412348 
L 378.04914 276.588 
L 378.118422 273.465391 
L 378.187703 268.041913 
L 378.256985 268.534957 
L 378.395549 276.916696 
L 378.534112 268.041913 
L 378.603394 269.192348 
L 378.741958 278.231478 
L 378.880521 270.50713 
L 378.949803 271.821913 
L 379.157649 295.488 
L 379.365494 269.192348 
L 379.504058 183.731478 
L 379.711903 71.810609 
L 379.919749 177.814957 
L 380.127594 259.98887 
L 380.196876 258.674087 
L 380.266158 255.058435 
L 380.335439 256.866261 
L 380.474003 269.028 
L 380.543285 266.891478 
L 380.612567 262.618435 
L 380.681848 263.440174 
L 380.820412 271.164522 
L 381.028257 262.289739 
L 381.166821 269.849739 
L 381.305385 260.974957 
L 381.374667 261.468 
L 381.51323 268.699304 
L 381.721076 258.838435 
L 381.859639 266.234087 
L 382.067485 256.20887 
L 382.206048 261.468 
L 382.413894 251.771478 
L 382.552457 258.838435 
L 382.691021 246.512348 
L 382.760303 246.841043 
L 382.898866 252.264522 
L 383.106712 240.595826 
L 383.245275 246.019304 
L 383.453121 232.378435 
L 383.591684 239.281043 
L 383.79953 227.776696 
L 383.938093 234.350609 
L 384.076657 226.133217 
L 384.215221 237.473217 
L 384.284502 242.568 
L 384.353784 242.074957 
L 384.423066 240.26713 
L 384.630911 258.838435 
L 384.700193 257.359304 
L 384.769475 253.908 
L 384.838757 256.20887 
L 384.97732 266.72713 
L 385.115884 259.98887 
L 385.185166 260.974957 
L 385.323729 269.521043 
L 385.462293 260.974957 
L 385.531575 261.796696 
L 385.670139 269.028 
L 385.808702 260.646261 
L 385.877984 261.139304 
L 386.016548 268.863652 
L 386.155111 260.481913 
L 386.224393 261.796696 
L 386.362957 267.713217 
L 386.50152 259.495826 
L 386.570802 260.646261 
L 386.709366 268.041913 
L 386.847929 259.002783 
L 386.917211 259.331478 
L 387.055775 266.891478 
L 387.194338 260.317565 
L 387.26362 260.810609 
L 387.402184 267.713217 
L 387.540747 259.002783 
L 387.610029 259.660174 
L 387.748593 266.72713 
L 387.817875 265.083652 
L 387.887156 259.98887 
L 387.956438 260.974957 
L 388.095002 268.863652 
L 388.233565 258.509739 
L 388.302847 259.98887 
L 388.441411 268.699304 
L 388.579974 260.481913 
L 388.649256 261.468 
L 388.78782 268.370609 
L 388.926383 260.153217 
L 388.995665 261.139304 
L 389.134229 268.041913 
L 389.272792 259.002783 
L 389.342074 260.646261 
L 389.480638 266.234087 
L 389.619201 255.880174 
L 389.688483 256.044522 
L 389.827047 261.796696 
L 390.034892 247.005391 
L 390.173456 251.442783 
L 390.31202 246.348 
L 390.519865 257.359304 
L 390.658429 250.456696 
L 390.866274 267.384522 
L 390.935556 265.083652 
L 391.004838 260.646261 
L 391.074119 262.125391 
L 391.212683 269.849739 
L 391.351247 261.796696 
L 391.420528 263.76887 
L 391.559092 270.835826 
L 391.697656 262.454087 
L 391.766937 263.933217 
L 391.905501 271.32887 
L 392.044065 264.754957 
L 392.25191 288.092348 
L 392.459756 244.540174 
L 392.736883 79.534957 
L 392.806165 97.284522 
L 393.152574 253.743652 
L 393.291137 261.961043 
L 393.429701 254.894087 
L 393.498983 256.866261 
L 393.637546 265.741043 
L 393.77611 257.523652 
L 393.845392 259.331478 
L 393.983955 266.562783 
L 394.122519 257.523652 
L 394.191801 258.838435 
L 394.330364 265.083652 
L 394.468928 255.551478 
L 394.53821 257.194957 
L 394.676773 263.604522 
L 394.815337 253.250609 
L 394.884619 254.565391 
L 395.023182 260.974957 
L 395.161746 249.963652 
L 395.231028 251.278435 
L 395.369591 256.537565 
L 395.508155 245.854957 
L 395.577437 247.005391 
L 395.646719 251.771478 
L 395.716 251.442783 
L 395.854564 241.417565 
L 395.923846 241.910609 
L 396.062409 246.348 
L 396.200973 235.336696 
L 396.270255 235.501043 
L 396.408819 240.431478 
L 396.547382 229.255826 
L 396.616664 230.734957 
L 396.755228 235.994087 
L 396.893791 224.818435 
L 396.963073 226.297565 
L 397.101637 234.186261 
L 397.2402 230.241913 
L 397.448046 248.977565 
L 397.517327 247.005391 
L 397.586609 246.512348 
L 397.794455 262.289739 
L 397.863736 259.331478 
L 397.933018 257.194957 
L 398.140864 268.206261 
L 398.279427 260.646261 
L 398.487273 268.699304 
L 398.487273 268.699304 
" style="fill:none;stroke:#1f77b4;stroke-linecap:square;stroke-width:1.5;"/>
   </g>
   <g id="patch_3">
    <path d="M 57.6 307.584 
L 57.6 41.472 
" style="fill:none;stroke:#000000;stroke-linecap:square;stroke-linejoin:miter;stroke-width:0.8;"/>
   </g>
   <g id="patch_4">
    <path d="M 414.72 307.584 
L 414.72 41.472 
" style="fill:none;stroke:#000000;stroke-linecap:square;stroke-linejoin:miter;stroke-width:0.8;"/>
   </g>
   <g id="patch_5">
    <path d="M 57.6 307.584 
L 414.72 307.584 
" style="fill:none;stroke:#000000;stroke-linecap:square;stroke-linejoin:miter;stroke-width:0.8;"/>
   </g>
   <g id="patch_6">
    <path d="M 57.6 41.472 
L 414.72 41.472 
" style="fill:none;stroke:#000000;stroke-linecap:square;stroke-linejoin:miter;stroke-width:0.8;"/>
   </g>
  </g>
 </g>
 <defs>
  <clipPath id="p559074df2c">
   <rect height="266.112" width="357.12" x="57.6" y="41.472"/>
  </clipPath>
 </defs>
</svg>
